%TF.GenerationSoftware,KiCad,Pcbnew,(5.1.10-1-10_14)*%
%TF.CreationDate,2021-08-01T06:39:00+09:00*%
%TF.ProjectId,v1,76312e6b-6963-4616-945f-706362585858,rev?*%
%TF.SameCoordinates,Original*%
%TF.FileFunction,Soldermask,Top*%
%TF.FilePolarity,Negative*%
%FSLAX46Y46*%
G04 Gerber Fmt 4.6, Leading zero omitted, Abs format (unit mm)*
G04 Created by KiCad (PCBNEW (5.1.10-1-10_14)) date 2021-08-01 06:39:00*
%MOMM*%
%LPD*%
G01*
G04 APERTURE LIST*
%ADD10C,3.000000*%
%ADD11C,1.900000*%
%ADD12C,4.100000*%
%ADD13C,2.200000*%
%ADD14C,4.300000*%
%ADD15C,1.200000*%
G04 APERTURE END LIST*
D10*
%TO.C,SW11*%
X92465000Y-42645000D03*
X86115000Y-45185000D03*
D11*
X84845000Y-47725000D03*
X95005000Y-47725000D03*
D12*
X89925000Y-47725000D03*
%TD*%
D13*
%TO.C,Ref\u002A\u002A*%
X199900000Y-86500000D03*
%TD*%
D14*
%TO.C,Ref\u002A\u002A*%
X292800000Y-82500000D03*
%TD*%
%TO.C,Ref\u002A\u002A*%
X240800000Y-42500000D03*
%TD*%
%TO.C,Ref\u002A\u002A*%
X224500000Y-84800000D03*
%TD*%
D13*
%TO.C,Ref\u002A\u002A*%
X185800000Y-86500000D03*
%TD*%
D14*
%TO.C,Ref\u002A\u002A*%
X297900000Y-42600000D03*
%TD*%
%TO.C,Ref\u002A\u002A*%
X66500000Y-82400000D03*
%TD*%
%TO.C,Ref\u002A\u002A*%
X61400000Y-42500000D03*
%TD*%
%TO.C,Ref\u002A\u002A*%
X118500000Y-42400000D03*
%TD*%
%TO.C,Ref\u002A\u002A*%
X134800000Y-84700000D03*
%TD*%
D13*
%TO.C,Ref\u002A\u002A*%
X159400000Y-86400000D03*
%TD*%
%TO.C,Ref\u002A\u002A*%
X173500000Y-86400000D03*
%TD*%
D10*
%TO.C,SW15*%
X139270591Y-91210295D03*
X138295295Y-97979557D03*
D11*
X139860000Y-100349409D03*
X144940000Y-91550591D03*
D12*
X142400000Y-95950000D03*
%TD*%
%TO.C,SW22*%
X158900000Y-105500000D03*
D11*
X161440000Y-101100591D03*
X156360000Y-109899409D03*
D10*
X154795295Y-107529557D03*
X155770591Y-100760295D03*
%TD*%
D15*
%TO.C,J1*%
X167300000Y-81600000D03*
X174300000Y-81600000D03*
%TD*%
%TO.C,J3*%
X185000000Y-81700000D03*
X192000000Y-81700000D03*
%TD*%
D10*
%TO.C,SW1*%
X149640000Y-38870000D03*
X143290000Y-41410000D03*
D11*
X142020000Y-43950000D03*
X152180000Y-43950000D03*
D12*
X147100000Y-43950000D03*
%TD*%
D10*
%TO.C,SW2*%
X130590000Y-29320000D03*
X124240000Y-31860000D03*
D11*
X122970000Y-34400000D03*
X133130000Y-34400000D03*
D12*
X128050000Y-34400000D03*
%TD*%
%TO.C,SW3*%
X109000000Y-31550000D03*
D11*
X114080000Y-31550000D03*
X103920000Y-31550000D03*
D10*
X105190000Y-29010000D03*
X111540000Y-26470000D03*
%TD*%
D12*
%TO.C,SW4*%
X89950000Y-28700000D03*
D11*
X95030000Y-28700000D03*
X84870000Y-28700000D03*
D10*
X86140000Y-26160000D03*
X92490000Y-23620000D03*
%TD*%
%TO.C,SW5*%
X73440000Y-26470000D03*
X67090000Y-29010000D03*
D11*
X65820000Y-31550000D03*
X75980000Y-31550000D03*
D12*
X70900000Y-31550000D03*
%TD*%
D10*
%TO.C,SW6*%
X54390000Y-29320000D03*
X48040000Y-31860000D03*
D11*
X46770000Y-34400000D03*
X56930000Y-34400000D03*
D12*
X51850000Y-34400000D03*
%TD*%
D10*
%TO.C,SW7*%
X35340000Y-32170000D03*
X28990000Y-34710000D03*
D11*
X27720000Y-37250000D03*
X37880000Y-37250000D03*
D12*
X32800000Y-37250000D03*
%TD*%
%TO.C,SW8*%
X147100000Y-63000000D03*
D11*
X152180000Y-63000000D03*
X142020000Y-63000000D03*
D10*
X143290000Y-60460000D03*
X149640000Y-57920000D03*
%TD*%
%TO.C,SW9*%
X130590000Y-48370000D03*
X124240000Y-50910000D03*
D11*
X122970000Y-53450000D03*
X133130000Y-53450000D03*
D12*
X128050000Y-53450000D03*
%TD*%
D10*
%TO.C,SW10*%
X111540000Y-45520000D03*
X105190000Y-48060000D03*
D11*
X103920000Y-50600000D03*
X114080000Y-50600000D03*
D12*
X109000000Y-50600000D03*
%TD*%
D10*
%TO.C,SW12*%
X73465000Y-45520000D03*
X67115000Y-48060000D03*
D11*
X65845000Y-50600000D03*
X76005000Y-50600000D03*
D12*
X70925000Y-50600000D03*
%TD*%
%TO.C,SW13*%
X51850000Y-53450000D03*
D11*
X56930000Y-53450000D03*
X46770000Y-53450000D03*
D10*
X48040000Y-50910000D03*
X54390000Y-48370000D03*
%TD*%
%TO.C,SW14*%
X35340000Y-51220000D03*
X28990000Y-53760000D03*
D11*
X27720000Y-56300000D03*
X37880000Y-56300000D03*
D12*
X32800000Y-56300000D03*
%TD*%
%TO.C,SW16*%
X128050000Y-72475000D03*
D11*
X133130000Y-72475000D03*
X122970000Y-72475000D03*
D10*
X124240000Y-69935000D03*
X130590000Y-67395000D03*
%TD*%
D12*
%TO.C,SW17*%
X109025000Y-69625000D03*
D11*
X114105000Y-69625000D03*
X103945000Y-69625000D03*
D10*
X105215000Y-67085000D03*
X111565000Y-64545000D03*
%TD*%
D12*
%TO.C,SW18*%
X89950000Y-66800000D03*
D11*
X95030000Y-66800000D03*
X84870000Y-66800000D03*
D10*
X86140000Y-64260000D03*
X92490000Y-61720000D03*
%TD*%
D12*
%TO.C,SW19*%
X70900000Y-69650000D03*
D11*
X75980000Y-69650000D03*
X65820000Y-69650000D03*
D10*
X67090000Y-67110000D03*
X73440000Y-64570000D03*
%TD*%
%TO.C,SW20*%
X54390000Y-67445000D03*
X48040000Y-69985000D03*
D11*
X46770000Y-72525000D03*
X56930000Y-72525000D03*
D12*
X51850000Y-72525000D03*
%TD*%
%TO.C,SW21*%
X32800000Y-75375000D03*
D11*
X37880000Y-75375000D03*
X27720000Y-75375000D03*
D10*
X28990000Y-72835000D03*
X35340000Y-70295000D03*
%TD*%
%TO.C,SW23*%
X124368252Y-88025497D03*
X117577223Y-88835448D03*
D11*
X115693097Y-90960199D03*
X125506903Y-93589801D03*
D12*
X120600000Y-92275000D03*
%TD*%
D10*
%TO.C,SW24*%
X102015000Y-83620000D03*
X95665000Y-86160000D03*
D11*
X94395000Y-88700000D03*
X104555000Y-88700000D03*
D12*
X99475000Y-88700000D03*
%TD*%
D10*
%TO.C,SW25*%
X82965000Y-83620000D03*
X76615000Y-86160000D03*
D11*
X75345000Y-88700000D03*
X85505000Y-88700000D03*
D12*
X80425000Y-88700000D03*
%TD*%
%TO.C,SW26*%
X212200000Y-44050000D03*
D11*
X217280000Y-44050000D03*
X207120000Y-44050000D03*
D10*
X208390000Y-41510000D03*
X214740000Y-38970000D03*
%TD*%
D12*
%TO.C,SW27*%
X231250000Y-34500000D03*
D11*
X236330000Y-34500000D03*
X226170000Y-34500000D03*
D10*
X227440000Y-31960000D03*
X233790000Y-29420000D03*
%TD*%
D12*
%TO.C,SW28*%
X250300000Y-31650000D03*
D11*
X255380000Y-31650000D03*
X245220000Y-31650000D03*
D10*
X246490000Y-29110000D03*
X252840000Y-26570000D03*
%TD*%
D12*
%TO.C,SW29*%
X269350000Y-28800000D03*
D11*
X274430000Y-28800000D03*
X264270000Y-28800000D03*
D10*
X265540000Y-26260000D03*
X271890000Y-23720000D03*
%TD*%
D12*
%TO.C,SW30*%
X288400000Y-31650000D03*
D11*
X293480000Y-31650000D03*
X283320000Y-31650000D03*
D10*
X284590000Y-29110000D03*
X290940000Y-26570000D03*
%TD*%
%TO.C,SW31*%
X309990000Y-29420000D03*
X303640000Y-31960000D03*
D11*
X302370000Y-34500000D03*
X312530000Y-34500000D03*
D12*
X307450000Y-34500000D03*
%TD*%
%TO.C,SW32*%
X326500000Y-37350000D03*
D11*
X331580000Y-37350000D03*
X321420000Y-37350000D03*
D10*
X322690000Y-34810000D03*
X329040000Y-32270000D03*
%TD*%
D12*
%TO.C,SW33*%
X212200000Y-63050000D03*
D11*
X217280000Y-63050000D03*
X207120000Y-63050000D03*
D10*
X208390000Y-60510000D03*
X214740000Y-57970000D03*
%TD*%
D12*
%TO.C,SW34*%
X231250000Y-53550000D03*
D11*
X236330000Y-53550000D03*
X226170000Y-53550000D03*
D10*
X227440000Y-51010000D03*
X233790000Y-48470000D03*
%TD*%
%TO.C,SW35*%
X252840000Y-45620000D03*
X246490000Y-48160000D03*
D11*
X245220000Y-50700000D03*
X255380000Y-50700000D03*
D12*
X250300000Y-50700000D03*
%TD*%
D10*
%TO.C,SW36*%
X271890000Y-42720000D03*
X265540000Y-45260000D03*
D11*
X264270000Y-47800000D03*
X274430000Y-47800000D03*
D12*
X269350000Y-47800000D03*
%TD*%
D10*
%TO.C,SW37*%
X290940000Y-45620000D03*
X284590000Y-48160000D03*
D11*
X283320000Y-50700000D03*
X293480000Y-50700000D03*
D12*
X288400000Y-50700000D03*
%TD*%
%TO.C,SW38*%
X307450000Y-53550000D03*
D11*
X312530000Y-53550000D03*
X302370000Y-53550000D03*
D10*
X303640000Y-51010000D03*
X309990000Y-48470000D03*
%TD*%
D12*
%TO.C,SW39*%
X326500000Y-56400000D03*
D11*
X331580000Y-56400000D03*
X321420000Y-56400000D03*
D10*
X322690000Y-53860000D03*
X329040000Y-51320000D03*
%TD*%
D12*
%TO.C,SW40*%
X216900000Y-96050000D03*
D11*
X219440000Y-100449409D03*
X214360000Y-91650591D03*
D10*
X217194705Y-91480443D03*
X222569409Y-95709705D03*
%TD*%
%TO.C,SW41*%
X233790000Y-67520000D03*
X227440000Y-70060000D03*
D11*
X226170000Y-72600000D03*
X236330000Y-72600000D03*
D12*
X231250000Y-72600000D03*
%TD*%
%TO.C,SW42*%
X250300000Y-69750000D03*
D11*
X255380000Y-69750000D03*
X245220000Y-69750000D03*
D10*
X246490000Y-67210000D03*
X252840000Y-64670000D03*
%TD*%
D12*
%TO.C,SW43*%
X269350000Y-66900000D03*
D11*
X274430000Y-66900000D03*
X264270000Y-66900000D03*
D10*
X265540000Y-64360000D03*
X271890000Y-61820000D03*
%TD*%
D12*
%TO.C,SW44*%
X288400000Y-69750000D03*
D11*
X293480000Y-69750000D03*
X283320000Y-69750000D03*
D10*
X284590000Y-67210000D03*
X290940000Y-64670000D03*
%TD*%
%TO.C,SW45*%
X309990000Y-67520000D03*
X303640000Y-70060000D03*
D11*
X302370000Y-72600000D03*
X312530000Y-72600000D03*
D12*
X307450000Y-72600000D03*
%TD*%
D10*
%TO.C,SW46*%
X329040000Y-70370000D03*
X322690000Y-72910000D03*
D11*
X321420000Y-75450000D03*
X331580000Y-75450000D03*
D12*
X326500000Y-75450000D03*
%TD*%
D10*
%TO.C,SW47*%
X206069409Y-105259705D03*
X200694705Y-101030443D03*
D11*
X197860000Y-101200591D03*
X202940000Y-109999409D03*
D12*
X200400000Y-105600000D03*
%TD*%
%TO.C,SW48*%
X238700000Y-92400000D03*
D11*
X243606903Y-91085199D03*
X233793097Y-93714801D03*
D10*
X234362422Y-90932649D03*
X239838651Y-86835696D03*
%TD*%
%TO.C,SW49*%
X262390000Y-83720000D03*
X256040000Y-86260000D03*
D11*
X254770000Y-88800000D03*
X264930000Y-88800000D03*
D12*
X259850000Y-88800000D03*
%TD*%
D10*
%TO.C,SW50*%
X281440000Y-83720000D03*
X275090000Y-86260000D03*
D11*
X273820000Y-88800000D03*
X283980000Y-88800000D03*
D12*
X278900000Y-88800000D03*
%TD*%
M02*
