%TF.GenerationSoftware,KiCad,Pcbnew,(5.1.10-1-10_14)*%
%TF.CreationDate,2021-08-01T06:39:00+09:00*%
%TF.ProjectId,v1,76312e6b-6963-4616-945f-706362585858,rev?*%
%TF.SameCoordinates,Original*%
%TF.FileFunction,Profile,NP*%
%FSLAX46Y46*%
G04 Gerber Fmt 4.6, Leading zero omitted, Abs format (unit mm)*
G04 Created by KiCad (PCBNEW (5.1.10-1-10_14)) date 2021-08-01 06:39:00*
%MOMM*%
%LPD*%
G01*
G04 APERTURE LIST*
%TA.AperFunction,Profile*%
%ADD10C,0.050000*%
%TD*%
G04 APERTURE END LIST*
D10*
X182900000Y-34400000D02*
X182900000Y-88100000D01*
X232000000Y-104100000D02*
X199400000Y-122900000D01*
X232000000Y-104100000D02*
X288400000Y-98400000D01*
X336100000Y-85100000D02*
X298000000Y-85100000D01*
X298000000Y-85100000D02*
X288400000Y-98400000D01*
X199400000Y-122900000D02*
X184900000Y-98000000D01*
X336100000Y-85100000D02*
X336100000Y-27800000D01*
X278900000Y-19200000D02*
X259800000Y-19200000D01*
X278900000Y-19200000D02*
X336100000Y-27800000D01*
X221700000Y-24900000D02*
X259800000Y-19200000D01*
X221700000Y-24900000D02*
X221700000Y-34400000D01*
X221700000Y-34400000D02*
X182900000Y-34400000D01*
X182900000Y-88100000D02*
X184900000Y-98000000D01*
X176400000Y-88000000D02*
X174400000Y-97900000D01*
X176400000Y-34300000D02*
X176400000Y-88000000D01*
X137600000Y-34300000D02*
X176400000Y-34300000D01*
X137600000Y-24800000D02*
X137600000Y-34300000D01*
X137600000Y-24800000D02*
X99500000Y-19100000D01*
X80400000Y-19100000D02*
X23200000Y-27700000D01*
X80400000Y-19100000D02*
X99500000Y-19100000D01*
X23200000Y-85000000D02*
X23200000Y-27700000D01*
X159900000Y-122800000D02*
X174400000Y-97900000D01*
X61300000Y-85000000D02*
X70900000Y-98300000D01*
X23200000Y-85000000D02*
X61300000Y-85000000D01*
X127300000Y-104000000D02*
X70900000Y-98300000D01*
X127300000Y-104000000D02*
X159900000Y-122800000D01*
M02*
