%TF.GenerationSoftware,KiCad,Pcbnew,(5.1.10-1-10_14)*%
%TF.CreationDate,2021-08-01T06:39:00+09:00*%
%TF.ProjectId,v1,76312e6b-6963-4616-945f-706362585858,rev?*%
%TF.SameCoordinates,Original*%
%TF.FileFunction,Legend,Top*%
%TF.FilePolarity,Positive*%
%FSLAX46Y46*%
G04 Gerber Fmt 4.6, Leading zero omitted, Abs format (unit mm)*
G04 Created by KiCad (PCBNEW (5.1.10-1-10_14)) date 2021-08-01 06:39:00*
%MOMM*%
%LPD*%
G01*
G04 APERTURE LIST*
%ADD10C,0.150000*%
%ADD11C,0.125000*%
%ADD12C,0.120000*%
G04 APERTURE END LIST*
D10*
%TO.C,J1*%
X163900000Y-78700000D02*
X175650000Y-78700000D01*
X163900000Y-84500000D02*
X163900000Y-78700000D01*
X175650000Y-84500000D02*
X163900000Y-84500000D01*
X175650000Y-78700000D02*
X175650000Y-84500000D01*
%TO.C,J2*%
X161450000Y-75150000D02*
X161450000Y-72850000D01*
X171350000Y-72850000D02*
X171350000Y-75150000D01*
X161450000Y-72850000D02*
X171350000Y-72850000D01*
X161450000Y-75150000D02*
X171350000Y-75150000D01*
%TO.C,J3*%
X183650000Y-84600000D02*
X183650000Y-78800000D01*
X183650000Y-78800000D02*
X195400000Y-78800000D01*
X195400000Y-78800000D02*
X195400000Y-84600000D01*
X195400000Y-84600000D02*
X183650000Y-84600000D01*
%TO.C,J4*%
X187950000Y-75250000D02*
X197850000Y-75250000D01*
X187950000Y-72950000D02*
X197850000Y-72950000D01*
X197850000Y-72950000D02*
X197850000Y-75250000D01*
X187950000Y-75250000D02*
X187950000Y-72950000D01*
%TO.C,RSW1*%
X175700000Y-76750000D02*
X175450000Y-76750000D01*
X175700000Y-71050000D02*
X175700000Y-76750000D01*
X175700000Y-71050000D02*
X175450000Y-71050000D01*
X172500000Y-71050000D02*
X172750000Y-71050000D01*
X172500000Y-76750000D02*
X172750000Y-76750000D01*
X172500000Y-71050000D02*
X172500000Y-76750000D01*
%TO.C,RSW2*%
X186800000Y-76850000D02*
X186800000Y-71150000D01*
X186800000Y-71150000D02*
X186550000Y-71150000D01*
X186800000Y-76850000D02*
X186550000Y-76850000D01*
X183600000Y-76850000D02*
X183850000Y-76850000D01*
X183600000Y-76850000D02*
X183600000Y-71150000D01*
X183600000Y-71150000D02*
X183850000Y-71150000D01*
%TO.C,U1*%
X175250000Y-68600000D02*
X174390000Y-68600000D01*
X157750000Y-68600000D02*
X158600000Y-68600000D01*
X175250000Y-67750000D02*
X175250000Y-68600000D01*
X157750000Y-67700000D02*
X157750000Y-68600000D01*
X175250000Y-38400000D02*
X174450000Y-38400000D01*
X157750000Y-38400000D02*
X158600000Y-38400000D01*
X175250000Y-38400000D02*
X175250000Y-39250000D01*
X157750000Y-38400000D02*
X157750000Y-39250000D01*
X162750000Y-32800000D02*
X162750000Y-34100000D01*
X162750000Y-34100000D02*
X170250000Y-34100000D01*
X170250000Y-34100000D02*
X170250000Y-32800000D01*
X170250000Y-32800000D02*
X162750000Y-32800000D01*
X166000000Y-33150000D02*
X167000000Y-33150000D01*
X167000000Y-33150000D02*
X166500000Y-33800000D01*
X166500000Y-33800000D02*
X166000000Y-33150000D01*
X166150000Y-33300000D02*
X166850000Y-33300000D01*
X166250000Y-33450000D02*
X166750000Y-33450000D01*
X166350000Y-33600000D02*
X166650000Y-33600000D01*
%TO.C,U2*%
X192650000Y-33700000D02*
X192950000Y-33700000D01*
X192550000Y-33550000D02*
X193050000Y-33550000D01*
X192450000Y-33400000D02*
X193150000Y-33400000D01*
X192800000Y-33900000D02*
X192300000Y-33250000D01*
X193300000Y-33250000D02*
X192800000Y-33900000D01*
X192300000Y-33250000D02*
X193300000Y-33250000D01*
X196550000Y-32900000D02*
X189050000Y-32900000D01*
X196550000Y-34200000D02*
X196550000Y-32900000D01*
X189050000Y-34200000D02*
X196550000Y-34200000D01*
X189050000Y-32900000D02*
X189050000Y-34200000D01*
X184050000Y-38500000D02*
X184050000Y-39350000D01*
X201550000Y-38500000D02*
X201550000Y-39350000D01*
X184050000Y-38500000D02*
X184900000Y-38500000D01*
X201550000Y-38500000D02*
X200750000Y-38500000D01*
X184050000Y-67800000D02*
X184050000Y-68700000D01*
X201550000Y-67850000D02*
X201550000Y-68700000D01*
X184050000Y-68700000D02*
X184900000Y-68700000D01*
X201550000Y-68700000D02*
X200690000Y-68700000D01*
%TO.C,J1*%
X168802380Y-82611904D02*
X168802380Y-82040476D01*
X169802380Y-82326190D02*
X168802380Y-82326190D01*
X169802380Y-81135714D02*
X169326190Y-81469047D01*
X169802380Y-81707142D02*
X168802380Y-81707142D01*
X168802380Y-81326190D01*
X168850000Y-81230952D01*
X168897619Y-81183333D01*
X168992857Y-81135714D01*
X169135714Y-81135714D01*
X169230952Y-81183333D01*
X169278571Y-81230952D01*
X169326190Y-81326190D01*
X169326190Y-81707142D01*
X169802380Y-80135714D02*
X169326190Y-80469047D01*
X169802380Y-80707142D02*
X168802380Y-80707142D01*
X168802380Y-80326190D01*
X168850000Y-80230952D01*
X168897619Y-80183333D01*
X168992857Y-80135714D01*
X169135714Y-80135714D01*
X169230952Y-80183333D01*
X169278571Y-80230952D01*
X169326190Y-80326190D01*
X169326190Y-80707142D01*
X169754761Y-79754761D02*
X169802380Y-79611904D01*
X169802380Y-79373809D01*
X169754761Y-79278571D01*
X169707142Y-79230952D01*
X169611904Y-79183333D01*
X169516666Y-79183333D01*
X169421428Y-79230952D01*
X169373809Y-79278571D01*
X169326190Y-79373809D01*
X169278571Y-79564285D01*
X169230952Y-79659523D01*
X169183333Y-79707142D01*
X169088095Y-79754761D01*
X168992857Y-79754761D01*
X168897619Y-79707142D01*
X168850000Y-79659523D01*
X168802380Y-79564285D01*
X168802380Y-79326190D01*
X168850000Y-79183333D01*
%TO.C,J2*%
X164947619Y-71352380D02*
X165138095Y-71352380D01*
X165233333Y-71400000D01*
X165328571Y-71495238D01*
X165376190Y-71685714D01*
X165376190Y-72019047D01*
X165328571Y-72209523D01*
X165233333Y-72304761D01*
X165138095Y-72352380D01*
X164947619Y-72352380D01*
X164852380Y-72304761D01*
X164757142Y-72209523D01*
X164709523Y-72019047D01*
X164709523Y-71685714D01*
X164757142Y-71495238D01*
X164852380Y-71400000D01*
X164947619Y-71352380D01*
X166280952Y-72352380D02*
X165804761Y-72352380D01*
X165804761Y-71352380D01*
X166614285Y-71828571D02*
X166947619Y-71828571D01*
X167090476Y-72352380D02*
X166614285Y-72352380D01*
X166614285Y-71352380D01*
X167090476Y-71352380D01*
X167519047Y-72352380D02*
X167519047Y-71352380D01*
X167757142Y-71352380D01*
X167900000Y-71400000D01*
X167995238Y-71495238D01*
X168042857Y-71590476D01*
X168090476Y-71780952D01*
X168090476Y-71923809D01*
X168042857Y-72114285D01*
X167995238Y-72209523D01*
X167900000Y-72304761D01*
X167757142Y-72352380D01*
X167519047Y-72352380D01*
%TO.C,J3*%
X189402380Y-84211904D02*
X189402380Y-83640476D01*
X190402380Y-83926190D02*
X189402380Y-83926190D01*
X190402380Y-82735714D02*
X189926190Y-83069047D01*
X190402380Y-83307142D02*
X189402380Y-83307142D01*
X189402380Y-82926190D01*
X189450000Y-82830952D01*
X189497619Y-82783333D01*
X189592857Y-82735714D01*
X189735714Y-82735714D01*
X189830952Y-82783333D01*
X189878571Y-82830952D01*
X189926190Y-82926190D01*
X189926190Y-83307142D01*
X190402380Y-81735714D02*
X189926190Y-82069047D01*
X190402380Y-82307142D02*
X189402380Y-82307142D01*
X189402380Y-81926190D01*
X189450000Y-81830952D01*
X189497619Y-81783333D01*
X189592857Y-81735714D01*
X189735714Y-81735714D01*
X189830952Y-81783333D01*
X189878571Y-81830952D01*
X189926190Y-81926190D01*
X189926190Y-82307142D01*
X190354761Y-81354761D02*
X190402380Y-81211904D01*
X190402380Y-80973809D01*
X190354761Y-80878571D01*
X190307142Y-80830952D01*
X190211904Y-80783333D01*
X190116666Y-80783333D01*
X190021428Y-80830952D01*
X189973809Y-80878571D01*
X189926190Y-80973809D01*
X189878571Y-81164285D01*
X189830952Y-81259523D01*
X189783333Y-81307142D01*
X189688095Y-81354761D01*
X189592857Y-81354761D01*
X189497619Y-81307142D01*
X189450000Y-81259523D01*
X189402380Y-81164285D01*
X189402380Y-80926190D01*
X189450000Y-80783333D01*
%TO.C,J4*%
X191447619Y-71452380D02*
X191638095Y-71452380D01*
X191733333Y-71500000D01*
X191828571Y-71595238D01*
X191876190Y-71785714D01*
X191876190Y-72119047D01*
X191828571Y-72309523D01*
X191733333Y-72404761D01*
X191638095Y-72452380D01*
X191447619Y-72452380D01*
X191352380Y-72404761D01*
X191257142Y-72309523D01*
X191209523Y-72119047D01*
X191209523Y-71785714D01*
X191257142Y-71595238D01*
X191352380Y-71500000D01*
X191447619Y-71452380D01*
X192780952Y-72452380D02*
X192304761Y-72452380D01*
X192304761Y-71452380D01*
X193114285Y-71928571D02*
X193447619Y-71928571D01*
X193590476Y-72452380D02*
X193114285Y-72452380D01*
X193114285Y-71452380D01*
X193590476Y-71452380D01*
X194019047Y-72452380D02*
X194019047Y-71452380D01*
X194257142Y-71452380D01*
X194400000Y-71500000D01*
X194495238Y-71595238D01*
X194542857Y-71690476D01*
X194590476Y-71880952D01*
X194590476Y-72023809D01*
X194542857Y-72214285D01*
X194495238Y-72309523D01*
X194400000Y-72404761D01*
X194257142Y-72452380D01*
X194019047Y-72452380D01*
%TO.C,RSW1*%
X174552380Y-75352380D02*
X174076190Y-75685714D01*
X174552380Y-75923809D02*
X173552380Y-75923809D01*
X173552380Y-75542857D01*
X173600000Y-75447619D01*
X173647619Y-75400000D01*
X173742857Y-75352380D01*
X173885714Y-75352380D01*
X173980952Y-75400000D01*
X174028571Y-75447619D01*
X174076190Y-75542857D01*
X174076190Y-75923809D01*
X174028571Y-74923809D02*
X174028571Y-74590476D01*
X174552380Y-74447619D02*
X174552380Y-74923809D01*
X173552380Y-74923809D01*
X173552380Y-74447619D01*
X174504761Y-74066666D02*
X174552380Y-73923809D01*
X174552380Y-73685714D01*
X174504761Y-73590476D01*
X174457142Y-73542857D01*
X174361904Y-73495238D01*
X174266666Y-73495238D01*
X174171428Y-73542857D01*
X174123809Y-73590476D01*
X174076190Y-73685714D01*
X174028571Y-73876190D01*
X173980952Y-73971428D01*
X173933333Y-74019047D01*
X173838095Y-74066666D01*
X173742857Y-74066666D01*
X173647619Y-74019047D01*
X173600000Y-73971428D01*
X173552380Y-73876190D01*
X173552380Y-73638095D01*
X173600000Y-73495238D01*
X174028571Y-73066666D02*
X174028571Y-72733333D01*
X174552380Y-72590476D02*
X174552380Y-73066666D01*
X173552380Y-73066666D01*
X173552380Y-72590476D01*
X173552380Y-72304761D02*
X173552380Y-71733333D01*
X174552380Y-72019047D02*
X173552380Y-72019047D01*
%TO.C,RSW2*%
X185652380Y-75452380D02*
X185176190Y-75785714D01*
X185652380Y-76023809D02*
X184652380Y-76023809D01*
X184652380Y-75642857D01*
X184700000Y-75547619D01*
X184747619Y-75500000D01*
X184842857Y-75452380D01*
X184985714Y-75452380D01*
X185080952Y-75500000D01*
X185128571Y-75547619D01*
X185176190Y-75642857D01*
X185176190Y-76023809D01*
X185128571Y-75023809D02*
X185128571Y-74690476D01*
X185652380Y-74547619D02*
X185652380Y-75023809D01*
X184652380Y-75023809D01*
X184652380Y-74547619D01*
X185604761Y-74166666D02*
X185652380Y-74023809D01*
X185652380Y-73785714D01*
X185604761Y-73690476D01*
X185557142Y-73642857D01*
X185461904Y-73595238D01*
X185366666Y-73595238D01*
X185271428Y-73642857D01*
X185223809Y-73690476D01*
X185176190Y-73785714D01*
X185128571Y-73976190D01*
X185080952Y-74071428D01*
X185033333Y-74119047D01*
X184938095Y-74166666D01*
X184842857Y-74166666D01*
X184747619Y-74119047D01*
X184700000Y-74071428D01*
X184652380Y-73976190D01*
X184652380Y-73738095D01*
X184700000Y-73595238D01*
X185128571Y-73166666D02*
X185128571Y-72833333D01*
X185652380Y-72690476D02*
X185652380Y-73166666D01*
X184652380Y-73166666D01*
X184652380Y-72690476D01*
X184652380Y-72404761D02*
X184652380Y-71833333D01*
X185652380Y-72119047D02*
X184652380Y-72119047D01*
%TO.C,U1*%
D11*
X161042380Y-39839285D02*
X160819047Y-39482142D01*
X160659523Y-39839285D02*
X160659523Y-39089285D01*
X160914761Y-39089285D01*
X160978571Y-39125000D01*
X161010476Y-39160714D01*
X161042380Y-39232142D01*
X161042380Y-39339285D01*
X161010476Y-39410714D01*
X160978571Y-39446428D01*
X160914761Y-39482142D01*
X160659523Y-39482142D01*
X161297619Y-39625000D02*
X161616666Y-39625000D01*
X161233809Y-39839285D02*
X161457142Y-39089285D01*
X161680476Y-39839285D01*
X161840000Y-39089285D02*
X161999523Y-39839285D01*
X162127142Y-39303571D01*
X162254761Y-39839285D01*
X162414285Y-39089285D01*
X160994523Y-41675000D02*
X160930714Y-41639285D01*
X160835000Y-41639285D01*
X160739285Y-41675000D01*
X160675476Y-41746428D01*
X160643571Y-41817857D01*
X160611666Y-41960714D01*
X160611666Y-42067857D01*
X160643571Y-42210714D01*
X160675476Y-42282142D01*
X160739285Y-42353571D01*
X160835000Y-42389285D01*
X160898809Y-42389285D01*
X160994523Y-42353571D01*
X161026428Y-42317857D01*
X161026428Y-42067857D01*
X160898809Y-42067857D01*
X161313571Y-42389285D02*
X161313571Y-41639285D01*
X161696428Y-42389285D01*
X161696428Y-41639285D01*
X162015476Y-42389285D02*
X162015476Y-41639285D01*
X162175000Y-41639285D01*
X162270714Y-41675000D01*
X162334523Y-41746428D01*
X162366428Y-41817857D01*
X162398333Y-41960714D01*
X162398333Y-42067857D01*
X162366428Y-42210714D01*
X162334523Y-42282142D01*
X162270714Y-42353571D01*
X162175000Y-42389285D01*
X162015476Y-42389285D01*
X161138095Y-44939285D02*
X160914761Y-44582142D01*
X160755238Y-44939285D02*
X160755238Y-44189285D01*
X161010476Y-44189285D01*
X161074285Y-44225000D01*
X161106190Y-44260714D01*
X161138095Y-44332142D01*
X161138095Y-44439285D01*
X161106190Y-44510714D01*
X161074285Y-44546428D01*
X161010476Y-44582142D01*
X160755238Y-44582142D01*
X161393333Y-44903571D02*
X161489047Y-44939285D01*
X161648571Y-44939285D01*
X161712380Y-44903571D01*
X161744285Y-44867857D01*
X161776190Y-44796428D01*
X161776190Y-44725000D01*
X161744285Y-44653571D01*
X161712380Y-44617857D01*
X161648571Y-44582142D01*
X161520952Y-44546428D01*
X161457142Y-44510714D01*
X161425238Y-44475000D01*
X161393333Y-44403571D01*
X161393333Y-44332142D01*
X161425238Y-44260714D01*
X161457142Y-44225000D01*
X161520952Y-44189285D01*
X161680476Y-44189285D01*
X161776190Y-44225000D01*
X161967619Y-44189285D02*
X162350476Y-44189285D01*
X162159047Y-44939285D02*
X162159047Y-44189285D01*
X160611666Y-46639285D02*
X160835000Y-47389285D01*
X161058333Y-46639285D01*
X161664523Y-47317857D02*
X161632619Y-47353571D01*
X161536904Y-47389285D01*
X161473095Y-47389285D01*
X161377380Y-47353571D01*
X161313571Y-47282142D01*
X161281666Y-47210714D01*
X161249761Y-47067857D01*
X161249761Y-46960714D01*
X161281666Y-46817857D01*
X161313571Y-46746428D01*
X161377380Y-46675000D01*
X161473095Y-46639285D01*
X161536904Y-46639285D01*
X161632619Y-46675000D01*
X161664523Y-46710714D01*
X162334523Y-47317857D02*
X162302619Y-47353571D01*
X162206904Y-47389285D01*
X162143095Y-47389285D01*
X162047380Y-47353571D01*
X161983571Y-47282142D01*
X161951666Y-47210714D01*
X161919761Y-47067857D01*
X161919761Y-46960714D01*
X161951666Y-46817857D01*
X161983571Y-46746428D01*
X162047380Y-46675000D01*
X162143095Y-46639285D01*
X162206904Y-46639285D01*
X162302619Y-46675000D01*
X162334523Y-46710714D01*
X160669285Y-49875000D02*
X160988333Y-49875000D01*
X160605476Y-50089285D02*
X160828809Y-49339285D01*
X161052142Y-50089285D01*
X161211666Y-49339285D02*
X161626428Y-49339285D01*
X161403095Y-49625000D01*
X161498809Y-49625000D01*
X161562619Y-49660714D01*
X161594523Y-49696428D01*
X161626428Y-49767857D01*
X161626428Y-49946428D01*
X161594523Y-50017857D01*
X161562619Y-50053571D01*
X161498809Y-50089285D01*
X161307380Y-50089285D01*
X161243571Y-50053571D01*
X161211666Y-50017857D01*
X162392142Y-49303571D02*
X161817857Y-50267857D01*
X162838809Y-49696428D02*
X162615476Y-49696428D01*
X162615476Y-50089285D02*
X162615476Y-49339285D01*
X162934523Y-49339285D01*
X163476904Y-49589285D02*
X163476904Y-50089285D01*
X163317380Y-49303571D02*
X163157857Y-49839285D01*
X163572619Y-49839285D01*
X160669285Y-52375000D02*
X160988333Y-52375000D01*
X160605476Y-52589285D02*
X160828809Y-51839285D01*
X161052142Y-52589285D01*
X161243571Y-51910714D02*
X161275476Y-51875000D01*
X161339285Y-51839285D01*
X161498809Y-51839285D01*
X161562619Y-51875000D01*
X161594523Y-51910714D01*
X161626428Y-51982142D01*
X161626428Y-52053571D01*
X161594523Y-52160714D01*
X161211666Y-52589285D01*
X161626428Y-52589285D01*
X162392142Y-51803571D02*
X161817857Y-52767857D01*
X162838809Y-52196428D02*
X162615476Y-52196428D01*
X162615476Y-52589285D02*
X162615476Y-51839285D01*
X162934523Y-51839285D01*
X163508809Y-51839285D02*
X163189761Y-51839285D01*
X163157857Y-52196428D01*
X163189761Y-52160714D01*
X163253571Y-52125000D01*
X163413095Y-52125000D01*
X163476904Y-52160714D01*
X163508809Y-52196428D01*
X163540714Y-52267857D01*
X163540714Y-52446428D01*
X163508809Y-52517857D01*
X163476904Y-52553571D01*
X163413095Y-52589285D01*
X163253571Y-52589285D01*
X163189761Y-52553571D01*
X163157857Y-52517857D01*
X160669285Y-54875000D02*
X160988333Y-54875000D01*
X160605476Y-55089285D02*
X160828809Y-54339285D01*
X161052142Y-55089285D01*
X161626428Y-55089285D02*
X161243571Y-55089285D01*
X161435000Y-55089285D02*
X161435000Y-54339285D01*
X161371190Y-54446428D01*
X161307380Y-54517857D01*
X161243571Y-54553571D01*
X162392142Y-54303571D02*
X161817857Y-55267857D01*
X162838809Y-54696428D02*
X162615476Y-54696428D01*
X162615476Y-55089285D02*
X162615476Y-54339285D01*
X162934523Y-54339285D01*
X163476904Y-54339285D02*
X163349285Y-54339285D01*
X163285476Y-54375000D01*
X163253571Y-54410714D01*
X163189761Y-54517857D01*
X163157857Y-54660714D01*
X163157857Y-54946428D01*
X163189761Y-55017857D01*
X163221666Y-55053571D01*
X163285476Y-55089285D01*
X163413095Y-55089285D01*
X163476904Y-55053571D01*
X163508809Y-55017857D01*
X163540714Y-54946428D01*
X163540714Y-54767857D01*
X163508809Y-54696428D01*
X163476904Y-54660714D01*
X163413095Y-54625000D01*
X163285476Y-54625000D01*
X163221666Y-54660714D01*
X163189761Y-54696428D01*
X163157857Y-54767857D01*
X160669285Y-57425000D02*
X160988333Y-57425000D01*
X160605476Y-57639285D02*
X160828809Y-56889285D01*
X161052142Y-57639285D01*
X161403095Y-56889285D02*
X161466904Y-56889285D01*
X161530714Y-56925000D01*
X161562619Y-56960714D01*
X161594523Y-57032142D01*
X161626428Y-57175000D01*
X161626428Y-57353571D01*
X161594523Y-57496428D01*
X161562619Y-57567857D01*
X161530714Y-57603571D01*
X161466904Y-57639285D01*
X161403095Y-57639285D01*
X161339285Y-57603571D01*
X161307380Y-57567857D01*
X161275476Y-57496428D01*
X161243571Y-57353571D01*
X161243571Y-57175000D01*
X161275476Y-57032142D01*
X161307380Y-56960714D01*
X161339285Y-56925000D01*
X161403095Y-56889285D01*
X162392142Y-56853571D02*
X161817857Y-57817857D01*
X162838809Y-57246428D02*
X162615476Y-57246428D01*
X162615476Y-57639285D02*
X162615476Y-56889285D01*
X162934523Y-56889285D01*
X163125952Y-56889285D02*
X163572619Y-56889285D01*
X163285476Y-57639285D01*
X160972380Y-60189285D02*
X160589523Y-60189285D01*
X160780952Y-60189285D02*
X160780952Y-59439285D01*
X160717142Y-59546428D01*
X160653333Y-59617857D01*
X160589523Y-59653571D01*
X161578571Y-59439285D02*
X161259523Y-59439285D01*
X161227619Y-59796428D01*
X161259523Y-59760714D01*
X161323333Y-59725000D01*
X161482857Y-59725000D01*
X161546666Y-59760714D01*
X161578571Y-59796428D01*
X161610476Y-59867857D01*
X161610476Y-60046428D01*
X161578571Y-60117857D01*
X161546666Y-60153571D01*
X161482857Y-60189285D01*
X161323333Y-60189285D01*
X161259523Y-60153571D01*
X161227619Y-60117857D01*
X162376190Y-59403571D02*
X161801904Y-60367857D01*
X162822857Y-59796428D02*
X162918571Y-59832142D01*
X162950476Y-59867857D01*
X162982380Y-59939285D01*
X162982380Y-60046428D01*
X162950476Y-60117857D01*
X162918571Y-60153571D01*
X162854761Y-60189285D01*
X162599523Y-60189285D01*
X162599523Y-59439285D01*
X162822857Y-59439285D01*
X162886666Y-59475000D01*
X162918571Y-59510714D01*
X162950476Y-59582142D01*
X162950476Y-59653571D01*
X162918571Y-59725000D01*
X162886666Y-59760714D01*
X162822857Y-59796428D01*
X162599523Y-59796428D01*
X163620476Y-60189285D02*
X163237619Y-60189285D01*
X163429047Y-60189285D02*
X163429047Y-59439285D01*
X163365238Y-59546428D01*
X163301428Y-59617857D01*
X163237619Y-59653571D01*
X160972380Y-62739285D02*
X160589523Y-62739285D01*
X160780952Y-62739285D02*
X160780952Y-61989285D01*
X160717142Y-62096428D01*
X160653333Y-62167857D01*
X160589523Y-62203571D01*
X161546666Y-62239285D02*
X161546666Y-62739285D01*
X161387142Y-61953571D02*
X161227619Y-62489285D01*
X161642380Y-62489285D01*
X162376190Y-61953571D02*
X161801904Y-62917857D01*
X162822857Y-62346428D02*
X162918571Y-62382142D01*
X162950476Y-62417857D01*
X162982380Y-62489285D01*
X162982380Y-62596428D01*
X162950476Y-62667857D01*
X162918571Y-62703571D01*
X162854761Y-62739285D01*
X162599523Y-62739285D01*
X162599523Y-61989285D01*
X162822857Y-61989285D01*
X162886666Y-62025000D01*
X162918571Y-62060714D01*
X162950476Y-62132142D01*
X162950476Y-62203571D01*
X162918571Y-62275000D01*
X162886666Y-62310714D01*
X162822857Y-62346428D01*
X162599523Y-62346428D01*
X163205714Y-61989285D02*
X163620476Y-61989285D01*
X163397142Y-62275000D01*
X163492857Y-62275000D01*
X163556666Y-62310714D01*
X163588571Y-62346428D01*
X163620476Y-62417857D01*
X163620476Y-62596428D01*
X163588571Y-62667857D01*
X163556666Y-62703571D01*
X163492857Y-62739285D01*
X163301428Y-62739285D01*
X163237619Y-62703571D01*
X163205714Y-62667857D01*
X160972380Y-67789285D02*
X160589523Y-67789285D01*
X160780952Y-67789285D02*
X160780952Y-67039285D01*
X160717142Y-67146428D01*
X160653333Y-67217857D01*
X160589523Y-67253571D01*
X161387142Y-67039285D02*
X161450952Y-67039285D01*
X161514761Y-67075000D01*
X161546666Y-67110714D01*
X161578571Y-67182142D01*
X161610476Y-67325000D01*
X161610476Y-67503571D01*
X161578571Y-67646428D01*
X161546666Y-67717857D01*
X161514761Y-67753571D01*
X161450952Y-67789285D01*
X161387142Y-67789285D01*
X161323333Y-67753571D01*
X161291428Y-67717857D01*
X161259523Y-67646428D01*
X161227619Y-67503571D01*
X161227619Y-67325000D01*
X161259523Y-67182142D01*
X161291428Y-67110714D01*
X161323333Y-67075000D01*
X161387142Y-67039285D01*
X162376190Y-67003571D02*
X161801904Y-67967857D01*
X162822857Y-67396428D02*
X162918571Y-67432142D01*
X162950476Y-67467857D01*
X162982380Y-67539285D01*
X162982380Y-67646428D01*
X162950476Y-67717857D01*
X162918571Y-67753571D01*
X162854761Y-67789285D01*
X162599523Y-67789285D01*
X162599523Y-67039285D01*
X162822857Y-67039285D01*
X162886666Y-67075000D01*
X162918571Y-67110714D01*
X162950476Y-67182142D01*
X162950476Y-67253571D01*
X162918571Y-67325000D01*
X162886666Y-67360714D01*
X162822857Y-67396428D01*
X162599523Y-67396428D01*
X163556666Y-67039285D02*
X163429047Y-67039285D01*
X163365238Y-67075000D01*
X163333333Y-67110714D01*
X163269523Y-67217857D01*
X163237619Y-67360714D01*
X163237619Y-67646428D01*
X163269523Y-67717857D01*
X163301428Y-67753571D01*
X163365238Y-67789285D01*
X163492857Y-67789285D01*
X163556666Y-67753571D01*
X163588571Y-67717857D01*
X163620476Y-67646428D01*
X163620476Y-67467857D01*
X163588571Y-67396428D01*
X163556666Y-67360714D01*
X163492857Y-67325000D01*
X163365238Y-67325000D01*
X163301428Y-67360714D01*
X163269523Y-67396428D01*
X163237619Y-67467857D01*
X160972380Y-65289285D02*
X160589523Y-65289285D01*
X160780952Y-65289285D02*
X160780952Y-64539285D01*
X160717142Y-64646428D01*
X160653333Y-64717857D01*
X160589523Y-64753571D01*
X161546666Y-64539285D02*
X161419047Y-64539285D01*
X161355238Y-64575000D01*
X161323333Y-64610714D01*
X161259523Y-64717857D01*
X161227619Y-64860714D01*
X161227619Y-65146428D01*
X161259523Y-65217857D01*
X161291428Y-65253571D01*
X161355238Y-65289285D01*
X161482857Y-65289285D01*
X161546666Y-65253571D01*
X161578571Y-65217857D01*
X161610476Y-65146428D01*
X161610476Y-64967857D01*
X161578571Y-64896428D01*
X161546666Y-64860714D01*
X161482857Y-64825000D01*
X161355238Y-64825000D01*
X161291428Y-64860714D01*
X161259523Y-64896428D01*
X161227619Y-64967857D01*
X162376190Y-64503571D02*
X161801904Y-65467857D01*
X162822857Y-64896428D02*
X162918571Y-64932142D01*
X162950476Y-64967857D01*
X162982380Y-65039285D01*
X162982380Y-65146428D01*
X162950476Y-65217857D01*
X162918571Y-65253571D01*
X162854761Y-65289285D01*
X162599523Y-65289285D01*
X162599523Y-64539285D01*
X162822857Y-64539285D01*
X162886666Y-64575000D01*
X162918571Y-64610714D01*
X162950476Y-64682142D01*
X162950476Y-64753571D01*
X162918571Y-64825000D01*
X162886666Y-64860714D01*
X162822857Y-64896428D01*
X162599523Y-64896428D01*
X163237619Y-64610714D02*
X163269523Y-64575000D01*
X163333333Y-64539285D01*
X163492857Y-64539285D01*
X163556666Y-64575000D01*
X163588571Y-64610714D01*
X163620476Y-64682142D01*
X163620476Y-64753571D01*
X163588571Y-64860714D01*
X163205714Y-65289285D01*
X163620476Y-65289285D01*
X170072380Y-62196428D02*
X170295714Y-62196428D01*
X170391428Y-62589285D02*
X170072380Y-62589285D01*
X170072380Y-61839285D01*
X170391428Y-61839285D01*
X170965714Y-61839285D02*
X170838095Y-61839285D01*
X170774285Y-61875000D01*
X170742380Y-61910714D01*
X170678571Y-62017857D01*
X170646666Y-62160714D01*
X170646666Y-62446428D01*
X170678571Y-62517857D01*
X170710476Y-62553571D01*
X170774285Y-62589285D01*
X170901904Y-62589285D01*
X170965714Y-62553571D01*
X170997619Y-62517857D01*
X171029523Y-62446428D01*
X171029523Y-62267857D01*
X170997619Y-62196428D01*
X170965714Y-62160714D01*
X170901904Y-62125000D01*
X170774285Y-62125000D01*
X170710476Y-62160714D01*
X170678571Y-62196428D01*
X170646666Y-62267857D01*
X171795238Y-61803571D02*
X171220952Y-62767857D01*
X171954761Y-61839285D02*
X172401428Y-61839285D01*
X172114285Y-62589285D01*
X170040476Y-60039285D02*
X170040476Y-59289285D01*
X170200000Y-59289285D01*
X170295714Y-59325000D01*
X170359523Y-59396428D01*
X170391428Y-59467857D01*
X170423333Y-59610714D01*
X170423333Y-59717857D01*
X170391428Y-59860714D01*
X170359523Y-59932142D01*
X170295714Y-60003571D01*
X170200000Y-60039285D01*
X170040476Y-60039285D01*
X170646666Y-59289285D02*
X171093333Y-59289285D01*
X170806190Y-60039285D01*
X171827142Y-59253571D02*
X171252857Y-60217857D01*
X172337619Y-59289285D02*
X172210000Y-59289285D01*
X172146190Y-59325000D01*
X172114285Y-59360714D01*
X172050476Y-59467857D01*
X172018571Y-59610714D01*
X172018571Y-59896428D01*
X172050476Y-59967857D01*
X172082380Y-60003571D01*
X172146190Y-60039285D01*
X172273809Y-60039285D01*
X172337619Y-60003571D01*
X172369523Y-59967857D01*
X172401428Y-59896428D01*
X172401428Y-59717857D01*
X172369523Y-59646428D01*
X172337619Y-59610714D01*
X172273809Y-59575000D01*
X172146190Y-59575000D01*
X172082380Y-59610714D01*
X172050476Y-59646428D01*
X172018571Y-59717857D01*
X170944523Y-44275000D02*
X170880714Y-44239285D01*
X170785000Y-44239285D01*
X170689285Y-44275000D01*
X170625476Y-44346428D01*
X170593571Y-44417857D01*
X170561666Y-44560714D01*
X170561666Y-44667857D01*
X170593571Y-44810714D01*
X170625476Y-44882142D01*
X170689285Y-44953571D01*
X170785000Y-44989285D01*
X170848809Y-44989285D01*
X170944523Y-44953571D01*
X170976428Y-44917857D01*
X170976428Y-44667857D01*
X170848809Y-44667857D01*
X171263571Y-44989285D02*
X171263571Y-44239285D01*
X171646428Y-44989285D01*
X171646428Y-44239285D01*
X171965476Y-44989285D02*
X171965476Y-44239285D01*
X172125000Y-44239285D01*
X172220714Y-44275000D01*
X172284523Y-44346428D01*
X172316428Y-44417857D01*
X172348333Y-44560714D01*
X172348333Y-44667857D01*
X172316428Y-44810714D01*
X172284523Y-44882142D01*
X172220714Y-44953571D01*
X172125000Y-44989285D01*
X171965476Y-44989285D01*
X170944523Y-46725000D02*
X170880714Y-46689285D01*
X170785000Y-46689285D01*
X170689285Y-46725000D01*
X170625476Y-46796428D01*
X170593571Y-46867857D01*
X170561666Y-47010714D01*
X170561666Y-47117857D01*
X170593571Y-47260714D01*
X170625476Y-47332142D01*
X170689285Y-47403571D01*
X170785000Y-47439285D01*
X170848809Y-47439285D01*
X170944523Y-47403571D01*
X170976428Y-47367857D01*
X170976428Y-47117857D01*
X170848809Y-47117857D01*
X171263571Y-47439285D02*
X171263571Y-46689285D01*
X171646428Y-47439285D01*
X171646428Y-46689285D01*
X171965476Y-47439285D02*
X171965476Y-46689285D01*
X172125000Y-46689285D01*
X172220714Y-46725000D01*
X172284523Y-46796428D01*
X172316428Y-46867857D01*
X172348333Y-47010714D01*
X172348333Y-47117857D01*
X172316428Y-47260714D01*
X172284523Y-47332142D01*
X172220714Y-47403571D01*
X172125000Y-47439285D01*
X171965476Y-47439285D01*
X168916190Y-39889285D02*
X168916190Y-39139285D01*
X169075714Y-39139285D01*
X169171428Y-39175000D01*
X169235238Y-39246428D01*
X169267142Y-39317857D01*
X169299047Y-39460714D01*
X169299047Y-39567857D01*
X169267142Y-39710714D01*
X169235238Y-39782142D01*
X169171428Y-39853571D01*
X169075714Y-39889285D01*
X168916190Y-39889285D01*
X169522380Y-39139285D02*
X169937142Y-39139285D01*
X169713809Y-39425000D01*
X169809523Y-39425000D01*
X169873333Y-39460714D01*
X169905238Y-39496428D01*
X169937142Y-39567857D01*
X169937142Y-39746428D01*
X169905238Y-39817857D01*
X169873333Y-39853571D01*
X169809523Y-39889285D01*
X169618095Y-39889285D01*
X169554285Y-39853571D01*
X169522380Y-39817857D01*
X170702857Y-39103571D02*
X170128571Y-40067857D01*
X170830476Y-39139285D02*
X171213333Y-39139285D01*
X171021904Y-39889285D02*
X171021904Y-39139285D01*
X171372857Y-39139285D02*
X171819523Y-39889285D01*
X171819523Y-39139285D02*
X171372857Y-39889285D01*
X172202380Y-39139285D02*
X172266190Y-39139285D01*
X172330000Y-39175000D01*
X172361904Y-39210714D01*
X172393809Y-39282142D01*
X172425714Y-39425000D01*
X172425714Y-39603571D01*
X172393809Y-39746428D01*
X172361904Y-39817857D01*
X172330000Y-39853571D01*
X172266190Y-39889285D01*
X172202380Y-39889285D01*
X172138571Y-39853571D01*
X172106666Y-39817857D01*
X172074761Y-39746428D01*
X172042857Y-39603571D01*
X172042857Y-39425000D01*
X172074761Y-39282142D01*
X172106666Y-39210714D01*
X172138571Y-39175000D01*
X172202380Y-39139285D01*
X170040476Y-54939285D02*
X170040476Y-54189285D01*
X170200000Y-54189285D01*
X170295714Y-54225000D01*
X170359523Y-54296428D01*
X170391428Y-54367857D01*
X170423333Y-54510714D01*
X170423333Y-54617857D01*
X170391428Y-54760714D01*
X170359523Y-54832142D01*
X170295714Y-54903571D01*
X170200000Y-54939285D01*
X170040476Y-54939285D01*
X170997619Y-54439285D02*
X170997619Y-54939285D01*
X170838095Y-54153571D02*
X170678571Y-54689285D01*
X171093333Y-54689285D01*
X171827142Y-54153571D02*
X171252857Y-55117857D01*
X172337619Y-54439285D02*
X172337619Y-54939285D01*
X172178095Y-54153571D02*
X172018571Y-54689285D01*
X172433333Y-54689285D01*
X167466428Y-49903571D02*
X167562142Y-49939285D01*
X167721666Y-49939285D01*
X167785476Y-49903571D01*
X167817380Y-49867857D01*
X167849285Y-49796428D01*
X167849285Y-49725000D01*
X167817380Y-49653571D01*
X167785476Y-49617857D01*
X167721666Y-49582142D01*
X167594047Y-49546428D01*
X167530238Y-49510714D01*
X167498333Y-49475000D01*
X167466428Y-49403571D01*
X167466428Y-49332142D01*
X167498333Y-49260714D01*
X167530238Y-49225000D01*
X167594047Y-49189285D01*
X167753571Y-49189285D01*
X167849285Y-49225000D01*
X168136428Y-49939285D02*
X168136428Y-49189285D01*
X168295952Y-49189285D01*
X168391666Y-49225000D01*
X168455476Y-49296428D01*
X168487380Y-49367857D01*
X168519285Y-49510714D01*
X168519285Y-49617857D01*
X168487380Y-49760714D01*
X168455476Y-49832142D01*
X168391666Y-49903571D01*
X168295952Y-49939285D01*
X168136428Y-49939285D01*
X168774523Y-49725000D02*
X169093571Y-49725000D01*
X168710714Y-49939285D02*
X168934047Y-49189285D01*
X169157380Y-49939285D01*
X169859285Y-49153571D02*
X169285000Y-50117857D01*
X170082619Y-49939285D02*
X170082619Y-49189285D01*
X170242142Y-49189285D01*
X170337857Y-49225000D01*
X170401666Y-49296428D01*
X170433571Y-49367857D01*
X170465476Y-49510714D01*
X170465476Y-49617857D01*
X170433571Y-49760714D01*
X170401666Y-49832142D01*
X170337857Y-49903571D01*
X170242142Y-49939285D01*
X170082619Y-49939285D01*
X171103571Y-49939285D02*
X170720714Y-49939285D01*
X170912142Y-49939285D02*
X170912142Y-49189285D01*
X170848333Y-49296428D01*
X170784523Y-49367857D01*
X170720714Y-49403571D01*
X171869285Y-49153571D02*
X171295000Y-50117857D01*
X172060714Y-49260714D02*
X172092619Y-49225000D01*
X172156428Y-49189285D01*
X172315952Y-49189285D01*
X172379761Y-49225000D01*
X172411666Y-49260714D01*
X172443571Y-49332142D01*
X172443571Y-49403571D01*
X172411666Y-49510714D01*
X172028809Y-49939285D01*
X172443571Y-49939285D01*
X167482380Y-52403571D02*
X167578095Y-52439285D01*
X167737619Y-52439285D01*
X167801428Y-52403571D01*
X167833333Y-52367857D01*
X167865238Y-52296428D01*
X167865238Y-52225000D01*
X167833333Y-52153571D01*
X167801428Y-52117857D01*
X167737619Y-52082142D01*
X167610000Y-52046428D01*
X167546190Y-52010714D01*
X167514285Y-51975000D01*
X167482380Y-51903571D01*
X167482380Y-51832142D01*
X167514285Y-51760714D01*
X167546190Y-51725000D01*
X167610000Y-51689285D01*
X167769523Y-51689285D01*
X167865238Y-51725000D01*
X168535238Y-52367857D02*
X168503333Y-52403571D01*
X168407619Y-52439285D01*
X168343809Y-52439285D01*
X168248095Y-52403571D01*
X168184285Y-52332142D01*
X168152380Y-52260714D01*
X168120476Y-52117857D01*
X168120476Y-52010714D01*
X168152380Y-51867857D01*
X168184285Y-51796428D01*
X168248095Y-51725000D01*
X168343809Y-51689285D01*
X168407619Y-51689285D01*
X168503333Y-51725000D01*
X168535238Y-51760714D01*
X169141428Y-52439285D02*
X168822380Y-52439285D01*
X168822380Y-51689285D01*
X169843333Y-51653571D02*
X169269047Y-52617857D01*
X170066666Y-52439285D02*
X170066666Y-51689285D01*
X170226190Y-51689285D01*
X170321904Y-51725000D01*
X170385714Y-51796428D01*
X170417619Y-51867857D01*
X170449523Y-52010714D01*
X170449523Y-52117857D01*
X170417619Y-52260714D01*
X170385714Y-52332142D01*
X170321904Y-52403571D01*
X170226190Y-52439285D01*
X170066666Y-52439285D01*
X170864285Y-51689285D02*
X170928095Y-51689285D01*
X170991904Y-51725000D01*
X171023809Y-51760714D01*
X171055714Y-51832142D01*
X171087619Y-51975000D01*
X171087619Y-52153571D01*
X171055714Y-52296428D01*
X171023809Y-52367857D01*
X170991904Y-52403571D01*
X170928095Y-52439285D01*
X170864285Y-52439285D01*
X170800476Y-52403571D01*
X170768571Y-52367857D01*
X170736666Y-52296428D01*
X170704761Y-52153571D01*
X170704761Y-51975000D01*
X170736666Y-51832142D01*
X170768571Y-51760714D01*
X170800476Y-51725000D01*
X170864285Y-51689285D01*
X171853333Y-51653571D02*
X171279047Y-52617857D01*
X172012857Y-51689285D02*
X172427619Y-51689285D01*
X172204285Y-51975000D01*
X172300000Y-51975000D01*
X172363809Y-52010714D01*
X172395714Y-52046428D01*
X172427619Y-52117857D01*
X172427619Y-52296428D01*
X172395714Y-52367857D01*
X172363809Y-52403571D01*
X172300000Y-52439285D01*
X172108571Y-52439285D01*
X172044761Y-52403571D01*
X172012857Y-52367857D01*
X170423333Y-57417857D02*
X170391428Y-57453571D01*
X170295714Y-57489285D01*
X170231904Y-57489285D01*
X170136190Y-57453571D01*
X170072380Y-57382142D01*
X170040476Y-57310714D01*
X170008571Y-57167857D01*
X170008571Y-57060714D01*
X170040476Y-56917857D01*
X170072380Y-56846428D01*
X170136190Y-56775000D01*
X170231904Y-56739285D01*
X170295714Y-56739285D01*
X170391428Y-56775000D01*
X170423333Y-56810714D01*
X170997619Y-56739285D02*
X170870000Y-56739285D01*
X170806190Y-56775000D01*
X170774285Y-56810714D01*
X170710476Y-56917857D01*
X170678571Y-57060714D01*
X170678571Y-57346428D01*
X170710476Y-57417857D01*
X170742380Y-57453571D01*
X170806190Y-57489285D01*
X170933809Y-57489285D01*
X170997619Y-57453571D01*
X171029523Y-57417857D01*
X171061428Y-57346428D01*
X171061428Y-57167857D01*
X171029523Y-57096428D01*
X170997619Y-57060714D01*
X170933809Y-57025000D01*
X170806190Y-57025000D01*
X170742380Y-57060714D01*
X170710476Y-57096428D01*
X170678571Y-57167857D01*
X171827142Y-56703571D02*
X171252857Y-57667857D01*
X172369523Y-56739285D02*
X172050476Y-56739285D01*
X172018571Y-57096428D01*
X172050476Y-57060714D01*
X172114285Y-57025000D01*
X172273809Y-57025000D01*
X172337619Y-57060714D01*
X172369523Y-57096428D01*
X172401428Y-57167857D01*
X172401428Y-57346428D01*
X172369523Y-57417857D01*
X172337619Y-57453571D01*
X172273809Y-57489285D01*
X172114285Y-57489285D01*
X172050476Y-57453571D01*
X172018571Y-57417857D01*
X170263809Y-67246428D02*
X170359523Y-67282142D01*
X170391428Y-67317857D01*
X170423333Y-67389285D01*
X170423333Y-67496428D01*
X170391428Y-67567857D01*
X170359523Y-67603571D01*
X170295714Y-67639285D01*
X170040476Y-67639285D01*
X170040476Y-66889285D01*
X170263809Y-66889285D01*
X170327619Y-66925000D01*
X170359523Y-66960714D01*
X170391428Y-67032142D01*
X170391428Y-67103571D01*
X170359523Y-67175000D01*
X170327619Y-67210714D01*
X170263809Y-67246428D01*
X170040476Y-67246428D01*
X171029523Y-66889285D02*
X170710476Y-66889285D01*
X170678571Y-67246428D01*
X170710476Y-67210714D01*
X170774285Y-67175000D01*
X170933809Y-67175000D01*
X170997619Y-67210714D01*
X171029523Y-67246428D01*
X171061428Y-67317857D01*
X171061428Y-67496428D01*
X171029523Y-67567857D01*
X170997619Y-67603571D01*
X170933809Y-67639285D01*
X170774285Y-67639285D01*
X170710476Y-67603571D01*
X170678571Y-67567857D01*
X171827142Y-66853571D02*
X171252857Y-67817857D01*
X172082380Y-67639285D02*
X172210000Y-67639285D01*
X172273809Y-67603571D01*
X172305714Y-67567857D01*
X172369523Y-67460714D01*
X172401428Y-67317857D01*
X172401428Y-67032142D01*
X172369523Y-66960714D01*
X172337619Y-66925000D01*
X172273809Y-66889285D01*
X172146190Y-66889285D01*
X172082380Y-66925000D01*
X172050476Y-66960714D01*
X172018571Y-67032142D01*
X172018571Y-67210714D01*
X172050476Y-67282142D01*
X172082380Y-67317857D01*
X172146190Y-67353571D01*
X172273809Y-67353571D01*
X172337619Y-67317857D01*
X172369523Y-67282142D01*
X172401428Y-67210714D01*
X168836428Y-42439285D02*
X168836428Y-41689285D01*
X168995952Y-41689285D01*
X169091666Y-41725000D01*
X169155476Y-41796428D01*
X169187380Y-41867857D01*
X169219285Y-42010714D01*
X169219285Y-42117857D01*
X169187380Y-42260714D01*
X169155476Y-42332142D01*
X169091666Y-42403571D01*
X168995952Y-42439285D01*
X168836428Y-42439285D01*
X169474523Y-41760714D02*
X169506428Y-41725000D01*
X169570238Y-41689285D01*
X169729761Y-41689285D01*
X169793571Y-41725000D01*
X169825476Y-41760714D01*
X169857380Y-41832142D01*
X169857380Y-41903571D01*
X169825476Y-42010714D01*
X169442619Y-42439285D01*
X169857380Y-42439285D01*
X170623095Y-41653571D02*
X170048809Y-42617857D01*
X171229285Y-42439285D02*
X171005952Y-42082142D01*
X170846428Y-42439285D02*
X170846428Y-41689285D01*
X171101666Y-41689285D01*
X171165476Y-41725000D01*
X171197380Y-41760714D01*
X171229285Y-41832142D01*
X171229285Y-41939285D01*
X171197380Y-42010714D01*
X171165476Y-42046428D01*
X171101666Y-42082142D01*
X170846428Y-42082142D01*
X171452619Y-41689285D02*
X171899285Y-42439285D01*
X171899285Y-41689285D02*
X171452619Y-42439285D01*
X172505476Y-42439285D02*
X172122619Y-42439285D01*
X172314047Y-42439285D02*
X172314047Y-41689285D01*
X172250238Y-41796428D01*
X172186428Y-41867857D01*
X172122619Y-41903571D01*
X170263809Y-64746428D02*
X170359523Y-64782142D01*
X170391428Y-64817857D01*
X170423333Y-64889285D01*
X170423333Y-64996428D01*
X170391428Y-65067857D01*
X170359523Y-65103571D01*
X170295714Y-65139285D01*
X170040476Y-65139285D01*
X170040476Y-64389285D01*
X170263809Y-64389285D01*
X170327619Y-64425000D01*
X170359523Y-64460714D01*
X170391428Y-64532142D01*
X170391428Y-64603571D01*
X170359523Y-64675000D01*
X170327619Y-64710714D01*
X170263809Y-64746428D01*
X170040476Y-64746428D01*
X170997619Y-64639285D02*
X170997619Y-65139285D01*
X170838095Y-64353571D02*
X170678571Y-64889285D01*
X171093333Y-64889285D01*
X171827142Y-64353571D02*
X171252857Y-65317857D01*
X172146190Y-64710714D02*
X172082380Y-64675000D01*
X172050476Y-64639285D01*
X172018571Y-64567857D01*
X172018571Y-64532142D01*
X172050476Y-64460714D01*
X172082380Y-64425000D01*
X172146190Y-64389285D01*
X172273809Y-64389285D01*
X172337619Y-64425000D01*
X172369523Y-64460714D01*
X172401428Y-64532142D01*
X172401428Y-64567857D01*
X172369523Y-64639285D01*
X172337619Y-64675000D01*
X172273809Y-64710714D01*
X172146190Y-64710714D01*
X172082380Y-64746428D01*
X172050476Y-64782142D01*
X172018571Y-64853571D01*
X172018571Y-64996428D01*
X172050476Y-65067857D01*
X172082380Y-65103571D01*
X172146190Y-65139285D01*
X172273809Y-65139285D01*
X172337619Y-65103571D01*
X172369523Y-65067857D01*
X172401428Y-64996428D01*
X172401428Y-64853571D01*
X172369523Y-64782142D01*
X172337619Y-64746428D01*
X172273809Y-64710714D01*
D12*
X164003571Y-35389285D02*
X164003571Y-34639285D01*
X164253571Y-35175000D01*
X164503571Y-34639285D01*
X164503571Y-35389285D01*
X164860714Y-35389285D02*
X164860714Y-34889285D01*
X164860714Y-34639285D02*
X164825000Y-34675000D01*
X164860714Y-34710714D01*
X164896428Y-34675000D01*
X164860714Y-34639285D01*
X164860714Y-34710714D01*
X165539285Y-35353571D02*
X165467857Y-35389285D01*
X165325000Y-35389285D01*
X165253571Y-35353571D01*
X165217857Y-35317857D01*
X165182142Y-35246428D01*
X165182142Y-35032142D01*
X165217857Y-34960714D01*
X165253571Y-34925000D01*
X165325000Y-34889285D01*
X165467857Y-34889285D01*
X165539285Y-34925000D01*
X165860714Y-35389285D02*
X165860714Y-34889285D01*
X165860714Y-35032142D02*
X165896428Y-34960714D01*
X165932142Y-34925000D01*
X166003571Y-34889285D01*
X166075000Y-34889285D01*
X166432142Y-35389285D02*
X166360714Y-35353571D01*
X166325000Y-35317857D01*
X166289285Y-35246428D01*
X166289285Y-35032142D01*
X166325000Y-34960714D01*
X166360714Y-34925000D01*
X166432142Y-34889285D01*
X166539285Y-34889285D01*
X166610714Y-34925000D01*
X166646428Y-34960714D01*
X166682142Y-35032142D01*
X166682142Y-35246428D01*
X166646428Y-35317857D01*
X166610714Y-35353571D01*
X166539285Y-35389285D01*
X166432142Y-35389285D01*
X167003571Y-34639285D02*
X167003571Y-35246428D01*
X167039285Y-35317857D01*
X167075000Y-35353571D01*
X167146428Y-35389285D01*
X167289285Y-35389285D01*
X167360714Y-35353571D01*
X167396428Y-35317857D01*
X167432142Y-35246428D01*
X167432142Y-34639285D01*
X167753571Y-35353571D02*
X167860714Y-35389285D01*
X168039285Y-35389285D01*
X168110714Y-35353571D01*
X168146428Y-35317857D01*
X168182142Y-35246428D01*
X168182142Y-35175000D01*
X168146428Y-35103571D01*
X168110714Y-35067857D01*
X168039285Y-35032142D01*
X167896428Y-34996428D01*
X167825000Y-34960714D01*
X167789285Y-34925000D01*
X167753571Y-34853571D01*
X167753571Y-34782142D01*
X167789285Y-34710714D01*
X167825000Y-34675000D01*
X167896428Y-34639285D01*
X168075000Y-34639285D01*
X168182142Y-34675000D01*
X168753571Y-34996428D02*
X168860714Y-35032142D01*
X168896428Y-35067857D01*
X168932142Y-35139285D01*
X168932142Y-35246428D01*
X168896428Y-35317857D01*
X168860714Y-35353571D01*
X168789285Y-35389285D01*
X168503571Y-35389285D01*
X168503571Y-34639285D01*
X168753571Y-34639285D01*
X168825000Y-34675000D01*
X168860714Y-34710714D01*
X168896428Y-34782142D01*
X168896428Y-34853571D01*
X168860714Y-34925000D01*
X168825000Y-34960714D01*
X168753571Y-34996428D01*
X168503571Y-34996428D01*
X164003571Y-35389285D02*
X164003571Y-34639285D01*
X164253571Y-35175000D01*
X164503571Y-34639285D01*
X164503571Y-35389285D01*
X164860714Y-35389285D02*
X164860714Y-34889285D01*
X164860714Y-34639285D02*
X164825000Y-34675000D01*
X164860714Y-34710714D01*
X164896428Y-34675000D01*
X164860714Y-34639285D01*
X164860714Y-34710714D01*
X165539285Y-35353571D02*
X165467857Y-35389285D01*
X165325000Y-35389285D01*
X165253571Y-35353571D01*
X165217857Y-35317857D01*
X165182142Y-35246428D01*
X165182142Y-35032142D01*
X165217857Y-34960714D01*
X165253571Y-34925000D01*
X165325000Y-34889285D01*
X165467857Y-34889285D01*
X165539285Y-34925000D01*
X165860714Y-35389285D02*
X165860714Y-34889285D01*
X165860714Y-35032142D02*
X165896428Y-34960714D01*
X165932142Y-34925000D01*
X166003571Y-34889285D01*
X166075000Y-34889285D01*
X166432142Y-35389285D02*
X166360714Y-35353571D01*
X166325000Y-35317857D01*
X166289285Y-35246428D01*
X166289285Y-35032142D01*
X166325000Y-34960714D01*
X166360714Y-34925000D01*
X166432142Y-34889285D01*
X166539285Y-34889285D01*
X166610714Y-34925000D01*
X166646428Y-34960714D01*
X166682142Y-35032142D01*
X166682142Y-35246428D01*
X166646428Y-35317857D01*
X166610714Y-35353571D01*
X166539285Y-35389285D01*
X166432142Y-35389285D01*
X167003571Y-34639285D02*
X167003571Y-35246428D01*
X167039285Y-35317857D01*
X167075000Y-35353571D01*
X167146428Y-35389285D01*
X167289285Y-35389285D01*
X167360714Y-35353571D01*
X167396428Y-35317857D01*
X167432142Y-35246428D01*
X167432142Y-34639285D01*
X167753571Y-35353571D02*
X167860714Y-35389285D01*
X168039285Y-35389285D01*
X168110714Y-35353571D01*
X168146428Y-35317857D01*
X168182142Y-35246428D01*
X168182142Y-35175000D01*
X168146428Y-35103571D01*
X168110714Y-35067857D01*
X168039285Y-35032142D01*
X167896428Y-34996428D01*
X167825000Y-34960714D01*
X167789285Y-34925000D01*
X167753571Y-34853571D01*
X167753571Y-34782142D01*
X167789285Y-34710714D01*
X167825000Y-34675000D01*
X167896428Y-34639285D01*
X168075000Y-34639285D01*
X168182142Y-34675000D01*
X168753571Y-34996428D02*
X168860714Y-35032142D01*
X168896428Y-35067857D01*
X168932142Y-35139285D01*
X168932142Y-35246428D01*
X168896428Y-35317857D01*
X168860714Y-35353571D01*
X168789285Y-35389285D01*
X168503571Y-35389285D01*
X168503571Y-34639285D01*
X168753571Y-34639285D01*
X168825000Y-34675000D01*
X168860714Y-34710714D01*
X168896428Y-34782142D01*
X168896428Y-34853571D01*
X168860714Y-34925000D01*
X168825000Y-34960714D01*
X168753571Y-34996428D01*
X168503571Y-34996428D01*
%TO.C,U2*%
X190303571Y-35489285D02*
X190303571Y-34739285D01*
X190553571Y-35275000D01*
X190803571Y-34739285D01*
X190803571Y-35489285D01*
X191160714Y-35489285D02*
X191160714Y-34989285D01*
X191160714Y-34739285D02*
X191125000Y-34775000D01*
X191160714Y-34810714D01*
X191196428Y-34775000D01*
X191160714Y-34739285D01*
X191160714Y-34810714D01*
X191839285Y-35453571D02*
X191767857Y-35489285D01*
X191625000Y-35489285D01*
X191553571Y-35453571D01*
X191517857Y-35417857D01*
X191482142Y-35346428D01*
X191482142Y-35132142D01*
X191517857Y-35060714D01*
X191553571Y-35025000D01*
X191625000Y-34989285D01*
X191767857Y-34989285D01*
X191839285Y-35025000D01*
X192160714Y-35489285D02*
X192160714Y-34989285D01*
X192160714Y-35132142D02*
X192196428Y-35060714D01*
X192232142Y-35025000D01*
X192303571Y-34989285D01*
X192375000Y-34989285D01*
X192732142Y-35489285D02*
X192660714Y-35453571D01*
X192625000Y-35417857D01*
X192589285Y-35346428D01*
X192589285Y-35132142D01*
X192625000Y-35060714D01*
X192660714Y-35025000D01*
X192732142Y-34989285D01*
X192839285Y-34989285D01*
X192910714Y-35025000D01*
X192946428Y-35060714D01*
X192982142Y-35132142D01*
X192982142Y-35346428D01*
X192946428Y-35417857D01*
X192910714Y-35453571D01*
X192839285Y-35489285D01*
X192732142Y-35489285D01*
X193303571Y-34739285D02*
X193303571Y-35346428D01*
X193339285Y-35417857D01*
X193375000Y-35453571D01*
X193446428Y-35489285D01*
X193589285Y-35489285D01*
X193660714Y-35453571D01*
X193696428Y-35417857D01*
X193732142Y-35346428D01*
X193732142Y-34739285D01*
X194053571Y-35453571D02*
X194160714Y-35489285D01*
X194339285Y-35489285D01*
X194410714Y-35453571D01*
X194446428Y-35417857D01*
X194482142Y-35346428D01*
X194482142Y-35275000D01*
X194446428Y-35203571D01*
X194410714Y-35167857D01*
X194339285Y-35132142D01*
X194196428Y-35096428D01*
X194125000Y-35060714D01*
X194089285Y-35025000D01*
X194053571Y-34953571D01*
X194053571Y-34882142D01*
X194089285Y-34810714D01*
X194125000Y-34775000D01*
X194196428Y-34739285D01*
X194375000Y-34739285D01*
X194482142Y-34775000D01*
X195053571Y-35096428D02*
X195160714Y-35132142D01*
X195196428Y-35167857D01*
X195232142Y-35239285D01*
X195232142Y-35346428D01*
X195196428Y-35417857D01*
X195160714Y-35453571D01*
X195089285Y-35489285D01*
X194803571Y-35489285D01*
X194803571Y-34739285D01*
X195053571Y-34739285D01*
X195125000Y-34775000D01*
X195160714Y-34810714D01*
X195196428Y-34882142D01*
X195196428Y-34953571D01*
X195160714Y-35025000D01*
X195125000Y-35060714D01*
X195053571Y-35096428D01*
X194803571Y-35096428D01*
X190303571Y-35489285D02*
X190303571Y-34739285D01*
X190553571Y-35275000D01*
X190803571Y-34739285D01*
X190803571Y-35489285D01*
X191160714Y-35489285D02*
X191160714Y-34989285D01*
X191160714Y-34739285D02*
X191125000Y-34775000D01*
X191160714Y-34810714D01*
X191196428Y-34775000D01*
X191160714Y-34739285D01*
X191160714Y-34810714D01*
X191839285Y-35453571D02*
X191767857Y-35489285D01*
X191625000Y-35489285D01*
X191553571Y-35453571D01*
X191517857Y-35417857D01*
X191482142Y-35346428D01*
X191482142Y-35132142D01*
X191517857Y-35060714D01*
X191553571Y-35025000D01*
X191625000Y-34989285D01*
X191767857Y-34989285D01*
X191839285Y-35025000D01*
X192160714Y-35489285D02*
X192160714Y-34989285D01*
X192160714Y-35132142D02*
X192196428Y-35060714D01*
X192232142Y-35025000D01*
X192303571Y-34989285D01*
X192375000Y-34989285D01*
X192732142Y-35489285D02*
X192660714Y-35453571D01*
X192625000Y-35417857D01*
X192589285Y-35346428D01*
X192589285Y-35132142D01*
X192625000Y-35060714D01*
X192660714Y-35025000D01*
X192732142Y-34989285D01*
X192839285Y-34989285D01*
X192910714Y-35025000D01*
X192946428Y-35060714D01*
X192982142Y-35132142D01*
X192982142Y-35346428D01*
X192946428Y-35417857D01*
X192910714Y-35453571D01*
X192839285Y-35489285D01*
X192732142Y-35489285D01*
X193303571Y-34739285D02*
X193303571Y-35346428D01*
X193339285Y-35417857D01*
X193375000Y-35453571D01*
X193446428Y-35489285D01*
X193589285Y-35489285D01*
X193660714Y-35453571D01*
X193696428Y-35417857D01*
X193732142Y-35346428D01*
X193732142Y-34739285D01*
X194053571Y-35453571D02*
X194160714Y-35489285D01*
X194339285Y-35489285D01*
X194410714Y-35453571D01*
X194446428Y-35417857D01*
X194482142Y-35346428D01*
X194482142Y-35275000D01*
X194446428Y-35203571D01*
X194410714Y-35167857D01*
X194339285Y-35132142D01*
X194196428Y-35096428D01*
X194125000Y-35060714D01*
X194089285Y-35025000D01*
X194053571Y-34953571D01*
X194053571Y-34882142D01*
X194089285Y-34810714D01*
X194125000Y-34775000D01*
X194196428Y-34739285D01*
X194375000Y-34739285D01*
X194482142Y-34775000D01*
X195053571Y-35096428D02*
X195160714Y-35132142D01*
X195196428Y-35167857D01*
X195232142Y-35239285D01*
X195232142Y-35346428D01*
X195196428Y-35417857D01*
X195160714Y-35453571D01*
X195089285Y-35489285D01*
X194803571Y-35489285D01*
X194803571Y-34739285D01*
X195053571Y-34739285D01*
X195125000Y-34775000D01*
X195160714Y-34810714D01*
X195196428Y-34882142D01*
X195196428Y-34953571D01*
X195160714Y-35025000D01*
X195125000Y-35060714D01*
X195053571Y-35096428D01*
X194803571Y-35096428D01*
D11*
X196563809Y-64846428D02*
X196659523Y-64882142D01*
X196691428Y-64917857D01*
X196723333Y-64989285D01*
X196723333Y-65096428D01*
X196691428Y-65167857D01*
X196659523Y-65203571D01*
X196595714Y-65239285D01*
X196340476Y-65239285D01*
X196340476Y-64489285D01*
X196563809Y-64489285D01*
X196627619Y-64525000D01*
X196659523Y-64560714D01*
X196691428Y-64632142D01*
X196691428Y-64703571D01*
X196659523Y-64775000D01*
X196627619Y-64810714D01*
X196563809Y-64846428D01*
X196340476Y-64846428D01*
X197297619Y-64739285D02*
X197297619Y-65239285D01*
X197138095Y-64453571D02*
X196978571Y-64989285D01*
X197393333Y-64989285D01*
X198127142Y-64453571D02*
X197552857Y-65417857D01*
X198446190Y-64810714D02*
X198382380Y-64775000D01*
X198350476Y-64739285D01*
X198318571Y-64667857D01*
X198318571Y-64632142D01*
X198350476Y-64560714D01*
X198382380Y-64525000D01*
X198446190Y-64489285D01*
X198573809Y-64489285D01*
X198637619Y-64525000D01*
X198669523Y-64560714D01*
X198701428Y-64632142D01*
X198701428Y-64667857D01*
X198669523Y-64739285D01*
X198637619Y-64775000D01*
X198573809Y-64810714D01*
X198446190Y-64810714D01*
X198382380Y-64846428D01*
X198350476Y-64882142D01*
X198318571Y-64953571D01*
X198318571Y-65096428D01*
X198350476Y-65167857D01*
X198382380Y-65203571D01*
X198446190Y-65239285D01*
X198573809Y-65239285D01*
X198637619Y-65203571D01*
X198669523Y-65167857D01*
X198701428Y-65096428D01*
X198701428Y-64953571D01*
X198669523Y-64882142D01*
X198637619Y-64846428D01*
X198573809Y-64810714D01*
X195136428Y-42539285D02*
X195136428Y-41789285D01*
X195295952Y-41789285D01*
X195391666Y-41825000D01*
X195455476Y-41896428D01*
X195487380Y-41967857D01*
X195519285Y-42110714D01*
X195519285Y-42217857D01*
X195487380Y-42360714D01*
X195455476Y-42432142D01*
X195391666Y-42503571D01*
X195295952Y-42539285D01*
X195136428Y-42539285D01*
X195774523Y-41860714D02*
X195806428Y-41825000D01*
X195870238Y-41789285D01*
X196029761Y-41789285D01*
X196093571Y-41825000D01*
X196125476Y-41860714D01*
X196157380Y-41932142D01*
X196157380Y-42003571D01*
X196125476Y-42110714D01*
X195742619Y-42539285D01*
X196157380Y-42539285D01*
X196923095Y-41753571D02*
X196348809Y-42717857D01*
X197529285Y-42539285D02*
X197305952Y-42182142D01*
X197146428Y-42539285D02*
X197146428Y-41789285D01*
X197401666Y-41789285D01*
X197465476Y-41825000D01*
X197497380Y-41860714D01*
X197529285Y-41932142D01*
X197529285Y-42039285D01*
X197497380Y-42110714D01*
X197465476Y-42146428D01*
X197401666Y-42182142D01*
X197146428Y-42182142D01*
X197752619Y-41789285D02*
X198199285Y-42539285D01*
X198199285Y-41789285D02*
X197752619Y-42539285D01*
X198805476Y-42539285D02*
X198422619Y-42539285D01*
X198614047Y-42539285D02*
X198614047Y-41789285D01*
X198550238Y-41896428D01*
X198486428Y-41967857D01*
X198422619Y-42003571D01*
X196563809Y-67346428D02*
X196659523Y-67382142D01*
X196691428Y-67417857D01*
X196723333Y-67489285D01*
X196723333Y-67596428D01*
X196691428Y-67667857D01*
X196659523Y-67703571D01*
X196595714Y-67739285D01*
X196340476Y-67739285D01*
X196340476Y-66989285D01*
X196563809Y-66989285D01*
X196627619Y-67025000D01*
X196659523Y-67060714D01*
X196691428Y-67132142D01*
X196691428Y-67203571D01*
X196659523Y-67275000D01*
X196627619Y-67310714D01*
X196563809Y-67346428D01*
X196340476Y-67346428D01*
X197329523Y-66989285D02*
X197010476Y-66989285D01*
X196978571Y-67346428D01*
X197010476Y-67310714D01*
X197074285Y-67275000D01*
X197233809Y-67275000D01*
X197297619Y-67310714D01*
X197329523Y-67346428D01*
X197361428Y-67417857D01*
X197361428Y-67596428D01*
X197329523Y-67667857D01*
X197297619Y-67703571D01*
X197233809Y-67739285D01*
X197074285Y-67739285D01*
X197010476Y-67703571D01*
X196978571Y-67667857D01*
X198127142Y-66953571D02*
X197552857Y-67917857D01*
X198382380Y-67739285D02*
X198510000Y-67739285D01*
X198573809Y-67703571D01*
X198605714Y-67667857D01*
X198669523Y-67560714D01*
X198701428Y-67417857D01*
X198701428Y-67132142D01*
X198669523Y-67060714D01*
X198637619Y-67025000D01*
X198573809Y-66989285D01*
X198446190Y-66989285D01*
X198382380Y-67025000D01*
X198350476Y-67060714D01*
X198318571Y-67132142D01*
X198318571Y-67310714D01*
X198350476Y-67382142D01*
X198382380Y-67417857D01*
X198446190Y-67453571D01*
X198573809Y-67453571D01*
X198637619Y-67417857D01*
X198669523Y-67382142D01*
X198701428Y-67310714D01*
X196723333Y-57517857D02*
X196691428Y-57553571D01*
X196595714Y-57589285D01*
X196531904Y-57589285D01*
X196436190Y-57553571D01*
X196372380Y-57482142D01*
X196340476Y-57410714D01*
X196308571Y-57267857D01*
X196308571Y-57160714D01*
X196340476Y-57017857D01*
X196372380Y-56946428D01*
X196436190Y-56875000D01*
X196531904Y-56839285D01*
X196595714Y-56839285D01*
X196691428Y-56875000D01*
X196723333Y-56910714D01*
X197297619Y-56839285D02*
X197170000Y-56839285D01*
X197106190Y-56875000D01*
X197074285Y-56910714D01*
X197010476Y-57017857D01*
X196978571Y-57160714D01*
X196978571Y-57446428D01*
X197010476Y-57517857D01*
X197042380Y-57553571D01*
X197106190Y-57589285D01*
X197233809Y-57589285D01*
X197297619Y-57553571D01*
X197329523Y-57517857D01*
X197361428Y-57446428D01*
X197361428Y-57267857D01*
X197329523Y-57196428D01*
X197297619Y-57160714D01*
X197233809Y-57125000D01*
X197106190Y-57125000D01*
X197042380Y-57160714D01*
X197010476Y-57196428D01*
X196978571Y-57267857D01*
X198127142Y-56803571D02*
X197552857Y-57767857D01*
X198669523Y-56839285D02*
X198350476Y-56839285D01*
X198318571Y-57196428D01*
X198350476Y-57160714D01*
X198414285Y-57125000D01*
X198573809Y-57125000D01*
X198637619Y-57160714D01*
X198669523Y-57196428D01*
X198701428Y-57267857D01*
X198701428Y-57446428D01*
X198669523Y-57517857D01*
X198637619Y-57553571D01*
X198573809Y-57589285D01*
X198414285Y-57589285D01*
X198350476Y-57553571D01*
X198318571Y-57517857D01*
X193782380Y-52503571D02*
X193878095Y-52539285D01*
X194037619Y-52539285D01*
X194101428Y-52503571D01*
X194133333Y-52467857D01*
X194165238Y-52396428D01*
X194165238Y-52325000D01*
X194133333Y-52253571D01*
X194101428Y-52217857D01*
X194037619Y-52182142D01*
X193910000Y-52146428D01*
X193846190Y-52110714D01*
X193814285Y-52075000D01*
X193782380Y-52003571D01*
X193782380Y-51932142D01*
X193814285Y-51860714D01*
X193846190Y-51825000D01*
X193910000Y-51789285D01*
X194069523Y-51789285D01*
X194165238Y-51825000D01*
X194835238Y-52467857D02*
X194803333Y-52503571D01*
X194707619Y-52539285D01*
X194643809Y-52539285D01*
X194548095Y-52503571D01*
X194484285Y-52432142D01*
X194452380Y-52360714D01*
X194420476Y-52217857D01*
X194420476Y-52110714D01*
X194452380Y-51967857D01*
X194484285Y-51896428D01*
X194548095Y-51825000D01*
X194643809Y-51789285D01*
X194707619Y-51789285D01*
X194803333Y-51825000D01*
X194835238Y-51860714D01*
X195441428Y-52539285D02*
X195122380Y-52539285D01*
X195122380Y-51789285D01*
X196143333Y-51753571D02*
X195569047Y-52717857D01*
X196366666Y-52539285D02*
X196366666Y-51789285D01*
X196526190Y-51789285D01*
X196621904Y-51825000D01*
X196685714Y-51896428D01*
X196717619Y-51967857D01*
X196749523Y-52110714D01*
X196749523Y-52217857D01*
X196717619Y-52360714D01*
X196685714Y-52432142D01*
X196621904Y-52503571D01*
X196526190Y-52539285D01*
X196366666Y-52539285D01*
X197164285Y-51789285D02*
X197228095Y-51789285D01*
X197291904Y-51825000D01*
X197323809Y-51860714D01*
X197355714Y-51932142D01*
X197387619Y-52075000D01*
X197387619Y-52253571D01*
X197355714Y-52396428D01*
X197323809Y-52467857D01*
X197291904Y-52503571D01*
X197228095Y-52539285D01*
X197164285Y-52539285D01*
X197100476Y-52503571D01*
X197068571Y-52467857D01*
X197036666Y-52396428D01*
X197004761Y-52253571D01*
X197004761Y-52075000D01*
X197036666Y-51932142D01*
X197068571Y-51860714D01*
X197100476Y-51825000D01*
X197164285Y-51789285D01*
X198153333Y-51753571D02*
X197579047Y-52717857D01*
X198312857Y-51789285D02*
X198727619Y-51789285D01*
X198504285Y-52075000D01*
X198600000Y-52075000D01*
X198663809Y-52110714D01*
X198695714Y-52146428D01*
X198727619Y-52217857D01*
X198727619Y-52396428D01*
X198695714Y-52467857D01*
X198663809Y-52503571D01*
X198600000Y-52539285D01*
X198408571Y-52539285D01*
X198344761Y-52503571D01*
X198312857Y-52467857D01*
X193766428Y-50003571D02*
X193862142Y-50039285D01*
X194021666Y-50039285D01*
X194085476Y-50003571D01*
X194117380Y-49967857D01*
X194149285Y-49896428D01*
X194149285Y-49825000D01*
X194117380Y-49753571D01*
X194085476Y-49717857D01*
X194021666Y-49682142D01*
X193894047Y-49646428D01*
X193830238Y-49610714D01*
X193798333Y-49575000D01*
X193766428Y-49503571D01*
X193766428Y-49432142D01*
X193798333Y-49360714D01*
X193830238Y-49325000D01*
X193894047Y-49289285D01*
X194053571Y-49289285D01*
X194149285Y-49325000D01*
X194436428Y-50039285D02*
X194436428Y-49289285D01*
X194595952Y-49289285D01*
X194691666Y-49325000D01*
X194755476Y-49396428D01*
X194787380Y-49467857D01*
X194819285Y-49610714D01*
X194819285Y-49717857D01*
X194787380Y-49860714D01*
X194755476Y-49932142D01*
X194691666Y-50003571D01*
X194595952Y-50039285D01*
X194436428Y-50039285D01*
X195074523Y-49825000D02*
X195393571Y-49825000D01*
X195010714Y-50039285D02*
X195234047Y-49289285D01*
X195457380Y-50039285D01*
X196159285Y-49253571D02*
X195585000Y-50217857D01*
X196382619Y-50039285D02*
X196382619Y-49289285D01*
X196542142Y-49289285D01*
X196637857Y-49325000D01*
X196701666Y-49396428D01*
X196733571Y-49467857D01*
X196765476Y-49610714D01*
X196765476Y-49717857D01*
X196733571Y-49860714D01*
X196701666Y-49932142D01*
X196637857Y-50003571D01*
X196542142Y-50039285D01*
X196382619Y-50039285D01*
X197403571Y-50039285D02*
X197020714Y-50039285D01*
X197212142Y-50039285D02*
X197212142Y-49289285D01*
X197148333Y-49396428D01*
X197084523Y-49467857D01*
X197020714Y-49503571D01*
X198169285Y-49253571D02*
X197595000Y-50217857D01*
X198360714Y-49360714D02*
X198392619Y-49325000D01*
X198456428Y-49289285D01*
X198615952Y-49289285D01*
X198679761Y-49325000D01*
X198711666Y-49360714D01*
X198743571Y-49432142D01*
X198743571Y-49503571D01*
X198711666Y-49610714D01*
X198328809Y-50039285D01*
X198743571Y-50039285D01*
X196340476Y-55039285D02*
X196340476Y-54289285D01*
X196500000Y-54289285D01*
X196595714Y-54325000D01*
X196659523Y-54396428D01*
X196691428Y-54467857D01*
X196723333Y-54610714D01*
X196723333Y-54717857D01*
X196691428Y-54860714D01*
X196659523Y-54932142D01*
X196595714Y-55003571D01*
X196500000Y-55039285D01*
X196340476Y-55039285D01*
X197297619Y-54539285D02*
X197297619Y-55039285D01*
X197138095Y-54253571D02*
X196978571Y-54789285D01*
X197393333Y-54789285D01*
X198127142Y-54253571D02*
X197552857Y-55217857D01*
X198637619Y-54539285D02*
X198637619Y-55039285D01*
X198478095Y-54253571D02*
X198318571Y-54789285D01*
X198733333Y-54789285D01*
X195216190Y-39989285D02*
X195216190Y-39239285D01*
X195375714Y-39239285D01*
X195471428Y-39275000D01*
X195535238Y-39346428D01*
X195567142Y-39417857D01*
X195599047Y-39560714D01*
X195599047Y-39667857D01*
X195567142Y-39810714D01*
X195535238Y-39882142D01*
X195471428Y-39953571D01*
X195375714Y-39989285D01*
X195216190Y-39989285D01*
X195822380Y-39239285D02*
X196237142Y-39239285D01*
X196013809Y-39525000D01*
X196109523Y-39525000D01*
X196173333Y-39560714D01*
X196205238Y-39596428D01*
X196237142Y-39667857D01*
X196237142Y-39846428D01*
X196205238Y-39917857D01*
X196173333Y-39953571D01*
X196109523Y-39989285D01*
X195918095Y-39989285D01*
X195854285Y-39953571D01*
X195822380Y-39917857D01*
X197002857Y-39203571D02*
X196428571Y-40167857D01*
X197130476Y-39239285D02*
X197513333Y-39239285D01*
X197321904Y-39989285D02*
X197321904Y-39239285D01*
X197672857Y-39239285D02*
X198119523Y-39989285D01*
X198119523Y-39239285D02*
X197672857Y-39989285D01*
X198502380Y-39239285D02*
X198566190Y-39239285D01*
X198630000Y-39275000D01*
X198661904Y-39310714D01*
X198693809Y-39382142D01*
X198725714Y-39525000D01*
X198725714Y-39703571D01*
X198693809Y-39846428D01*
X198661904Y-39917857D01*
X198630000Y-39953571D01*
X198566190Y-39989285D01*
X198502380Y-39989285D01*
X198438571Y-39953571D01*
X198406666Y-39917857D01*
X198374761Y-39846428D01*
X198342857Y-39703571D01*
X198342857Y-39525000D01*
X198374761Y-39382142D01*
X198406666Y-39310714D01*
X198438571Y-39275000D01*
X198502380Y-39239285D01*
X197244523Y-46825000D02*
X197180714Y-46789285D01*
X197085000Y-46789285D01*
X196989285Y-46825000D01*
X196925476Y-46896428D01*
X196893571Y-46967857D01*
X196861666Y-47110714D01*
X196861666Y-47217857D01*
X196893571Y-47360714D01*
X196925476Y-47432142D01*
X196989285Y-47503571D01*
X197085000Y-47539285D01*
X197148809Y-47539285D01*
X197244523Y-47503571D01*
X197276428Y-47467857D01*
X197276428Y-47217857D01*
X197148809Y-47217857D01*
X197563571Y-47539285D02*
X197563571Y-46789285D01*
X197946428Y-47539285D01*
X197946428Y-46789285D01*
X198265476Y-47539285D02*
X198265476Y-46789285D01*
X198425000Y-46789285D01*
X198520714Y-46825000D01*
X198584523Y-46896428D01*
X198616428Y-46967857D01*
X198648333Y-47110714D01*
X198648333Y-47217857D01*
X198616428Y-47360714D01*
X198584523Y-47432142D01*
X198520714Y-47503571D01*
X198425000Y-47539285D01*
X198265476Y-47539285D01*
X197244523Y-44375000D02*
X197180714Y-44339285D01*
X197085000Y-44339285D01*
X196989285Y-44375000D01*
X196925476Y-44446428D01*
X196893571Y-44517857D01*
X196861666Y-44660714D01*
X196861666Y-44767857D01*
X196893571Y-44910714D01*
X196925476Y-44982142D01*
X196989285Y-45053571D01*
X197085000Y-45089285D01*
X197148809Y-45089285D01*
X197244523Y-45053571D01*
X197276428Y-45017857D01*
X197276428Y-44767857D01*
X197148809Y-44767857D01*
X197563571Y-45089285D02*
X197563571Y-44339285D01*
X197946428Y-45089285D01*
X197946428Y-44339285D01*
X198265476Y-45089285D02*
X198265476Y-44339285D01*
X198425000Y-44339285D01*
X198520714Y-44375000D01*
X198584523Y-44446428D01*
X198616428Y-44517857D01*
X198648333Y-44660714D01*
X198648333Y-44767857D01*
X198616428Y-44910714D01*
X198584523Y-44982142D01*
X198520714Y-45053571D01*
X198425000Y-45089285D01*
X198265476Y-45089285D01*
X196340476Y-60139285D02*
X196340476Y-59389285D01*
X196500000Y-59389285D01*
X196595714Y-59425000D01*
X196659523Y-59496428D01*
X196691428Y-59567857D01*
X196723333Y-59710714D01*
X196723333Y-59817857D01*
X196691428Y-59960714D01*
X196659523Y-60032142D01*
X196595714Y-60103571D01*
X196500000Y-60139285D01*
X196340476Y-60139285D01*
X196946666Y-59389285D02*
X197393333Y-59389285D01*
X197106190Y-60139285D01*
X198127142Y-59353571D02*
X197552857Y-60317857D01*
X198637619Y-59389285D02*
X198510000Y-59389285D01*
X198446190Y-59425000D01*
X198414285Y-59460714D01*
X198350476Y-59567857D01*
X198318571Y-59710714D01*
X198318571Y-59996428D01*
X198350476Y-60067857D01*
X198382380Y-60103571D01*
X198446190Y-60139285D01*
X198573809Y-60139285D01*
X198637619Y-60103571D01*
X198669523Y-60067857D01*
X198701428Y-59996428D01*
X198701428Y-59817857D01*
X198669523Y-59746428D01*
X198637619Y-59710714D01*
X198573809Y-59675000D01*
X198446190Y-59675000D01*
X198382380Y-59710714D01*
X198350476Y-59746428D01*
X198318571Y-59817857D01*
X196372380Y-62296428D02*
X196595714Y-62296428D01*
X196691428Y-62689285D02*
X196372380Y-62689285D01*
X196372380Y-61939285D01*
X196691428Y-61939285D01*
X197265714Y-61939285D02*
X197138095Y-61939285D01*
X197074285Y-61975000D01*
X197042380Y-62010714D01*
X196978571Y-62117857D01*
X196946666Y-62260714D01*
X196946666Y-62546428D01*
X196978571Y-62617857D01*
X197010476Y-62653571D01*
X197074285Y-62689285D01*
X197201904Y-62689285D01*
X197265714Y-62653571D01*
X197297619Y-62617857D01*
X197329523Y-62546428D01*
X197329523Y-62367857D01*
X197297619Y-62296428D01*
X197265714Y-62260714D01*
X197201904Y-62225000D01*
X197074285Y-62225000D01*
X197010476Y-62260714D01*
X196978571Y-62296428D01*
X196946666Y-62367857D01*
X198095238Y-61903571D02*
X197520952Y-62867857D01*
X198254761Y-61939285D02*
X198701428Y-61939285D01*
X198414285Y-62689285D01*
X187272380Y-65389285D02*
X186889523Y-65389285D01*
X187080952Y-65389285D02*
X187080952Y-64639285D01*
X187017142Y-64746428D01*
X186953333Y-64817857D01*
X186889523Y-64853571D01*
X187846666Y-64639285D02*
X187719047Y-64639285D01*
X187655238Y-64675000D01*
X187623333Y-64710714D01*
X187559523Y-64817857D01*
X187527619Y-64960714D01*
X187527619Y-65246428D01*
X187559523Y-65317857D01*
X187591428Y-65353571D01*
X187655238Y-65389285D01*
X187782857Y-65389285D01*
X187846666Y-65353571D01*
X187878571Y-65317857D01*
X187910476Y-65246428D01*
X187910476Y-65067857D01*
X187878571Y-64996428D01*
X187846666Y-64960714D01*
X187782857Y-64925000D01*
X187655238Y-64925000D01*
X187591428Y-64960714D01*
X187559523Y-64996428D01*
X187527619Y-65067857D01*
X188676190Y-64603571D02*
X188101904Y-65567857D01*
X189122857Y-64996428D02*
X189218571Y-65032142D01*
X189250476Y-65067857D01*
X189282380Y-65139285D01*
X189282380Y-65246428D01*
X189250476Y-65317857D01*
X189218571Y-65353571D01*
X189154761Y-65389285D01*
X188899523Y-65389285D01*
X188899523Y-64639285D01*
X189122857Y-64639285D01*
X189186666Y-64675000D01*
X189218571Y-64710714D01*
X189250476Y-64782142D01*
X189250476Y-64853571D01*
X189218571Y-64925000D01*
X189186666Y-64960714D01*
X189122857Y-64996428D01*
X188899523Y-64996428D01*
X189537619Y-64710714D02*
X189569523Y-64675000D01*
X189633333Y-64639285D01*
X189792857Y-64639285D01*
X189856666Y-64675000D01*
X189888571Y-64710714D01*
X189920476Y-64782142D01*
X189920476Y-64853571D01*
X189888571Y-64960714D01*
X189505714Y-65389285D01*
X189920476Y-65389285D01*
X187272380Y-67889285D02*
X186889523Y-67889285D01*
X187080952Y-67889285D02*
X187080952Y-67139285D01*
X187017142Y-67246428D01*
X186953333Y-67317857D01*
X186889523Y-67353571D01*
X187687142Y-67139285D02*
X187750952Y-67139285D01*
X187814761Y-67175000D01*
X187846666Y-67210714D01*
X187878571Y-67282142D01*
X187910476Y-67425000D01*
X187910476Y-67603571D01*
X187878571Y-67746428D01*
X187846666Y-67817857D01*
X187814761Y-67853571D01*
X187750952Y-67889285D01*
X187687142Y-67889285D01*
X187623333Y-67853571D01*
X187591428Y-67817857D01*
X187559523Y-67746428D01*
X187527619Y-67603571D01*
X187527619Y-67425000D01*
X187559523Y-67282142D01*
X187591428Y-67210714D01*
X187623333Y-67175000D01*
X187687142Y-67139285D01*
X188676190Y-67103571D02*
X188101904Y-68067857D01*
X189122857Y-67496428D02*
X189218571Y-67532142D01*
X189250476Y-67567857D01*
X189282380Y-67639285D01*
X189282380Y-67746428D01*
X189250476Y-67817857D01*
X189218571Y-67853571D01*
X189154761Y-67889285D01*
X188899523Y-67889285D01*
X188899523Y-67139285D01*
X189122857Y-67139285D01*
X189186666Y-67175000D01*
X189218571Y-67210714D01*
X189250476Y-67282142D01*
X189250476Y-67353571D01*
X189218571Y-67425000D01*
X189186666Y-67460714D01*
X189122857Y-67496428D01*
X188899523Y-67496428D01*
X189856666Y-67139285D02*
X189729047Y-67139285D01*
X189665238Y-67175000D01*
X189633333Y-67210714D01*
X189569523Y-67317857D01*
X189537619Y-67460714D01*
X189537619Y-67746428D01*
X189569523Y-67817857D01*
X189601428Y-67853571D01*
X189665238Y-67889285D01*
X189792857Y-67889285D01*
X189856666Y-67853571D01*
X189888571Y-67817857D01*
X189920476Y-67746428D01*
X189920476Y-67567857D01*
X189888571Y-67496428D01*
X189856666Y-67460714D01*
X189792857Y-67425000D01*
X189665238Y-67425000D01*
X189601428Y-67460714D01*
X189569523Y-67496428D01*
X189537619Y-67567857D01*
X187272380Y-62839285D02*
X186889523Y-62839285D01*
X187080952Y-62839285D02*
X187080952Y-62089285D01*
X187017142Y-62196428D01*
X186953333Y-62267857D01*
X186889523Y-62303571D01*
X187846666Y-62339285D02*
X187846666Y-62839285D01*
X187687142Y-62053571D02*
X187527619Y-62589285D01*
X187942380Y-62589285D01*
X188676190Y-62053571D02*
X188101904Y-63017857D01*
X189122857Y-62446428D02*
X189218571Y-62482142D01*
X189250476Y-62517857D01*
X189282380Y-62589285D01*
X189282380Y-62696428D01*
X189250476Y-62767857D01*
X189218571Y-62803571D01*
X189154761Y-62839285D01*
X188899523Y-62839285D01*
X188899523Y-62089285D01*
X189122857Y-62089285D01*
X189186666Y-62125000D01*
X189218571Y-62160714D01*
X189250476Y-62232142D01*
X189250476Y-62303571D01*
X189218571Y-62375000D01*
X189186666Y-62410714D01*
X189122857Y-62446428D01*
X188899523Y-62446428D01*
X189505714Y-62089285D02*
X189920476Y-62089285D01*
X189697142Y-62375000D01*
X189792857Y-62375000D01*
X189856666Y-62410714D01*
X189888571Y-62446428D01*
X189920476Y-62517857D01*
X189920476Y-62696428D01*
X189888571Y-62767857D01*
X189856666Y-62803571D01*
X189792857Y-62839285D01*
X189601428Y-62839285D01*
X189537619Y-62803571D01*
X189505714Y-62767857D01*
X187272380Y-60289285D02*
X186889523Y-60289285D01*
X187080952Y-60289285D02*
X187080952Y-59539285D01*
X187017142Y-59646428D01*
X186953333Y-59717857D01*
X186889523Y-59753571D01*
X187878571Y-59539285D02*
X187559523Y-59539285D01*
X187527619Y-59896428D01*
X187559523Y-59860714D01*
X187623333Y-59825000D01*
X187782857Y-59825000D01*
X187846666Y-59860714D01*
X187878571Y-59896428D01*
X187910476Y-59967857D01*
X187910476Y-60146428D01*
X187878571Y-60217857D01*
X187846666Y-60253571D01*
X187782857Y-60289285D01*
X187623333Y-60289285D01*
X187559523Y-60253571D01*
X187527619Y-60217857D01*
X188676190Y-59503571D02*
X188101904Y-60467857D01*
X189122857Y-59896428D02*
X189218571Y-59932142D01*
X189250476Y-59967857D01*
X189282380Y-60039285D01*
X189282380Y-60146428D01*
X189250476Y-60217857D01*
X189218571Y-60253571D01*
X189154761Y-60289285D01*
X188899523Y-60289285D01*
X188899523Y-59539285D01*
X189122857Y-59539285D01*
X189186666Y-59575000D01*
X189218571Y-59610714D01*
X189250476Y-59682142D01*
X189250476Y-59753571D01*
X189218571Y-59825000D01*
X189186666Y-59860714D01*
X189122857Y-59896428D01*
X188899523Y-59896428D01*
X189920476Y-60289285D02*
X189537619Y-60289285D01*
X189729047Y-60289285D02*
X189729047Y-59539285D01*
X189665238Y-59646428D01*
X189601428Y-59717857D01*
X189537619Y-59753571D01*
X186969285Y-57525000D02*
X187288333Y-57525000D01*
X186905476Y-57739285D02*
X187128809Y-56989285D01*
X187352142Y-57739285D01*
X187703095Y-56989285D02*
X187766904Y-56989285D01*
X187830714Y-57025000D01*
X187862619Y-57060714D01*
X187894523Y-57132142D01*
X187926428Y-57275000D01*
X187926428Y-57453571D01*
X187894523Y-57596428D01*
X187862619Y-57667857D01*
X187830714Y-57703571D01*
X187766904Y-57739285D01*
X187703095Y-57739285D01*
X187639285Y-57703571D01*
X187607380Y-57667857D01*
X187575476Y-57596428D01*
X187543571Y-57453571D01*
X187543571Y-57275000D01*
X187575476Y-57132142D01*
X187607380Y-57060714D01*
X187639285Y-57025000D01*
X187703095Y-56989285D01*
X188692142Y-56953571D02*
X188117857Y-57917857D01*
X189138809Y-57346428D02*
X188915476Y-57346428D01*
X188915476Y-57739285D02*
X188915476Y-56989285D01*
X189234523Y-56989285D01*
X189425952Y-56989285D02*
X189872619Y-56989285D01*
X189585476Y-57739285D01*
X186969285Y-54975000D02*
X187288333Y-54975000D01*
X186905476Y-55189285D02*
X187128809Y-54439285D01*
X187352142Y-55189285D01*
X187926428Y-55189285D02*
X187543571Y-55189285D01*
X187735000Y-55189285D02*
X187735000Y-54439285D01*
X187671190Y-54546428D01*
X187607380Y-54617857D01*
X187543571Y-54653571D01*
X188692142Y-54403571D02*
X188117857Y-55367857D01*
X189138809Y-54796428D02*
X188915476Y-54796428D01*
X188915476Y-55189285D02*
X188915476Y-54439285D01*
X189234523Y-54439285D01*
X189776904Y-54439285D02*
X189649285Y-54439285D01*
X189585476Y-54475000D01*
X189553571Y-54510714D01*
X189489761Y-54617857D01*
X189457857Y-54760714D01*
X189457857Y-55046428D01*
X189489761Y-55117857D01*
X189521666Y-55153571D01*
X189585476Y-55189285D01*
X189713095Y-55189285D01*
X189776904Y-55153571D01*
X189808809Y-55117857D01*
X189840714Y-55046428D01*
X189840714Y-54867857D01*
X189808809Y-54796428D01*
X189776904Y-54760714D01*
X189713095Y-54725000D01*
X189585476Y-54725000D01*
X189521666Y-54760714D01*
X189489761Y-54796428D01*
X189457857Y-54867857D01*
X186969285Y-52475000D02*
X187288333Y-52475000D01*
X186905476Y-52689285D02*
X187128809Y-51939285D01*
X187352142Y-52689285D01*
X187543571Y-52010714D02*
X187575476Y-51975000D01*
X187639285Y-51939285D01*
X187798809Y-51939285D01*
X187862619Y-51975000D01*
X187894523Y-52010714D01*
X187926428Y-52082142D01*
X187926428Y-52153571D01*
X187894523Y-52260714D01*
X187511666Y-52689285D01*
X187926428Y-52689285D01*
X188692142Y-51903571D02*
X188117857Y-52867857D01*
X189138809Y-52296428D02*
X188915476Y-52296428D01*
X188915476Y-52689285D02*
X188915476Y-51939285D01*
X189234523Y-51939285D01*
X189808809Y-51939285D02*
X189489761Y-51939285D01*
X189457857Y-52296428D01*
X189489761Y-52260714D01*
X189553571Y-52225000D01*
X189713095Y-52225000D01*
X189776904Y-52260714D01*
X189808809Y-52296428D01*
X189840714Y-52367857D01*
X189840714Y-52546428D01*
X189808809Y-52617857D01*
X189776904Y-52653571D01*
X189713095Y-52689285D01*
X189553571Y-52689285D01*
X189489761Y-52653571D01*
X189457857Y-52617857D01*
X186969285Y-49975000D02*
X187288333Y-49975000D01*
X186905476Y-50189285D02*
X187128809Y-49439285D01*
X187352142Y-50189285D01*
X187511666Y-49439285D02*
X187926428Y-49439285D01*
X187703095Y-49725000D01*
X187798809Y-49725000D01*
X187862619Y-49760714D01*
X187894523Y-49796428D01*
X187926428Y-49867857D01*
X187926428Y-50046428D01*
X187894523Y-50117857D01*
X187862619Y-50153571D01*
X187798809Y-50189285D01*
X187607380Y-50189285D01*
X187543571Y-50153571D01*
X187511666Y-50117857D01*
X188692142Y-49403571D02*
X188117857Y-50367857D01*
X189138809Y-49796428D02*
X188915476Y-49796428D01*
X188915476Y-50189285D02*
X188915476Y-49439285D01*
X189234523Y-49439285D01*
X189776904Y-49689285D02*
X189776904Y-50189285D01*
X189617380Y-49403571D02*
X189457857Y-49939285D01*
X189872619Y-49939285D01*
X186911666Y-46739285D02*
X187135000Y-47489285D01*
X187358333Y-46739285D01*
X187964523Y-47417857D02*
X187932619Y-47453571D01*
X187836904Y-47489285D01*
X187773095Y-47489285D01*
X187677380Y-47453571D01*
X187613571Y-47382142D01*
X187581666Y-47310714D01*
X187549761Y-47167857D01*
X187549761Y-47060714D01*
X187581666Y-46917857D01*
X187613571Y-46846428D01*
X187677380Y-46775000D01*
X187773095Y-46739285D01*
X187836904Y-46739285D01*
X187932619Y-46775000D01*
X187964523Y-46810714D01*
X188634523Y-47417857D02*
X188602619Y-47453571D01*
X188506904Y-47489285D01*
X188443095Y-47489285D01*
X188347380Y-47453571D01*
X188283571Y-47382142D01*
X188251666Y-47310714D01*
X188219761Y-47167857D01*
X188219761Y-47060714D01*
X188251666Y-46917857D01*
X188283571Y-46846428D01*
X188347380Y-46775000D01*
X188443095Y-46739285D01*
X188506904Y-46739285D01*
X188602619Y-46775000D01*
X188634523Y-46810714D01*
X187438095Y-45039285D02*
X187214761Y-44682142D01*
X187055238Y-45039285D02*
X187055238Y-44289285D01*
X187310476Y-44289285D01*
X187374285Y-44325000D01*
X187406190Y-44360714D01*
X187438095Y-44432142D01*
X187438095Y-44539285D01*
X187406190Y-44610714D01*
X187374285Y-44646428D01*
X187310476Y-44682142D01*
X187055238Y-44682142D01*
X187693333Y-45003571D02*
X187789047Y-45039285D01*
X187948571Y-45039285D01*
X188012380Y-45003571D01*
X188044285Y-44967857D01*
X188076190Y-44896428D01*
X188076190Y-44825000D01*
X188044285Y-44753571D01*
X188012380Y-44717857D01*
X187948571Y-44682142D01*
X187820952Y-44646428D01*
X187757142Y-44610714D01*
X187725238Y-44575000D01*
X187693333Y-44503571D01*
X187693333Y-44432142D01*
X187725238Y-44360714D01*
X187757142Y-44325000D01*
X187820952Y-44289285D01*
X187980476Y-44289285D01*
X188076190Y-44325000D01*
X188267619Y-44289285D02*
X188650476Y-44289285D01*
X188459047Y-45039285D02*
X188459047Y-44289285D01*
X187294523Y-41775000D02*
X187230714Y-41739285D01*
X187135000Y-41739285D01*
X187039285Y-41775000D01*
X186975476Y-41846428D01*
X186943571Y-41917857D01*
X186911666Y-42060714D01*
X186911666Y-42167857D01*
X186943571Y-42310714D01*
X186975476Y-42382142D01*
X187039285Y-42453571D01*
X187135000Y-42489285D01*
X187198809Y-42489285D01*
X187294523Y-42453571D01*
X187326428Y-42417857D01*
X187326428Y-42167857D01*
X187198809Y-42167857D01*
X187613571Y-42489285D02*
X187613571Y-41739285D01*
X187996428Y-42489285D01*
X187996428Y-41739285D01*
X188315476Y-42489285D02*
X188315476Y-41739285D01*
X188475000Y-41739285D01*
X188570714Y-41775000D01*
X188634523Y-41846428D01*
X188666428Y-41917857D01*
X188698333Y-42060714D01*
X188698333Y-42167857D01*
X188666428Y-42310714D01*
X188634523Y-42382142D01*
X188570714Y-42453571D01*
X188475000Y-42489285D01*
X188315476Y-42489285D01*
X187342380Y-39939285D02*
X187119047Y-39582142D01*
X186959523Y-39939285D02*
X186959523Y-39189285D01*
X187214761Y-39189285D01*
X187278571Y-39225000D01*
X187310476Y-39260714D01*
X187342380Y-39332142D01*
X187342380Y-39439285D01*
X187310476Y-39510714D01*
X187278571Y-39546428D01*
X187214761Y-39582142D01*
X186959523Y-39582142D01*
X187597619Y-39725000D02*
X187916666Y-39725000D01*
X187533809Y-39939285D02*
X187757142Y-39189285D01*
X187980476Y-39939285D01*
X188140000Y-39189285D02*
X188299523Y-39939285D01*
X188427142Y-39403571D01*
X188554761Y-39939285D01*
X188714285Y-39189285D01*
%TD*%
M02*
