%TF.GenerationSoftware,KiCad,Pcbnew,(5.1.10-1-10_14)*%
%TF.CreationDate,2021-08-01T06:39:00+09:00*%
%TF.ProjectId,v1,76312e6b-6963-4616-945f-706362585858,rev?*%
%TF.SameCoordinates,Original*%
%TF.FileFunction,Legend,Bot*%
%TF.FilePolarity,Positive*%
%FSLAX46Y46*%
G04 Gerber Fmt 4.6, Leading zero omitted, Abs format (unit mm)*
G04 Created by KiCad (PCBNEW (5.1.10-1-10_14)) date 2021-08-01 06:39:00*
%MOMM*%
%LPD*%
G01*
G04 APERTURE LIST*
%ADD10C,0.300000*%
%ADD11C,0.800000*%
%ADD12C,3.000000*%
%ADD13C,0.500000*%
%ADD14C,1.000000*%
%ADD15C,3.500000*%
%ADD16C,0.150000*%
%ADD17C,0.400000*%
G04 APERTURE END LIST*
D10*
%TO.C,SW11*%
X84125000Y-43675000D02*
X84125000Y-43025000D01*
D11*
X84625000Y-46125000D02*
X84625000Y-44325001D01*
D12*
X85755000Y-42625000D02*
X85755000Y-44865000D01*
D13*
X94125000Y-44475000D02*
X92825000Y-44425000D01*
D14*
X93825000Y-41725000D02*
X93825000Y-44225000D01*
D15*
X92525000Y-42925000D02*
X85825000Y-42925000D01*
D16*
X94325000Y-44725000D02*
X94325000Y-41125000D01*
X94305000Y-43725000D02*
X94305000Y-41475000D01*
X84025000Y-43775000D02*
X84225000Y-43775000D01*
X84275000Y-42175000D02*
X84275000Y-46625000D01*
X84025000Y-43025000D02*
X84025000Y-43775000D01*
X84275000Y-46625000D02*
X87305000Y-46625000D01*
X89525000Y-44725000D02*
X94325000Y-44725000D01*
X94325000Y-41125000D02*
X86124999Y-41125000D01*
D13*
X84475000Y-46425000D02*
X86925000Y-46425000D01*
D17*
X94175000Y-41325000D02*
X92925000Y-41325000D01*
D16*
X87308682Y-46603529D02*
G75*
G02*
X89525000Y-44725000I2151318J-291471D01*
G01*
X84025000Y-43025001D02*
G75*
G02*
X86124999Y-41125000I2000000J-99999D01*
G01*
D14*
X86908682Y-46203529D02*
G75*
G02*
X89125000Y-44325000I2151318J-291471D01*
G01*
D10*
%TO.C,SW15*%
X135992597Y-98947947D02*
X135429681Y-98622947D01*
D11*
X138364359Y-99739935D02*
X136805514Y-98839935D01*
D12*
X135898270Y-97011326D02*
X137838167Y-98131326D01*
D13*
X141685417Y-90687693D02*
X140992116Y-91788526D01*
D14*
X139153848Y-89572501D02*
X141318911Y-90822501D01*
D15*
X139543078Y-91298334D02*
X136193078Y-97100704D01*
D16*
X142001924Y-90639488D02*
X138884232Y-88839488D01*
X141125898Y-90156809D02*
X139177341Y-89031809D01*
X136029200Y-99084550D02*
X136129200Y-98911345D01*
X134768559Y-98068044D02*
X138622372Y-100293044D01*
X135379681Y-98709550D02*
X136029200Y-99084550D01*
X138622372Y-100293044D02*
X140137372Y-97668987D01*
X139601924Y-94796410D02*
X142001924Y-90639488D01*
X138884232Y-88839488D02*
X134784232Y-95940897D01*
D13*
X138549167Y-100019838D02*
X139774167Y-97898076D01*
D17*
X138982437Y-89069392D02*
X138357437Y-90151924D01*
D16*
X140120619Y-97655062D02*
G75*
G02*
X139601924Y-94796410I1328080J1717360D01*
G01*
X135379681Y-98709550D02*
G75*
G02*
X134784232Y-95940897I1086602J1682051D01*
G01*
D14*
X139574209Y-97801472D02*
G75*
G02*
X139055514Y-94942820I1328080J1717360D01*
G01*
D17*
%TO.C,SW22*%
X155482437Y-98619392D02*
X154857437Y-99701924D01*
D13*
X155049167Y-109569838D02*
X156274167Y-107448076D01*
D16*
X155384232Y-98389488D02*
X151284232Y-105490897D01*
X156101924Y-104346410D02*
X158501924Y-100189488D01*
X155122372Y-109843044D02*
X156637372Y-107218987D01*
X151879681Y-108259550D02*
X152529200Y-108634550D01*
X151268559Y-107618044D02*
X155122372Y-109843044D01*
X152529200Y-108634550D02*
X152629200Y-108461345D01*
X157625898Y-99706809D02*
X155677341Y-98581809D01*
X158501924Y-100189488D02*
X155384232Y-98389488D01*
D15*
X156043078Y-100848334D02*
X152693078Y-106650704D01*
D14*
X155653848Y-99122501D02*
X157818911Y-100372501D01*
D13*
X158185417Y-100237693D02*
X157492116Y-101338526D01*
D12*
X152398270Y-106561326D02*
X154338167Y-107681326D01*
D11*
X154864359Y-109289935D02*
X153305514Y-108389935D01*
D10*
X152492597Y-108497947D02*
X151929681Y-108172947D01*
D14*
X156074209Y-107351472D02*
G75*
G02*
X155555514Y-104492820I1328080J1717360D01*
G01*
D16*
X151879681Y-108259550D02*
G75*
G02*
X151284232Y-105490897I1086602J1682051D01*
G01*
X156620619Y-107205062D02*
G75*
G02*
X156101924Y-104346410I1328080J1717360D01*
G01*
%TO.C,D1*%
X155300000Y-44500000D02*
X154300000Y-44500000D01*
X154800000Y-44400000D02*
X155300000Y-43500000D01*
X154300000Y-43500000D02*
X154800000Y-44400000D01*
X155300000Y-43500000D02*
X154300000Y-43500000D01*
X155550000Y-41300000D02*
X154050000Y-41300000D01*
X155550000Y-46700000D02*
X154050000Y-46700000D01*
X155550000Y-41300000D02*
X155550000Y-46700000D01*
X154050000Y-46700000D02*
X154050000Y-41300000D01*
%TO.C,D2*%
X135050000Y-37100000D02*
X135050000Y-31700000D01*
X136550000Y-31700000D02*
X136550000Y-37100000D01*
X136550000Y-37100000D02*
X135050000Y-37100000D01*
X136550000Y-31700000D02*
X135050000Y-31700000D01*
X136300000Y-33900000D02*
X135300000Y-33900000D01*
X135300000Y-33900000D02*
X135800000Y-34800000D01*
X135800000Y-34800000D02*
X136300000Y-33900000D01*
X136300000Y-34900000D02*
X135300000Y-34900000D01*
%TO.C,D3*%
X117300000Y-32000000D02*
X116300000Y-32000000D01*
X116800000Y-31900000D02*
X117300000Y-31000000D01*
X116300000Y-31000000D02*
X116800000Y-31900000D01*
X117300000Y-31000000D02*
X116300000Y-31000000D01*
X117550000Y-28800000D02*
X116050000Y-28800000D01*
X117550000Y-34200000D02*
X116050000Y-34200000D01*
X117550000Y-28800000D02*
X117550000Y-34200000D01*
X116050000Y-34200000D02*
X116050000Y-28800000D01*
%TO.C,D4*%
X98200000Y-29300000D02*
X97200000Y-29300000D01*
X97700000Y-29200000D02*
X98200000Y-28300000D01*
X97200000Y-28300000D02*
X97700000Y-29200000D01*
X98200000Y-28300000D02*
X97200000Y-28300000D01*
X98450000Y-26100000D02*
X96950000Y-26100000D01*
X98450000Y-31500000D02*
X96950000Y-31500000D01*
X98450000Y-26100000D02*
X98450000Y-31500000D01*
X96950000Y-31500000D02*
X96950000Y-26100000D01*
%TO.C,D5*%
X77950000Y-34300000D02*
X77950000Y-28900000D01*
X79450000Y-28900000D02*
X79450000Y-34300000D01*
X79450000Y-34300000D02*
X77950000Y-34300000D01*
X79450000Y-28900000D02*
X77950000Y-28900000D01*
X79200000Y-31100000D02*
X78200000Y-31100000D01*
X78200000Y-31100000D02*
X78700000Y-32000000D01*
X78700000Y-32000000D02*
X79200000Y-31100000D01*
X79200000Y-32100000D02*
X78200000Y-32100000D01*
%TO.C,D6*%
X58850000Y-37200000D02*
X58850000Y-31800000D01*
X60350000Y-31800000D02*
X60350000Y-37200000D01*
X60350000Y-37200000D02*
X58850000Y-37200000D01*
X60350000Y-31800000D02*
X58850000Y-31800000D01*
X60100000Y-34000000D02*
X59100000Y-34000000D01*
X59100000Y-34000000D02*
X59600000Y-34900000D01*
X59600000Y-34900000D02*
X60100000Y-34000000D01*
X60100000Y-35000000D02*
X59100000Y-35000000D01*
%TO.C,D7*%
X41100000Y-37800000D02*
X40100000Y-37800000D01*
X40600000Y-37700000D02*
X41100000Y-36800000D01*
X40100000Y-36800000D02*
X40600000Y-37700000D01*
X41100000Y-36800000D02*
X40100000Y-36800000D01*
X41350000Y-34600000D02*
X39850000Y-34600000D01*
X41350000Y-40000000D02*
X39850000Y-40000000D01*
X41350000Y-34600000D02*
X41350000Y-40000000D01*
X39850000Y-40000000D02*
X39850000Y-34600000D01*
%TO.C,D8*%
X154150000Y-65700000D02*
X154150000Y-60300000D01*
X155650000Y-60300000D02*
X155650000Y-65700000D01*
X155650000Y-65700000D02*
X154150000Y-65700000D01*
X155650000Y-60300000D02*
X154150000Y-60300000D01*
X155400000Y-62500000D02*
X154400000Y-62500000D01*
X154400000Y-62500000D02*
X154900000Y-63400000D01*
X154900000Y-63400000D02*
X155400000Y-62500000D01*
X155400000Y-63500000D02*
X154400000Y-63500000D01*
%TO.C,D9*%
X135050000Y-56200000D02*
X135050000Y-50800000D01*
X136550000Y-50800000D02*
X136550000Y-56200000D01*
X136550000Y-56200000D02*
X135050000Y-56200000D01*
X136550000Y-50800000D02*
X135050000Y-50800000D01*
X136300000Y-53000000D02*
X135300000Y-53000000D01*
X135300000Y-53000000D02*
X135800000Y-53900000D01*
X135800000Y-53900000D02*
X136300000Y-53000000D01*
X136300000Y-54000000D02*
X135300000Y-54000000D01*
%TO.C,D10*%
X116050000Y-53300000D02*
X116050000Y-47900000D01*
X117550000Y-47900000D02*
X117550000Y-53300000D01*
X117550000Y-53300000D02*
X116050000Y-53300000D01*
X117550000Y-47900000D02*
X116050000Y-47900000D01*
X117300000Y-50100000D02*
X116300000Y-50100000D01*
X116300000Y-50100000D02*
X116800000Y-51000000D01*
X116800000Y-51000000D02*
X117300000Y-50100000D01*
X117300000Y-51100000D02*
X116300000Y-51100000D01*
%TO.C,D11*%
X96950000Y-50500000D02*
X96950000Y-45100000D01*
X98450000Y-45100000D02*
X98450000Y-50500000D01*
X98450000Y-50500000D02*
X96950000Y-50500000D01*
X98450000Y-45100000D02*
X96950000Y-45100000D01*
X98200000Y-47300000D02*
X97200000Y-47300000D01*
X97200000Y-47300000D02*
X97700000Y-48200000D01*
X97700000Y-48200000D02*
X98200000Y-47300000D01*
X98200000Y-48300000D02*
X97200000Y-48300000D01*
%TO.C,D12*%
X79200000Y-51100000D02*
X78200000Y-51100000D01*
X78700000Y-51000000D02*
X79200000Y-50100000D01*
X78200000Y-50100000D02*
X78700000Y-51000000D01*
X79200000Y-50100000D02*
X78200000Y-50100000D01*
X79450000Y-47900000D02*
X77950000Y-47900000D01*
X79450000Y-53300000D02*
X77950000Y-53300000D01*
X79450000Y-47900000D02*
X79450000Y-53300000D01*
X77950000Y-53300000D02*
X77950000Y-47900000D01*
%TO.C,D13*%
X60100000Y-53900000D02*
X59100000Y-53900000D01*
X59600000Y-53800000D02*
X60100000Y-52900000D01*
X59100000Y-52900000D02*
X59600000Y-53800000D01*
X60100000Y-52900000D02*
X59100000Y-52900000D01*
X60350000Y-50700000D02*
X58850000Y-50700000D01*
X60350000Y-56100000D02*
X58850000Y-56100000D01*
X60350000Y-50700000D02*
X60350000Y-56100000D01*
X58850000Y-56100000D02*
X58850000Y-50700000D01*
%TO.C,D14*%
X39850000Y-59000000D02*
X39850000Y-53600000D01*
X41350000Y-53600000D02*
X41350000Y-59000000D01*
X41350000Y-59000000D02*
X39850000Y-59000000D01*
X41350000Y-53600000D02*
X39850000Y-53600000D01*
X41100000Y-55800000D02*
X40100000Y-55800000D01*
X40100000Y-55800000D02*
X40600000Y-56700000D01*
X40600000Y-56700000D02*
X41100000Y-55800000D01*
X41100000Y-56800000D02*
X40100000Y-56800000D01*
%TO.C,D15*%
X147083013Y-89116987D02*
X146583013Y-89983013D01*
X146746410Y-89500000D02*
X146216987Y-88616987D01*
X145716987Y-89483013D02*
X146746410Y-89500000D01*
X146216987Y-88616987D02*
X145716987Y-89483013D01*
X144436731Y-87300481D02*
X143686731Y-88599519D01*
X149113269Y-90000481D02*
X148363269Y-91299519D01*
X144436731Y-87300481D02*
X149113269Y-90000481D01*
X148363269Y-91299519D02*
X143686731Y-88599519D01*
%TO.C,D16*%
X136300000Y-73000000D02*
X135300000Y-73000000D01*
X135800000Y-72900000D02*
X136300000Y-72000000D01*
X135300000Y-72000000D02*
X135800000Y-72900000D01*
X136300000Y-72000000D02*
X135300000Y-72000000D01*
X136550000Y-69800000D02*
X135050000Y-69800000D01*
X136550000Y-75200000D02*
X135050000Y-75200000D01*
X136550000Y-69800000D02*
X136550000Y-75200000D01*
X135050000Y-75200000D02*
X135050000Y-69800000D01*
%TO.C,D17*%
X117300000Y-70100000D02*
X116300000Y-70100000D01*
X116800000Y-70000000D02*
X117300000Y-69100000D01*
X116300000Y-69100000D02*
X116800000Y-70000000D01*
X117300000Y-69100000D02*
X116300000Y-69100000D01*
X117550000Y-66900000D02*
X116050000Y-66900000D01*
X117550000Y-72300000D02*
X116050000Y-72300000D01*
X117550000Y-66900000D02*
X117550000Y-72300000D01*
X116050000Y-72300000D02*
X116050000Y-66900000D01*
%TO.C,D18*%
X98200000Y-67300000D02*
X97200000Y-67300000D01*
X97700000Y-67200000D02*
X98200000Y-66300000D01*
X97200000Y-66300000D02*
X97700000Y-67200000D01*
X98200000Y-66300000D02*
X97200000Y-66300000D01*
X98450000Y-64100000D02*
X96950000Y-64100000D01*
X98450000Y-69500000D02*
X96950000Y-69500000D01*
X98450000Y-64100000D02*
X98450000Y-69500000D01*
X96950000Y-69500000D02*
X96950000Y-64100000D01*
%TO.C,D19*%
X77950000Y-72300000D02*
X77950000Y-66900000D01*
X79450000Y-66900000D02*
X79450000Y-72300000D01*
X79450000Y-72300000D02*
X77950000Y-72300000D01*
X79450000Y-66900000D02*
X77950000Y-66900000D01*
X79200000Y-69100000D02*
X78200000Y-69100000D01*
X78200000Y-69100000D02*
X78700000Y-70000000D01*
X78700000Y-70000000D02*
X79200000Y-69100000D01*
X79200000Y-70100000D02*
X78200000Y-70100000D01*
%TO.C,D20*%
X58850000Y-75200000D02*
X58850000Y-69800000D01*
X60350000Y-69800000D02*
X60350000Y-75200000D01*
X60350000Y-75200000D02*
X58850000Y-75200000D01*
X60350000Y-69800000D02*
X58850000Y-69800000D01*
X60100000Y-72000000D02*
X59100000Y-72000000D01*
X59100000Y-72000000D02*
X59600000Y-72900000D01*
X59600000Y-72900000D02*
X60100000Y-72000000D01*
X60100000Y-73000000D02*
X59100000Y-73000000D01*
%TO.C,D21*%
X41100000Y-75900000D02*
X40100000Y-75900000D01*
X40600000Y-75800000D02*
X41100000Y-74900000D01*
X40100000Y-74900000D02*
X40600000Y-75800000D01*
X41100000Y-74900000D02*
X40100000Y-74900000D01*
X41350000Y-72700000D02*
X39850000Y-72700000D01*
X41350000Y-78100000D02*
X39850000Y-78100000D01*
X41350000Y-72700000D02*
X41350000Y-78100000D01*
X39850000Y-78100000D02*
X39850000Y-72700000D01*
%TO.C,D22*%
X164763269Y-100799519D02*
X160086731Y-98099519D01*
X160836731Y-96800481D02*
X165513269Y-99500481D01*
X165513269Y-99500481D02*
X164763269Y-100799519D01*
X160836731Y-96800481D02*
X160086731Y-98099519D01*
X162616987Y-98116987D02*
X162116987Y-98983013D01*
X162116987Y-98983013D02*
X163146410Y-99000000D01*
X163146410Y-99000000D02*
X162616987Y-98116987D01*
X163483013Y-98616987D02*
X162983013Y-99483013D01*
%TO.C,D23*%
X126676744Y-96813885D02*
X128074367Y-91597886D01*
X129523256Y-91986115D02*
X128125633Y-97202114D01*
X128125633Y-97202114D02*
X126676744Y-96813885D01*
X129523256Y-91986115D02*
X128074367Y-91597886D01*
X128712372Y-94046447D02*
X127746447Y-93787628D01*
X127746447Y-93787628D02*
X127996472Y-94786370D01*
X127996472Y-94786370D02*
X128712372Y-94046447D01*
X128453553Y-95012372D02*
X127487628Y-94753553D01*
%TO.C,D24*%
X106550000Y-91400000D02*
X106550000Y-86000000D01*
X108050000Y-86000000D02*
X108050000Y-91400000D01*
X108050000Y-91400000D02*
X106550000Y-91400000D01*
X108050000Y-86000000D02*
X106550000Y-86000000D01*
X107800000Y-88200000D02*
X106800000Y-88200000D01*
X106800000Y-88200000D02*
X107300000Y-89100000D01*
X107300000Y-89100000D02*
X107800000Y-88200000D01*
X107800000Y-89200000D02*
X106800000Y-89200000D01*
%TO.C,D25*%
X87450000Y-91400000D02*
X87450000Y-86000000D01*
X88950000Y-86000000D02*
X88950000Y-91400000D01*
X88950000Y-91400000D02*
X87450000Y-91400000D01*
X88950000Y-86000000D02*
X87450000Y-86000000D01*
X88700000Y-88200000D02*
X87700000Y-88200000D01*
X87700000Y-88200000D02*
X88200000Y-89100000D01*
X88200000Y-89100000D02*
X88700000Y-88200000D01*
X88700000Y-89200000D02*
X87700000Y-89200000D01*
%TO.C,D26*%
X219200000Y-46750000D02*
X219200000Y-41350000D01*
X220700000Y-41350000D02*
X220700000Y-46750000D01*
X220700000Y-46750000D02*
X219200000Y-46750000D01*
X220700000Y-41350000D02*
X219200000Y-41350000D01*
X220450000Y-43550000D02*
X219450000Y-43550000D01*
X219450000Y-43550000D02*
X219950000Y-44450000D01*
X219950000Y-44450000D02*
X220450000Y-43550000D01*
X220450000Y-44550000D02*
X219450000Y-44550000D01*
%TO.C,D27*%
X239500000Y-35000000D02*
X238500000Y-35000000D01*
X239000000Y-34900000D02*
X239500000Y-34000000D01*
X238500000Y-34000000D02*
X239000000Y-34900000D01*
X239500000Y-34000000D02*
X238500000Y-34000000D01*
X239750000Y-31800000D02*
X238250000Y-31800000D01*
X239750000Y-37200000D02*
X238250000Y-37200000D01*
X239750000Y-31800000D02*
X239750000Y-37200000D01*
X238250000Y-37200000D02*
X238250000Y-31800000D01*
%TO.C,D28*%
X258550000Y-32150000D02*
X257550000Y-32150000D01*
X258050000Y-32050000D02*
X258550000Y-31150000D01*
X257550000Y-31150000D02*
X258050000Y-32050000D01*
X258550000Y-31150000D02*
X257550000Y-31150000D01*
X258800000Y-28950000D02*
X257300000Y-28950000D01*
X258800000Y-34350000D02*
X257300000Y-34350000D01*
X258800000Y-28950000D02*
X258800000Y-34350000D01*
X257300000Y-34350000D02*
X257300000Y-28950000D01*
%TO.C,D29*%
X277600000Y-29300000D02*
X276600000Y-29300000D01*
X277100000Y-29200000D02*
X277600000Y-28300000D01*
X276600000Y-28300000D02*
X277100000Y-29200000D01*
X277600000Y-28300000D02*
X276600000Y-28300000D01*
X277850000Y-26100000D02*
X276350000Y-26100000D01*
X277850000Y-31500000D02*
X276350000Y-31500000D01*
X277850000Y-26100000D02*
X277850000Y-31500000D01*
X276350000Y-31500000D02*
X276350000Y-26100000D01*
%TO.C,D30*%
X296650000Y-32150000D02*
X295650000Y-32150000D01*
X296150000Y-32050000D02*
X296650000Y-31150000D01*
X295650000Y-31150000D02*
X296150000Y-32050000D01*
X296650000Y-31150000D02*
X295650000Y-31150000D01*
X296900000Y-28950000D02*
X295400000Y-28950000D01*
X296900000Y-34350000D02*
X295400000Y-34350000D01*
X296900000Y-28950000D02*
X296900000Y-34350000D01*
X295400000Y-34350000D02*
X295400000Y-28950000D01*
%TO.C,D31*%
X314450000Y-37200000D02*
X314450000Y-31800000D01*
X315950000Y-31800000D02*
X315950000Y-37200000D01*
X315950000Y-37200000D02*
X314450000Y-37200000D01*
X315950000Y-31800000D02*
X314450000Y-31800000D01*
X315700000Y-34000000D02*
X314700000Y-34000000D01*
X314700000Y-34000000D02*
X315200000Y-34900000D01*
X315200000Y-34900000D02*
X315700000Y-34000000D01*
X315700000Y-35000000D02*
X314700000Y-35000000D01*
%TO.C,D32*%
X334750000Y-37850000D02*
X333750000Y-37850000D01*
X334250000Y-37750000D02*
X334750000Y-36850000D01*
X333750000Y-36850000D02*
X334250000Y-37750000D01*
X334750000Y-36850000D02*
X333750000Y-36850000D01*
X335000000Y-34650000D02*
X333500000Y-34650000D01*
X335000000Y-40050000D02*
X333500000Y-40050000D01*
X335000000Y-34650000D02*
X335000000Y-40050000D01*
X333500000Y-40050000D02*
X333500000Y-34650000D01*
%TO.C,D33*%
X219200000Y-65750000D02*
X219200000Y-60350000D01*
X220700000Y-60350000D02*
X220700000Y-65750000D01*
X220700000Y-65750000D02*
X219200000Y-65750000D01*
X220700000Y-60350000D02*
X219200000Y-60350000D01*
X220450000Y-62550000D02*
X219450000Y-62550000D01*
X219450000Y-62550000D02*
X219950000Y-63450000D01*
X219950000Y-63450000D02*
X220450000Y-62550000D01*
X220450000Y-63550000D02*
X219450000Y-63550000D01*
%TO.C,D34*%
X238250000Y-56250000D02*
X238250000Y-50850000D01*
X239750000Y-50850000D02*
X239750000Y-56250000D01*
X239750000Y-56250000D02*
X238250000Y-56250000D01*
X239750000Y-50850000D02*
X238250000Y-50850000D01*
X239500000Y-53050000D02*
X238500000Y-53050000D01*
X238500000Y-53050000D02*
X239000000Y-53950000D01*
X239000000Y-53950000D02*
X239500000Y-53050000D01*
X239500000Y-54050000D02*
X238500000Y-54050000D01*
%TO.C,D35*%
X257300000Y-53400000D02*
X257300000Y-48000000D01*
X258800000Y-48000000D02*
X258800000Y-53400000D01*
X258800000Y-53400000D02*
X257300000Y-53400000D01*
X258800000Y-48000000D02*
X257300000Y-48000000D01*
X258550000Y-50200000D02*
X257550000Y-50200000D01*
X257550000Y-50200000D02*
X258050000Y-51100000D01*
X258050000Y-51100000D02*
X258550000Y-50200000D01*
X258550000Y-51200000D02*
X257550000Y-51200000D01*
%TO.C,D36*%
X277600000Y-48300000D02*
X276600000Y-48300000D01*
X277100000Y-48200000D02*
X277600000Y-47300000D01*
X276600000Y-47300000D02*
X277100000Y-48200000D01*
X277600000Y-47300000D02*
X276600000Y-47300000D01*
X277850000Y-45100000D02*
X276350000Y-45100000D01*
X277850000Y-50500000D02*
X276350000Y-50500000D01*
X277850000Y-45100000D02*
X277850000Y-50500000D01*
X276350000Y-50500000D02*
X276350000Y-45100000D01*
%TO.C,D37*%
X296650000Y-51200000D02*
X295650000Y-51200000D01*
X296150000Y-51100000D02*
X296650000Y-50200000D01*
X295650000Y-50200000D02*
X296150000Y-51100000D01*
X296650000Y-50200000D02*
X295650000Y-50200000D01*
X296900000Y-48000000D02*
X295400000Y-48000000D01*
X296900000Y-53400000D02*
X295400000Y-53400000D01*
X296900000Y-48000000D02*
X296900000Y-53400000D01*
X295400000Y-53400000D02*
X295400000Y-48000000D01*
%TO.C,D38*%
X314450000Y-56250000D02*
X314450000Y-50850000D01*
X315950000Y-50850000D02*
X315950000Y-56250000D01*
X315950000Y-56250000D02*
X314450000Y-56250000D01*
X315950000Y-50850000D02*
X314450000Y-50850000D01*
X315700000Y-53050000D02*
X314700000Y-53050000D01*
X314700000Y-53050000D02*
X315200000Y-53950000D01*
X315200000Y-53950000D02*
X315700000Y-53050000D01*
X315700000Y-54050000D02*
X314700000Y-54050000D01*
%TO.C,D39*%
X333500000Y-59100000D02*
X333500000Y-53700000D01*
X335000000Y-53700000D02*
X335000000Y-59100000D01*
X335000000Y-59100000D02*
X333500000Y-59100000D01*
X335000000Y-53700000D02*
X333500000Y-53700000D01*
X334750000Y-55900000D02*
X333750000Y-55900000D01*
X333750000Y-55900000D02*
X334250000Y-56800000D01*
X334250000Y-56800000D02*
X334750000Y-55900000D01*
X334750000Y-56900000D02*
X333750000Y-56900000D01*
%TO.C,D40*%
X220616987Y-103483013D02*
X220116987Y-102616987D01*
X220453590Y-103000000D02*
X221483013Y-102983013D01*
X220983013Y-102116987D02*
X220453590Y-103000000D01*
X221483013Y-102983013D02*
X220983013Y-102116987D01*
X223513269Y-102099519D02*
X222763269Y-100800481D01*
X218836731Y-104799519D02*
X218086731Y-103500481D01*
X223513269Y-102099519D02*
X218836731Y-104799519D01*
X218086731Y-103500481D02*
X222763269Y-100800481D01*
%TO.C,D41*%
X239500000Y-73100000D02*
X238500000Y-73100000D01*
X239000000Y-73000000D02*
X239500000Y-72100000D01*
X238500000Y-72100000D02*
X239000000Y-73000000D01*
X239500000Y-72100000D02*
X238500000Y-72100000D01*
X239750000Y-69900000D02*
X238250000Y-69900000D01*
X239750000Y-75300000D02*
X238250000Y-75300000D01*
X239750000Y-69900000D02*
X239750000Y-75300000D01*
X238250000Y-75300000D02*
X238250000Y-69900000D01*
%TO.C,D42*%
X258550000Y-70250000D02*
X257550000Y-70250000D01*
X258050000Y-70150000D02*
X258550000Y-69250000D01*
X257550000Y-69250000D02*
X258050000Y-70150000D01*
X258550000Y-69250000D02*
X257550000Y-69250000D01*
X258800000Y-67050000D02*
X257300000Y-67050000D01*
X258800000Y-72450000D02*
X257300000Y-72450000D01*
X258800000Y-67050000D02*
X258800000Y-72450000D01*
X257300000Y-72450000D02*
X257300000Y-67050000D01*
%TO.C,D43*%
X276350000Y-69600000D02*
X276350000Y-64200000D01*
X277850000Y-64200000D02*
X277850000Y-69600000D01*
X277850000Y-69600000D02*
X276350000Y-69600000D01*
X277850000Y-64200000D02*
X276350000Y-64200000D01*
X277600000Y-66400000D02*
X276600000Y-66400000D01*
X276600000Y-66400000D02*
X277100000Y-67300000D01*
X277100000Y-67300000D02*
X277600000Y-66400000D01*
X277600000Y-67400000D02*
X276600000Y-67400000D01*
%TO.C,D44*%
X296650000Y-70250000D02*
X295650000Y-70250000D01*
X296150000Y-70150000D02*
X296650000Y-69250000D01*
X295650000Y-69250000D02*
X296150000Y-70150000D01*
X296650000Y-69250000D02*
X295650000Y-69250000D01*
X296900000Y-67050000D02*
X295400000Y-67050000D01*
X296900000Y-72450000D02*
X295400000Y-72450000D01*
X296900000Y-67050000D02*
X296900000Y-72450000D01*
X295400000Y-72450000D02*
X295400000Y-67050000D01*
%TO.C,D45*%
X315700000Y-73100000D02*
X314700000Y-73100000D01*
X315200000Y-73000000D02*
X315700000Y-72100000D01*
X314700000Y-72100000D02*
X315200000Y-73000000D01*
X315700000Y-72100000D02*
X314700000Y-72100000D01*
X315950000Y-69900000D02*
X314450000Y-69900000D01*
X315950000Y-75300000D02*
X314450000Y-75300000D01*
X315950000Y-69900000D02*
X315950000Y-75300000D01*
X314450000Y-75300000D02*
X314450000Y-69900000D01*
%TO.C,D46*%
X334750000Y-75950000D02*
X333750000Y-75950000D01*
X334250000Y-75850000D02*
X334750000Y-74950000D01*
X333750000Y-74950000D02*
X334250000Y-75850000D01*
X334750000Y-74950000D02*
X333750000Y-74950000D01*
X335000000Y-72750000D02*
X333500000Y-72750000D01*
X335000000Y-78150000D02*
X333500000Y-78150000D01*
X335000000Y-72750000D02*
X335000000Y-78150000D01*
X333500000Y-78150000D02*
X333500000Y-72750000D01*
%TO.C,D47*%
X201486731Y-113100481D02*
X206163269Y-110400481D01*
X206913269Y-111699519D02*
X202236731Y-114399519D01*
X202236731Y-114399519D02*
X201486731Y-113100481D01*
X206913269Y-111699519D02*
X206163269Y-110400481D01*
X204883013Y-112583013D02*
X204383013Y-111716987D01*
X204383013Y-111716987D02*
X203853590Y-112600000D01*
X203853590Y-112600000D02*
X204883013Y-112583013D01*
X204016987Y-113083013D02*
X203516987Y-112216987D01*
%TO.C,D48*%
X246174367Y-93252114D02*
X244776744Y-88036115D01*
X246225633Y-87647886D02*
X247623256Y-92863885D01*
X247623256Y-92863885D02*
X246174367Y-93252114D01*
X246225633Y-87647886D02*
X244776744Y-88036115D01*
X246553553Y-89837628D02*
X245587628Y-90096447D01*
X245587628Y-90096447D02*
X246303528Y-90836370D01*
X246303528Y-90836370D02*
X246553553Y-89837628D01*
X246812372Y-90803553D02*
X245846447Y-91062372D01*
%TO.C,D49*%
X266850000Y-91500000D02*
X266850000Y-86100000D01*
X268350000Y-86100000D02*
X268350000Y-91500000D01*
X268350000Y-91500000D02*
X266850000Y-91500000D01*
X268350000Y-86100000D02*
X266850000Y-86100000D01*
X268100000Y-88300000D02*
X267100000Y-88300000D01*
X267100000Y-88300000D02*
X267600000Y-89200000D01*
X267600000Y-89200000D02*
X268100000Y-88300000D01*
X268100000Y-89300000D02*
X267100000Y-89300000D01*
%TO.C,D50*%
X287150000Y-89300000D02*
X286150000Y-89300000D01*
X286650000Y-89200000D02*
X287150000Y-88300000D01*
X286150000Y-88300000D02*
X286650000Y-89200000D01*
X287150000Y-88300000D02*
X286150000Y-88300000D01*
X287400000Y-86100000D02*
X285900000Y-86100000D01*
X287400000Y-91500000D02*
X285900000Y-91500000D01*
X287400000Y-86100000D02*
X287400000Y-91500000D01*
X285900000Y-91500000D02*
X285900000Y-86100000D01*
D10*
%TO.C,SW1*%
X141300000Y-39900000D02*
X141300000Y-39250000D01*
D11*
X141800000Y-42350000D02*
X141800000Y-40550001D01*
D12*
X142930000Y-38850000D02*
X142930000Y-41090000D01*
D13*
X151300000Y-40700000D02*
X150000000Y-40650000D01*
D14*
X151000000Y-37950000D02*
X151000000Y-40450000D01*
D15*
X149700000Y-39150000D02*
X143000000Y-39150000D01*
D16*
X151500000Y-40950000D02*
X151500000Y-37350000D01*
X151480000Y-39950000D02*
X151480000Y-37700000D01*
X141200000Y-40000000D02*
X141400000Y-40000000D01*
X141450000Y-38400000D02*
X141450000Y-42850000D01*
X141200000Y-39250000D02*
X141200000Y-40000000D01*
X141450000Y-42850000D02*
X144480000Y-42850000D01*
X146700000Y-40950000D02*
X151500000Y-40950000D01*
X151500000Y-37350000D02*
X143299999Y-37350000D01*
D13*
X141650000Y-42650000D02*
X144100000Y-42650000D01*
D17*
X151350000Y-37550000D02*
X150100000Y-37550000D01*
D16*
X144483682Y-42828529D02*
G75*
G02*
X146700000Y-40950000I2151318J-291471D01*
G01*
X141200000Y-39250001D02*
G75*
G02*
X143299999Y-37350000I2000000J-99999D01*
G01*
D14*
X144083682Y-42428529D02*
G75*
G02*
X146300000Y-40550000I2151318J-291471D01*
G01*
D10*
%TO.C,SW2*%
X122250000Y-30350000D02*
X122250000Y-29700000D01*
D11*
X122750000Y-32800000D02*
X122750000Y-31000001D01*
D12*
X123880000Y-29300000D02*
X123880000Y-31540000D01*
D13*
X132250000Y-31150000D02*
X130950000Y-31100000D01*
D14*
X131950000Y-28400000D02*
X131950000Y-30900000D01*
D15*
X130650000Y-29600000D02*
X123950000Y-29600000D01*
D16*
X132450000Y-31400000D02*
X132450000Y-27800000D01*
X132430000Y-30400000D02*
X132430000Y-28150000D01*
X122150000Y-30450000D02*
X122350000Y-30450000D01*
X122400000Y-28850000D02*
X122400000Y-33300000D01*
X122150000Y-29700000D02*
X122150000Y-30450000D01*
X122400000Y-33300000D02*
X125430000Y-33300000D01*
X127650000Y-31400000D02*
X132450000Y-31400000D01*
X132450000Y-27800000D02*
X124249999Y-27800000D01*
D13*
X122600000Y-33100000D02*
X125050000Y-33100000D01*
D17*
X132300000Y-28000000D02*
X131050000Y-28000000D01*
D16*
X125433682Y-33278529D02*
G75*
G02*
X127650000Y-31400000I2151318J-291471D01*
G01*
X122150000Y-29700001D02*
G75*
G02*
X124249999Y-27800000I2000000J-99999D01*
G01*
D14*
X125033682Y-32878529D02*
G75*
G02*
X127250000Y-31000000I2151318J-291471D01*
G01*
D17*
%TO.C,SW3*%
X113250000Y-25150000D02*
X112000000Y-25150000D01*
D13*
X103550000Y-30250000D02*
X106000000Y-30250000D01*
D16*
X113400000Y-24950000D02*
X105199999Y-24950000D01*
X108600000Y-28550000D02*
X113400000Y-28550000D01*
X103350000Y-30450000D02*
X106380000Y-30450000D01*
X103100000Y-26850000D02*
X103100000Y-27600000D01*
X103350000Y-26000000D02*
X103350000Y-30450000D01*
X103100000Y-27600000D02*
X103300000Y-27600000D01*
X113380000Y-27550000D02*
X113380000Y-25300000D01*
X113400000Y-28550000D02*
X113400000Y-24950000D01*
D15*
X111600000Y-26750000D02*
X104900000Y-26750000D01*
D14*
X112900000Y-25550000D02*
X112900000Y-28050000D01*
D13*
X113200000Y-28300000D02*
X111900000Y-28250000D01*
D12*
X104830000Y-26450000D02*
X104830000Y-28690000D01*
D11*
X103700000Y-29950000D02*
X103700000Y-28150001D01*
D10*
X103200000Y-27500000D02*
X103200000Y-26850000D01*
D14*
X105983682Y-30028529D02*
G75*
G02*
X108200000Y-28150000I2151318J-291471D01*
G01*
D16*
X103100000Y-26850001D02*
G75*
G02*
X105199999Y-24950000I2000000J-99999D01*
G01*
X106383682Y-30428529D02*
G75*
G02*
X108600000Y-28550000I2151318J-291471D01*
G01*
D17*
%TO.C,SW4*%
X94200000Y-22300000D02*
X92950000Y-22300000D01*
D13*
X84500000Y-27400000D02*
X86950000Y-27400000D01*
D16*
X94350000Y-22100000D02*
X86149999Y-22100000D01*
X89550000Y-25700000D02*
X94350000Y-25700000D01*
X84300000Y-27600000D02*
X87330000Y-27600000D01*
X84050000Y-24000000D02*
X84050000Y-24750000D01*
X84300000Y-23150000D02*
X84300000Y-27600000D01*
X84050000Y-24750000D02*
X84250000Y-24750000D01*
X94330000Y-24700000D02*
X94330000Y-22450000D01*
X94350000Y-25700000D02*
X94350000Y-22100000D01*
D15*
X92550000Y-23900000D02*
X85850000Y-23900000D01*
D14*
X93850000Y-22700000D02*
X93850000Y-25200000D01*
D13*
X94150000Y-25450000D02*
X92850000Y-25400000D01*
D12*
X85780000Y-23600000D02*
X85780000Y-25840000D01*
D11*
X84650000Y-27100000D02*
X84650000Y-25300001D01*
D10*
X84150000Y-24650000D02*
X84150000Y-24000000D01*
D14*
X86933682Y-27178529D02*
G75*
G02*
X89150000Y-25300000I2151318J-291471D01*
G01*
D16*
X84050000Y-24000001D02*
G75*
G02*
X86149999Y-22100000I2000000J-99999D01*
G01*
X87333682Y-27578529D02*
G75*
G02*
X89550000Y-25700000I2151318J-291471D01*
G01*
D10*
%TO.C,SW5*%
X65100000Y-27500000D02*
X65100000Y-26850000D01*
D11*
X65600000Y-29950000D02*
X65600000Y-28150001D01*
D12*
X66730000Y-26450000D02*
X66730000Y-28690000D01*
D13*
X75100000Y-28300000D02*
X73800000Y-28250000D01*
D14*
X74800000Y-25550000D02*
X74800000Y-28050000D01*
D15*
X73500000Y-26750000D02*
X66800000Y-26750000D01*
D16*
X75300000Y-28550000D02*
X75300000Y-24950000D01*
X75280000Y-27550000D02*
X75280000Y-25300000D01*
X65000000Y-27600000D02*
X65200000Y-27600000D01*
X65250000Y-26000000D02*
X65250000Y-30450000D01*
X65000000Y-26850000D02*
X65000000Y-27600000D01*
X65250000Y-30450000D02*
X68280000Y-30450000D01*
X70500000Y-28550000D02*
X75300000Y-28550000D01*
X75300000Y-24950000D02*
X67099999Y-24950000D01*
D13*
X65450000Y-30250000D02*
X67900000Y-30250000D01*
D17*
X75150000Y-25150000D02*
X73900000Y-25150000D01*
D16*
X68283682Y-30428529D02*
G75*
G02*
X70500000Y-28550000I2151318J-291471D01*
G01*
X65000000Y-26850001D02*
G75*
G02*
X67099999Y-24950000I2000000J-99999D01*
G01*
D14*
X67883682Y-30028529D02*
G75*
G02*
X70100000Y-28150000I2151318J-291471D01*
G01*
D10*
%TO.C,SW6*%
X46050000Y-30350000D02*
X46050000Y-29700000D01*
D11*
X46550000Y-32800000D02*
X46550000Y-31000001D01*
D12*
X47680000Y-29300000D02*
X47680000Y-31540000D01*
D13*
X56050000Y-31150000D02*
X54750000Y-31100000D01*
D14*
X55750000Y-28400000D02*
X55750000Y-30900000D01*
D15*
X54450000Y-29600000D02*
X47750000Y-29600000D01*
D16*
X56250000Y-31400000D02*
X56250000Y-27800000D01*
X56230000Y-30400000D02*
X56230000Y-28150000D01*
X45950000Y-30450000D02*
X46150000Y-30450000D01*
X46200000Y-28850000D02*
X46200000Y-33300000D01*
X45950000Y-29700000D02*
X45950000Y-30450000D01*
X46200000Y-33300000D02*
X49230000Y-33300000D01*
X51450000Y-31400000D02*
X56250000Y-31400000D01*
X56250000Y-27800000D02*
X48049999Y-27800000D01*
D13*
X46400000Y-33100000D02*
X48850000Y-33100000D01*
D17*
X56100000Y-28000000D02*
X54850000Y-28000000D01*
D16*
X49233682Y-33278529D02*
G75*
G02*
X51450000Y-31400000I2151318J-291471D01*
G01*
X45950000Y-29700001D02*
G75*
G02*
X48049999Y-27800000I2000000J-99999D01*
G01*
D14*
X48833682Y-32878529D02*
G75*
G02*
X51050000Y-31000000I2151318J-291471D01*
G01*
D10*
%TO.C,SW7*%
X27000000Y-33200000D02*
X27000000Y-32550000D01*
D11*
X27500000Y-35650000D02*
X27500000Y-33850001D01*
D12*
X28630000Y-32150000D02*
X28630000Y-34390000D01*
D13*
X37000000Y-34000000D02*
X35700000Y-33950000D01*
D14*
X36700000Y-31250000D02*
X36700000Y-33750000D01*
D15*
X35400000Y-32450000D02*
X28700000Y-32450000D01*
D16*
X37200000Y-34250000D02*
X37200000Y-30650000D01*
X37180000Y-33250000D02*
X37180000Y-31000000D01*
X26900000Y-33300000D02*
X27100000Y-33300000D01*
X27150000Y-31700000D02*
X27150000Y-36150000D01*
X26900000Y-32550000D02*
X26900000Y-33300000D01*
X27150000Y-36150000D02*
X30180000Y-36150000D01*
X32400000Y-34250000D02*
X37200000Y-34250000D01*
X37200000Y-30650000D02*
X28999999Y-30650000D01*
D13*
X27350000Y-35950000D02*
X29800000Y-35950000D01*
D17*
X37050000Y-30850000D02*
X35800000Y-30850000D01*
D16*
X30183682Y-36128529D02*
G75*
G02*
X32400000Y-34250000I2151318J-291471D01*
G01*
X26900000Y-32550001D02*
G75*
G02*
X28999999Y-30650000I2000000J-99999D01*
G01*
D14*
X29783682Y-35728529D02*
G75*
G02*
X32000000Y-33850000I2151318J-291471D01*
G01*
D17*
%TO.C,SW8*%
X151350000Y-56600000D02*
X150100000Y-56600000D01*
D13*
X141650000Y-61700000D02*
X144100000Y-61700000D01*
D16*
X151500000Y-56400000D02*
X143299999Y-56400000D01*
X146700000Y-60000000D02*
X151500000Y-60000000D01*
X141450000Y-61900000D02*
X144480000Y-61900000D01*
X141200000Y-58300000D02*
X141200000Y-59050000D01*
X141450000Y-57450000D02*
X141450000Y-61900000D01*
X141200000Y-59050000D02*
X141400000Y-59050000D01*
X151480000Y-59000000D02*
X151480000Y-56750000D01*
X151500000Y-60000000D02*
X151500000Y-56400000D01*
D15*
X149700000Y-58200000D02*
X143000000Y-58200000D01*
D14*
X151000000Y-57000000D02*
X151000000Y-59500000D01*
D13*
X151300000Y-59750000D02*
X150000000Y-59700000D01*
D12*
X142930000Y-57900000D02*
X142930000Y-60140000D01*
D11*
X141800000Y-61400000D02*
X141800000Y-59600001D01*
D10*
X141300000Y-58950000D02*
X141300000Y-58300000D01*
D14*
X144083682Y-61478529D02*
G75*
G02*
X146300000Y-59600000I2151318J-291471D01*
G01*
D16*
X141200000Y-58300001D02*
G75*
G02*
X143299999Y-56400000I2000000J-99999D01*
G01*
X144483682Y-61878529D02*
G75*
G02*
X146700000Y-60000000I2151318J-291471D01*
G01*
D10*
%TO.C,SW9*%
X122250000Y-49400000D02*
X122250000Y-48750000D01*
D11*
X122750000Y-51850000D02*
X122750000Y-50050001D01*
D12*
X123880000Y-48350000D02*
X123880000Y-50590000D01*
D13*
X132250000Y-50200000D02*
X130950000Y-50150000D01*
D14*
X131950000Y-47450000D02*
X131950000Y-49950000D01*
D15*
X130650000Y-48650000D02*
X123950000Y-48650000D01*
D16*
X132450000Y-50450000D02*
X132450000Y-46850000D01*
X132430000Y-49450000D02*
X132430000Y-47200000D01*
X122150000Y-49500000D02*
X122350000Y-49500000D01*
X122400000Y-47900000D02*
X122400000Y-52350000D01*
X122150000Y-48750000D02*
X122150000Y-49500000D01*
X122400000Y-52350000D02*
X125430000Y-52350000D01*
X127650000Y-50450000D02*
X132450000Y-50450000D01*
X132450000Y-46850000D02*
X124249999Y-46850000D01*
D13*
X122600000Y-52150000D02*
X125050000Y-52150000D01*
D17*
X132300000Y-47050000D02*
X131050000Y-47050000D01*
D16*
X125433682Y-52328529D02*
G75*
G02*
X127650000Y-50450000I2151318J-291471D01*
G01*
X122150000Y-48750001D02*
G75*
G02*
X124249999Y-46850000I2000000J-99999D01*
G01*
D14*
X125033682Y-51928529D02*
G75*
G02*
X127250000Y-50050000I2151318J-291471D01*
G01*
D10*
%TO.C,SW10*%
X103200000Y-46550000D02*
X103200000Y-45900000D01*
D11*
X103700000Y-49000000D02*
X103700000Y-47200001D01*
D12*
X104830000Y-45500000D02*
X104830000Y-47740000D01*
D13*
X113200000Y-47350000D02*
X111900000Y-47300000D01*
D14*
X112900000Y-44600000D02*
X112900000Y-47100000D01*
D15*
X111600000Y-45800000D02*
X104900000Y-45800000D01*
D16*
X113400000Y-47600000D02*
X113400000Y-44000000D01*
X113380000Y-46600000D02*
X113380000Y-44350000D01*
X103100000Y-46650000D02*
X103300000Y-46650000D01*
X103350000Y-45050000D02*
X103350000Y-49500000D01*
X103100000Y-45900000D02*
X103100000Y-46650000D01*
X103350000Y-49500000D02*
X106380000Y-49500000D01*
X108600000Y-47600000D02*
X113400000Y-47600000D01*
X113400000Y-44000000D02*
X105199999Y-44000000D01*
D13*
X103550000Y-49300000D02*
X106000000Y-49300000D01*
D17*
X113250000Y-44200000D02*
X112000000Y-44200000D01*
D16*
X106383682Y-49478529D02*
G75*
G02*
X108600000Y-47600000I2151318J-291471D01*
G01*
X103100000Y-45900001D02*
G75*
G02*
X105199999Y-44000000I2000000J-99999D01*
G01*
D14*
X105983682Y-49078529D02*
G75*
G02*
X108200000Y-47200000I2151318J-291471D01*
G01*
D10*
%TO.C,SW12*%
X65125000Y-46550000D02*
X65125000Y-45900000D01*
D11*
X65625000Y-49000000D02*
X65625000Y-47200001D01*
D12*
X66755000Y-45500000D02*
X66755000Y-47740000D01*
D13*
X75125000Y-47350000D02*
X73825000Y-47300000D01*
D14*
X74825000Y-44600000D02*
X74825000Y-47100000D01*
D15*
X73525000Y-45800000D02*
X66825000Y-45800000D01*
D16*
X75325000Y-47600000D02*
X75325000Y-44000000D01*
X75305000Y-46600000D02*
X75305000Y-44350000D01*
X65025000Y-46650000D02*
X65225000Y-46650000D01*
X65275000Y-45050000D02*
X65275000Y-49500000D01*
X65025000Y-45900000D02*
X65025000Y-46650000D01*
X65275000Y-49500000D02*
X68305000Y-49500000D01*
X70525000Y-47600000D02*
X75325000Y-47600000D01*
X75325000Y-44000000D02*
X67124999Y-44000000D01*
D13*
X65475000Y-49300000D02*
X67925000Y-49300000D01*
D17*
X75175000Y-44200000D02*
X73925000Y-44200000D01*
D16*
X68308682Y-49478529D02*
G75*
G02*
X70525000Y-47600000I2151318J-291471D01*
G01*
X65025000Y-45900001D02*
G75*
G02*
X67124999Y-44000000I2000000J-99999D01*
G01*
D14*
X67908682Y-49078529D02*
G75*
G02*
X70125000Y-47200000I2151318J-291471D01*
G01*
D17*
%TO.C,SW13*%
X56100000Y-47050000D02*
X54850000Y-47050000D01*
D13*
X46400000Y-52150000D02*
X48850000Y-52150000D01*
D16*
X56250000Y-46850000D02*
X48049999Y-46850000D01*
X51450000Y-50450000D02*
X56250000Y-50450000D01*
X46200000Y-52350000D02*
X49230000Y-52350000D01*
X45950000Y-48750000D02*
X45950000Y-49500000D01*
X46200000Y-47900000D02*
X46200000Y-52350000D01*
X45950000Y-49500000D02*
X46150000Y-49500000D01*
X56230000Y-49450000D02*
X56230000Y-47200000D01*
X56250000Y-50450000D02*
X56250000Y-46850000D01*
D15*
X54450000Y-48650000D02*
X47750000Y-48650000D01*
D14*
X55750000Y-47450000D02*
X55750000Y-49950000D01*
D13*
X56050000Y-50200000D02*
X54750000Y-50150000D01*
D12*
X47680000Y-48350000D02*
X47680000Y-50590000D01*
D11*
X46550000Y-51850000D02*
X46550000Y-50050001D01*
D10*
X46050000Y-49400000D02*
X46050000Y-48750000D01*
D14*
X48833682Y-51928529D02*
G75*
G02*
X51050000Y-50050000I2151318J-291471D01*
G01*
D16*
X45950000Y-48750001D02*
G75*
G02*
X48049999Y-46850000I2000000J-99999D01*
G01*
X49233682Y-52328529D02*
G75*
G02*
X51450000Y-50450000I2151318J-291471D01*
G01*
D10*
%TO.C,SW14*%
X27000000Y-52250000D02*
X27000000Y-51600000D01*
D11*
X27500000Y-54700000D02*
X27500000Y-52900001D01*
D12*
X28630000Y-51200000D02*
X28630000Y-53440000D01*
D13*
X37000000Y-53050000D02*
X35700000Y-53000000D01*
D14*
X36700000Y-50300000D02*
X36700000Y-52800000D01*
D15*
X35400000Y-51500000D02*
X28700000Y-51500000D01*
D16*
X37200000Y-53300000D02*
X37200000Y-49700000D01*
X37180000Y-52300000D02*
X37180000Y-50050000D01*
X26900000Y-52350000D02*
X27100000Y-52350000D01*
X27150000Y-50750000D02*
X27150000Y-55200000D01*
X26900000Y-51600000D02*
X26900000Y-52350000D01*
X27150000Y-55200000D02*
X30180000Y-55200000D01*
X32400000Y-53300000D02*
X37200000Y-53300000D01*
X37200000Y-49700000D02*
X28999999Y-49700000D01*
D13*
X27350000Y-55000000D02*
X29800000Y-55000000D01*
D17*
X37050000Y-49900000D02*
X35800000Y-49900000D01*
D16*
X30183682Y-55178529D02*
G75*
G02*
X32400000Y-53300000I2151318J-291471D01*
G01*
X26900000Y-51600001D02*
G75*
G02*
X28999999Y-49700000I2000000J-99999D01*
G01*
D14*
X29783682Y-54778529D02*
G75*
G02*
X32000000Y-52900000I2151318J-291471D01*
G01*
D17*
%TO.C,SW16*%
X132300000Y-66075000D02*
X131050000Y-66075000D01*
D13*
X122600000Y-71175000D02*
X125050000Y-71175000D01*
D16*
X132450000Y-65875000D02*
X124249999Y-65875000D01*
X127650000Y-69475000D02*
X132450000Y-69475000D01*
X122400000Y-71375000D02*
X125430000Y-71375000D01*
X122150000Y-67775000D02*
X122150000Y-68525000D01*
X122400000Y-66925000D02*
X122400000Y-71375000D01*
X122150000Y-68525000D02*
X122350000Y-68525000D01*
X132430000Y-68475000D02*
X132430000Y-66225000D01*
X132450000Y-69475000D02*
X132450000Y-65875000D01*
D15*
X130650000Y-67675000D02*
X123950000Y-67675000D01*
D14*
X131950000Y-66475000D02*
X131950000Y-68975000D01*
D13*
X132250000Y-69225000D02*
X130950000Y-69175000D01*
D12*
X123880000Y-67375000D02*
X123880000Y-69615000D01*
D11*
X122750000Y-70875000D02*
X122750000Y-69075001D01*
D10*
X122250000Y-68425000D02*
X122250000Y-67775000D01*
D14*
X125033682Y-70953529D02*
G75*
G02*
X127250000Y-69075000I2151318J-291471D01*
G01*
D16*
X122150000Y-67775001D02*
G75*
G02*
X124249999Y-65875000I2000000J-99999D01*
G01*
X125433682Y-71353529D02*
G75*
G02*
X127650000Y-69475000I2151318J-291471D01*
G01*
D17*
%TO.C,SW17*%
X113275000Y-63225000D02*
X112025000Y-63225000D01*
D13*
X103575000Y-68325000D02*
X106025000Y-68325000D01*
D16*
X113425000Y-63025000D02*
X105224999Y-63025000D01*
X108625000Y-66625000D02*
X113425000Y-66625000D01*
X103375000Y-68525000D02*
X106405000Y-68525000D01*
X103125000Y-64925000D02*
X103125000Y-65675000D01*
X103375000Y-64075000D02*
X103375000Y-68525000D01*
X103125000Y-65675000D02*
X103325000Y-65675000D01*
X113405000Y-65625000D02*
X113405000Y-63375000D01*
X113425000Y-66625000D02*
X113425000Y-63025000D01*
D15*
X111625000Y-64825000D02*
X104925000Y-64825000D01*
D14*
X112925000Y-63625000D02*
X112925000Y-66125000D01*
D13*
X113225000Y-66375000D02*
X111925000Y-66325000D01*
D12*
X104855000Y-64525000D02*
X104855000Y-66765000D01*
D11*
X103725000Y-68025000D02*
X103725000Y-66225001D01*
D10*
X103225000Y-65575000D02*
X103225000Y-64925000D01*
D14*
X106008682Y-68103529D02*
G75*
G02*
X108225000Y-66225000I2151318J-291471D01*
G01*
D16*
X103125000Y-64925001D02*
G75*
G02*
X105224999Y-63025000I2000000J-99999D01*
G01*
X106408682Y-68503529D02*
G75*
G02*
X108625000Y-66625000I2151318J-291471D01*
G01*
D17*
%TO.C,SW18*%
X94200000Y-60400000D02*
X92950000Y-60400000D01*
D13*
X84500000Y-65500000D02*
X86950000Y-65500000D01*
D16*
X94350000Y-60200000D02*
X86149999Y-60200000D01*
X89550000Y-63800000D02*
X94350000Y-63800000D01*
X84300000Y-65700000D02*
X87330000Y-65700000D01*
X84050000Y-62100000D02*
X84050000Y-62850000D01*
X84300000Y-61250000D02*
X84300000Y-65700000D01*
X84050000Y-62850000D02*
X84250000Y-62850000D01*
X94330000Y-62800000D02*
X94330000Y-60550000D01*
X94350000Y-63800000D02*
X94350000Y-60200000D01*
D15*
X92550000Y-62000000D02*
X85850000Y-62000000D01*
D14*
X93850000Y-60800000D02*
X93850000Y-63300000D01*
D13*
X94150000Y-63550000D02*
X92850000Y-63500000D01*
D12*
X85780000Y-61700000D02*
X85780000Y-63940000D01*
D11*
X84650000Y-65200000D02*
X84650000Y-63400001D01*
D10*
X84150000Y-62750000D02*
X84150000Y-62100000D01*
D14*
X86933682Y-65278529D02*
G75*
G02*
X89150000Y-63400000I2151318J-291471D01*
G01*
D16*
X84050000Y-62100001D02*
G75*
G02*
X86149999Y-60200000I2000000J-99999D01*
G01*
X87333682Y-65678529D02*
G75*
G02*
X89550000Y-63800000I2151318J-291471D01*
G01*
D17*
%TO.C,SW19*%
X75150000Y-63250000D02*
X73900000Y-63250000D01*
D13*
X65450000Y-68350000D02*
X67900000Y-68350000D01*
D16*
X75300000Y-63050000D02*
X67099999Y-63050000D01*
X70500000Y-66650000D02*
X75300000Y-66650000D01*
X65250000Y-68550000D02*
X68280000Y-68550000D01*
X65000000Y-64950000D02*
X65000000Y-65700000D01*
X65250000Y-64100000D02*
X65250000Y-68550000D01*
X65000000Y-65700000D02*
X65200000Y-65700000D01*
X75280000Y-65650000D02*
X75280000Y-63400000D01*
X75300000Y-66650000D02*
X75300000Y-63050000D01*
D15*
X73500000Y-64850000D02*
X66800000Y-64850000D01*
D14*
X74800000Y-63650000D02*
X74800000Y-66150000D01*
D13*
X75100000Y-66400000D02*
X73800000Y-66350000D01*
D12*
X66730000Y-64550000D02*
X66730000Y-66790000D01*
D11*
X65600000Y-68050000D02*
X65600000Y-66250001D01*
D10*
X65100000Y-65600000D02*
X65100000Y-64950000D01*
D14*
X67883682Y-68128529D02*
G75*
G02*
X70100000Y-66250000I2151318J-291471D01*
G01*
D16*
X65000000Y-64950001D02*
G75*
G02*
X67099999Y-63050000I2000000J-99999D01*
G01*
X68283682Y-68528529D02*
G75*
G02*
X70500000Y-66650000I2151318J-291471D01*
G01*
D10*
%TO.C,SW20*%
X46050000Y-68475000D02*
X46050000Y-67825000D01*
D11*
X46550000Y-70925000D02*
X46550000Y-69125001D01*
D12*
X47680000Y-67425000D02*
X47680000Y-69665000D01*
D13*
X56050000Y-69275000D02*
X54750000Y-69225000D01*
D14*
X55750000Y-66525000D02*
X55750000Y-69025000D01*
D15*
X54450000Y-67725000D02*
X47750000Y-67725000D01*
D16*
X56250000Y-69525000D02*
X56250000Y-65925000D01*
X56230000Y-68525000D02*
X56230000Y-66275000D01*
X45950000Y-68575000D02*
X46150000Y-68575000D01*
X46200000Y-66975000D02*
X46200000Y-71425000D01*
X45950000Y-67825000D02*
X45950000Y-68575000D01*
X46200000Y-71425000D02*
X49230000Y-71425000D01*
X51450000Y-69525000D02*
X56250000Y-69525000D01*
X56250000Y-65925000D02*
X48049999Y-65925000D01*
D13*
X46400000Y-71225000D02*
X48850000Y-71225000D01*
D17*
X56100000Y-66125000D02*
X54850000Y-66125000D01*
D16*
X49233682Y-71403529D02*
G75*
G02*
X51450000Y-69525000I2151318J-291471D01*
G01*
X45950000Y-67825001D02*
G75*
G02*
X48049999Y-65925000I2000000J-99999D01*
G01*
D14*
X48833682Y-71003529D02*
G75*
G02*
X51050000Y-69125000I2151318J-291471D01*
G01*
D17*
%TO.C,SW21*%
X37050000Y-68975000D02*
X35800000Y-68975000D01*
D13*
X27350000Y-74075000D02*
X29800000Y-74075000D01*
D16*
X37200000Y-68775000D02*
X28999999Y-68775000D01*
X32400000Y-72375000D02*
X37200000Y-72375000D01*
X27150000Y-74275000D02*
X30180000Y-74275000D01*
X26900000Y-70675000D02*
X26900000Y-71425000D01*
X27150000Y-69825000D02*
X27150000Y-74275000D01*
X26900000Y-71425000D02*
X27100000Y-71425000D01*
X37180000Y-71375000D02*
X37180000Y-69125000D01*
X37200000Y-72375000D02*
X37200000Y-68775000D01*
D15*
X35400000Y-70575000D02*
X28700000Y-70575000D01*
D14*
X36700000Y-69375000D02*
X36700000Y-71875000D01*
D13*
X37000000Y-72125000D02*
X35700000Y-72075000D01*
D12*
X28630000Y-70275000D02*
X28630000Y-72515000D01*
D11*
X27500000Y-73775000D02*
X27500000Y-71975001D01*
D10*
X27000000Y-71325000D02*
X27000000Y-70675000D01*
D14*
X29783682Y-73853529D02*
G75*
G02*
X32000000Y-71975000I2151318J-291471D01*
G01*
D16*
X26900000Y-70675001D02*
G75*
G02*
X28999999Y-68775000I2000000J-99999D01*
G01*
X30183682Y-74253529D02*
G75*
G02*
X32400000Y-72375000I2151318J-291471D01*
G01*
D10*
%TO.C,SW23*%
X116045847Y-86861850D02*
X116214080Y-86233998D01*
D11*
X115894704Y-89357778D02*
X116360578Y-87619112D01*
D12*
X117892066Y-86269503D02*
X117312312Y-88433177D01*
D13*
X125498050Y-90222781D02*
X124255288Y-89838020D01*
D14*
X125920025Y-87488839D02*
X125272977Y-89903654D01*
D15*
X124353739Y-88311486D02*
X117882036Y-86577398D01*
D16*
X125626531Y-90516026D02*
X126558279Y-87038693D01*
X125866031Y-89544924D02*
X126448374Y-87371591D01*
X115923373Y-86932561D02*
X116116558Y-86984324D01*
X116578965Y-85451784D02*
X115427220Y-89750154D01*
X116117487Y-86208116D02*
X115923373Y-86932561D01*
X115427220Y-89750154D02*
X118353975Y-90534376D01*
X120990087Y-89273695D02*
X125626531Y-90516026D01*
X126558279Y-87038693D02*
X118637687Y-84916377D01*
D13*
X115672169Y-89608733D02*
X118038687Y-90242839D01*
D17*
X126361627Y-87193056D02*
X125154219Y-86869532D01*
D16*
X118363088Y-90514589D02*
G75*
G02*
X120990087Y-89273695I2002576J-838342D01*
G01*
X116117487Y-86208117D02*
G75*
G02*
X118637687Y-84916377I1905970J-614230D01*
G01*
D14*
X118080246Y-90024692D02*
G75*
G02*
X120707244Y-88783797I2002576J-838341D01*
G01*
D10*
%TO.C,SW24*%
X93675000Y-84650000D02*
X93675000Y-84000000D01*
D11*
X94175000Y-87100000D02*
X94175000Y-85300001D01*
D12*
X95305000Y-83600000D02*
X95305000Y-85840000D01*
D13*
X103675000Y-85450000D02*
X102375000Y-85400000D01*
D14*
X103375000Y-82700000D02*
X103375000Y-85200000D01*
D15*
X102075000Y-83900000D02*
X95375000Y-83900000D01*
D16*
X103875000Y-85700000D02*
X103875000Y-82100000D01*
X103855000Y-84700000D02*
X103855000Y-82450000D01*
X93575000Y-84750000D02*
X93775000Y-84750000D01*
X93825000Y-83150000D02*
X93825000Y-87600000D01*
X93575000Y-84000000D02*
X93575000Y-84750000D01*
X93825000Y-87600000D02*
X96855000Y-87600000D01*
X99075000Y-85700000D02*
X103875000Y-85700000D01*
X103875000Y-82100000D02*
X95674999Y-82100000D01*
D13*
X94025000Y-87400000D02*
X96475000Y-87400000D01*
D17*
X103725000Y-82300000D02*
X102475000Y-82300000D01*
D16*
X96858682Y-87578529D02*
G75*
G02*
X99075000Y-85700000I2151318J-291471D01*
G01*
X93575000Y-84000001D02*
G75*
G02*
X95674999Y-82100000I2000000J-99999D01*
G01*
D14*
X96458682Y-87178529D02*
G75*
G02*
X98675000Y-85300000I2151318J-291471D01*
G01*
D10*
%TO.C,SW25*%
X74625000Y-84650000D02*
X74625000Y-84000000D01*
D11*
X75125000Y-87100000D02*
X75125000Y-85300001D01*
D12*
X76255000Y-83600000D02*
X76255000Y-85840000D01*
D13*
X84625000Y-85450000D02*
X83325000Y-85400000D01*
D14*
X84325000Y-82700000D02*
X84325000Y-85200000D01*
D15*
X83025000Y-83900000D02*
X76325000Y-83900000D01*
D16*
X84825000Y-85700000D02*
X84825000Y-82100000D01*
X84805000Y-84700000D02*
X84805000Y-82450000D01*
X74525000Y-84750000D02*
X74725000Y-84750000D01*
X74775000Y-83150000D02*
X74775000Y-87600000D01*
X74525000Y-84000000D02*
X74525000Y-84750000D01*
X74775000Y-87600000D02*
X77805000Y-87600000D01*
X80025000Y-85700000D02*
X84825000Y-85700000D01*
X84825000Y-82100000D02*
X76624999Y-82100000D01*
D13*
X74975000Y-87400000D02*
X77425000Y-87400000D01*
D17*
X84675000Y-82300000D02*
X83425000Y-82300000D01*
D16*
X77808682Y-87578529D02*
G75*
G02*
X80025000Y-85700000I2151318J-291471D01*
G01*
X74525000Y-84000001D02*
G75*
G02*
X76624999Y-82100000I2000000J-99999D01*
G01*
D14*
X77408682Y-87178529D02*
G75*
G02*
X79625000Y-85300000I2151318J-291471D01*
G01*
D17*
%TO.C,SW26*%
X216450000Y-37650000D02*
X215200000Y-37650000D01*
D13*
X206750000Y-42750000D02*
X209200000Y-42750000D01*
D16*
X216600000Y-37450000D02*
X208399999Y-37450000D01*
X211800000Y-41050000D02*
X216600000Y-41050000D01*
X206550000Y-42950000D02*
X209580000Y-42950000D01*
X206300000Y-39350000D02*
X206300000Y-40100000D01*
X206550000Y-38500000D02*
X206550000Y-42950000D01*
X206300000Y-40100000D02*
X206500000Y-40100000D01*
X216580000Y-40050000D02*
X216580000Y-37800000D01*
X216600000Y-41050000D02*
X216600000Y-37450000D01*
D15*
X214800000Y-39250000D02*
X208100000Y-39250000D01*
D14*
X216100000Y-38050000D02*
X216100000Y-40550000D01*
D13*
X216400000Y-40800000D02*
X215100000Y-40750000D01*
D12*
X208030000Y-38950000D02*
X208030000Y-41190000D01*
D11*
X206900000Y-42450000D02*
X206900000Y-40650001D01*
D10*
X206400000Y-40000000D02*
X206400000Y-39350000D01*
D14*
X209183682Y-42528529D02*
G75*
G02*
X211400000Y-40650000I2151318J-291471D01*
G01*
D16*
X206300000Y-39350001D02*
G75*
G02*
X208399999Y-37450000I2000000J-99999D01*
G01*
X209583682Y-42928529D02*
G75*
G02*
X211800000Y-41050000I2151318J-291471D01*
G01*
D17*
%TO.C,SW27*%
X235500000Y-28100000D02*
X234250000Y-28100000D01*
D13*
X225800000Y-33200000D02*
X228250000Y-33200000D01*
D16*
X235650000Y-27900000D02*
X227449999Y-27900000D01*
X230850000Y-31500000D02*
X235650000Y-31500000D01*
X225600000Y-33400000D02*
X228630000Y-33400000D01*
X225350000Y-29800000D02*
X225350000Y-30550000D01*
X225600000Y-28950000D02*
X225600000Y-33400000D01*
X225350000Y-30550000D02*
X225550000Y-30550000D01*
X235630000Y-30500000D02*
X235630000Y-28250000D01*
X235650000Y-31500000D02*
X235650000Y-27900000D01*
D15*
X233850000Y-29700000D02*
X227150000Y-29700000D01*
D14*
X235150000Y-28500000D02*
X235150000Y-31000000D01*
D13*
X235450000Y-31250000D02*
X234150000Y-31200000D01*
D12*
X227080000Y-29400000D02*
X227080000Y-31640000D01*
D11*
X225950000Y-32900000D02*
X225950000Y-31100001D01*
D10*
X225450000Y-30450000D02*
X225450000Y-29800000D01*
D14*
X228233682Y-32978529D02*
G75*
G02*
X230450000Y-31100000I2151318J-291471D01*
G01*
D16*
X225350000Y-29800001D02*
G75*
G02*
X227449999Y-27900000I2000000J-99999D01*
G01*
X228633682Y-33378529D02*
G75*
G02*
X230850000Y-31500000I2151318J-291471D01*
G01*
D17*
%TO.C,SW28*%
X254550000Y-25250000D02*
X253300000Y-25250000D01*
D13*
X244850000Y-30350000D02*
X247300000Y-30350000D01*
D16*
X254700000Y-25050000D02*
X246499999Y-25050000D01*
X249900000Y-28650000D02*
X254700000Y-28650000D01*
X244650000Y-30550000D02*
X247680000Y-30550000D01*
X244400000Y-26950000D02*
X244400000Y-27700000D01*
X244650000Y-26100000D02*
X244650000Y-30550000D01*
X244400000Y-27700000D02*
X244600000Y-27700000D01*
X254680000Y-27650000D02*
X254680000Y-25400000D01*
X254700000Y-28650000D02*
X254700000Y-25050000D01*
D15*
X252900000Y-26850000D02*
X246200000Y-26850000D01*
D14*
X254200000Y-25650000D02*
X254200000Y-28150000D01*
D13*
X254500000Y-28400000D02*
X253200000Y-28350000D01*
D12*
X246130000Y-26550000D02*
X246130000Y-28790000D01*
D11*
X245000000Y-30050000D02*
X245000000Y-28250001D01*
D10*
X244500000Y-27600000D02*
X244500000Y-26950000D01*
D14*
X247283682Y-30128529D02*
G75*
G02*
X249500000Y-28250000I2151318J-291471D01*
G01*
D16*
X244400000Y-26950001D02*
G75*
G02*
X246499999Y-25050000I2000000J-99999D01*
G01*
X247683682Y-30528529D02*
G75*
G02*
X249900000Y-28650000I2151318J-291471D01*
G01*
D17*
%TO.C,SW29*%
X273600000Y-22400000D02*
X272350000Y-22400000D01*
D13*
X263900000Y-27500000D02*
X266350000Y-27500000D01*
D16*
X273750000Y-22200000D02*
X265549999Y-22200000D01*
X268950000Y-25800000D02*
X273750000Y-25800000D01*
X263700000Y-27700000D02*
X266730000Y-27700000D01*
X263450000Y-24100000D02*
X263450000Y-24850000D01*
X263700000Y-23250000D02*
X263700000Y-27700000D01*
X263450000Y-24850000D02*
X263650000Y-24850000D01*
X273730000Y-24800000D02*
X273730000Y-22550000D01*
X273750000Y-25800000D02*
X273750000Y-22200000D01*
D15*
X271950000Y-24000000D02*
X265250000Y-24000000D01*
D14*
X273250000Y-22800000D02*
X273250000Y-25300000D01*
D13*
X273550000Y-25550000D02*
X272250000Y-25500000D01*
D12*
X265180000Y-23700000D02*
X265180000Y-25940000D01*
D11*
X264050000Y-27200000D02*
X264050000Y-25400001D01*
D10*
X263550000Y-24750000D02*
X263550000Y-24100000D01*
D14*
X266333682Y-27278529D02*
G75*
G02*
X268550000Y-25400000I2151318J-291471D01*
G01*
D16*
X263450000Y-24100001D02*
G75*
G02*
X265549999Y-22200000I2000000J-99999D01*
G01*
X266733682Y-27678529D02*
G75*
G02*
X268950000Y-25800000I2151318J-291471D01*
G01*
D17*
%TO.C,SW30*%
X292650000Y-25250000D02*
X291400000Y-25250000D01*
D13*
X282950000Y-30350000D02*
X285400000Y-30350000D01*
D16*
X292800000Y-25050000D02*
X284599999Y-25050000D01*
X288000000Y-28650000D02*
X292800000Y-28650000D01*
X282750000Y-30550000D02*
X285780000Y-30550000D01*
X282500000Y-26950000D02*
X282500000Y-27700000D01*
X282750000Y-26100000D02*
X282750000Y-30550000D01*
X282500000Y-27700000D02*
X282700000Y-27700000D01*
X292780000Y-27650000D02*
X292780000Y-25400000D01*
X292800000Y-28650000D02*
X292800000Y-25050000D01*
D15*
X291000000Y-26850000D02*
X284300000Y-26850000D01*
D14*
X292300000Y-25650000D02*
X292300000Y-28150000D01*
D13*
X292600000Y-28400000D02*
X291300000Y-28350000D01*
D12*
X284230000Y-26550000D02*
X284230000Y-28790000D01*
D11*
X283100000Y-30050000D02*
X283100000Y-28250001D01*
D10*
X282600000Y-27600000D02*
X282600000Y-26950000D01*
D14*
X285383682Y-30128529D02*
G75*
G02*
X287600000Y-28250000I2151318J-291471D01*
G01*
D16*
X282500000Y-26950001D02*
G75*
G02*
X284599999Y-25050000I2000000J-99999D01*
G01*
X285783682Y-30528529D02*
G75*
G02*
X288000000Y-28650000I2151318J-291471D01*
G01*
D10*
%TO.C,SW31*%
X301650000Y-30450000D02*
X301650000Y-29800000D01*
D11*
X302150000Y-32900000D02*
X302150000Y-31100001D01*
D12*
X303280000Y-29400000D02*
X303280000Y-31640000D01*
D13*
X311650000Y-31250000D02*
X310350000Y-31200000D01*
D14*
X311350000Y-28500000D02*
X311350000Y-31000000D01*
D15*
X310050000Y-29700000D02*
X303350000Y-29700000D01*
D16*
X311850000Y-31500000D02*
X311850000Y-27900000D01*
X311830000Y-30500000D02*
X311830000Y-28250000D01*
X301550000Y-30550000D02*
X301750000Y-30550000D01*
X301800000Y-28950000D02*
X301800000Y-33400000D01*
X301550000Y-29800000D02*
X301550000Y-30550000D01*
X301800000Y-33400000D02*
X304830000Y-33400000D01*
X307050000Y-31500000D02*
X311850000Y-31500000D01*
X311850000Y-27900000D02*
X303649999Y-27900000D01*
D13*
X302000000Y-33200000D02*
X304450000Y-33200000D01*
D17*
X311700000Y-28100000D02*
X310450000Y-28100000D01*
D16*
X304833682Y-33378529D02*
G75*
G02*
X307050000Y-31500000I2151318J-291471D01*
G01*
X301550000Y-29800001D02*
G75*
G02*
X303649999Y-27900000I2000000J-99999D01*
G01*
D14*
X304433682Y-32978529D02*
G75*
G02*
X306650000Y-31100000I2151318J-291471D01*
G01*
D17*
%TO.C,SW32*%
X330750000Y-30950000D02*
X329500000Y-30950000D01*
D13*
X321050000Y-36050000D02*
X323500000Y-36050000D01*
D16*
X330900000Y-30750000D02*
X322699999Y-30750000D01*
X326100000Y-34350000D02*
X330900000Y-34350000D01*
X320850000Y-36250000D02*
X323880000Y-36250000D01*
X320600000Y-32650000D02*
X320600000Y-33400000D01*
X320850000Y-31800000D02*
X320850000Y-36250000D01*
X320600000Y-33400000D02*
X320800000Y-33400000D01*
X330880000Y-33350000D02*
X330880000Y-31100000D01*
X330900000Y-34350000D02*
X330900000Y-30750000D01*
D15*
X329100000Y-32550000D02*
X322400000Y-32550000D01*
D14*
X330400000Y-31350000D02*
X330400000Y-33850000D01*
D13*
X330700000Y-34100000D02*
X329400000Y-34050000D01*
D12*
X322330000Y-32250000D02*
X322330000Y-34490000D01*
D11*
X321200000Y-35750000D02*
X321200000Y-33950001D01*
D10*
X320700000Y-33300000D02*
X320700000Y-32650000D01*
D14*
X323483682Y-35828529D02*
G75*
G02*
X325700000Y-33950000I2151318J-291471D01*
G01*
D16*
X320600000Y-32650001D02*
G75*
G02*
X322699999Y-30750000I2000000J-99999D01*
G01*
X323883682Y-36228529D02*
G75*
G02*
X326100000Y-34350000I2151318J-291471D01*
G01*
D17*
%TO.C,SW33*%
X216450000Y-56650000D02*
X215200000Y-56650000D01*
D13*
X206750000Y-61750000D02*
X209200000Y-61750000D01*
D16*
X216600000Y-56450000D02*
X208399999Y-56450000D01*
X211800000Y-60050000D02*
X216600000Y-60050000D01*
X206550000Y-61950000D02*
X209580000Y-61950000D01*
X206300000Y-58350000D02*
X206300000Y-59100000D01*
X206550000Y-57500000D02*
X206550000Y-61950000D01*
X206300000Y-59100000D02*
X206500000Y-59100000D01*
X216580000Y-59050000D02*
X216580000Y-56800000D01*
X216600000Y-60050000D02*
X216600000Y-56450000D01*
D15*
X214800000Y-58250000D02*
X208100000Y-58250000D01*
D14*
X216100000Y-57050000D02*
X216100000Y-59550000D01*
D13*
X216400000Y-59800000D02*
X215100000Y-59750000D01*
D12*
X208030000Y-57950000D02*
X208030000Y-60190000D01*
D11*
X206900000Y-61450000D02*
X206900000Y-59650001D01*
D10*
X206400000Y-59000000D02*
X206400000Y-58350000D01*
D14*
X209183682Y-61528529D02*
G75*
G02*
X211400000Y-59650000I2151318J-291471D01*
G01*
D16*
X206300000Y-58350001D02*
G75*
G02*
X208399999Y-56450000I2000000J-99999D01*
G01*
X209583682Y-61928529D02*
G75*
G02*
X211800000Y-60050000I2151318J-291471D01*
G01*
D17*
%TO.C,SW34*%
X235500000Y-47150000D02*
X234250000Y-47150000D01*
D13*
X225800000Y-52250000D02*
X228250000Y-52250000D01*
D16*
X235650000Y-46950000D02*
X227449999Y-46950000D01*
X230850000Y-50550000D02*
X235650000Y-50550000D01*
X225600000Y-52450000D02*
X228630000Y-52450000D01*
X225350000Y-48850000D02*
X225350000Y-49600000D01*
X225600000Y-48000000D02*
X225600000Y-52450000D01*
X225350000Y-49600000D02*
X225550000Y-49600000D01*
X235630000Y-49550000D02*
X235630000Y-47300000D01*
X235650000Y-50550000D02*
X235650000Y-46950000D01*
D15*
X233850000Y-48750000D02*
X227150000Y-48750000D01*
D14*
X235150000Y-47550000D02*
X235150000Y-50050000D01*
D13*
X235450000Y-50300000D02*
X234150000Y-50250000D01*
D12*
X227080000Y-48450000D02*
X227080000Y-50690000D01*
D11*
X225950000Y-51950000D02*
X225950000Y-50150001D01*
D10*
X225450000Y-49500000D02*
X225450000Y-48850000D01*
D14*
X228233682Y-52028529D02*
G75*
G02*
X230450000Y-50150000I2151318J-291471D01*
G01*
D16*
X225350000Y-48850001D02*
G75*
G02*
X227449999Y-46950000I2000000J-99999D01*
G01*
X228633682Y-52428529D02*
G75*
G02*
X230850000Y-50550000I2151318J-291471D01*
G01*
D10*
%TO.C,SW35*%
X244500000Y-46650000D02*
X244500000Y-46000000D01*
D11*
X245000000Y-49100000D02*
X245000000Y-47300001D01*
D12*
X246130000Y-45600000D02*
X246130000Y-47840000D01*
D13*
X254500000Y-47450000D02*
X253200000Y-47400000D01*
D14*
X254200000Y-44700000D02*
X254200000Y-47200000D01*
D15*
X252900000Y-45900000D02*
X246200000Y-45900000D01*
D16*
X254700000Y-47700000D02*
X254700000Y-44100000D01*
X254680000Y-46700000D02*
X254680000Y-44450000D01*
X244400000Y-46750000D02*
X244600000Y-46750000D01*
X244650000Y-45150000D02*
X244650000Y-49600000D01*
X244400000Y-46000000D02*
X244400000Y-46750000D01*
X244650000Y-49600000D02*
X247680000Y-49600000D01*
X249900000Y-47700000D02*
X254700000Y-47700000D01*
X254700000Y-44100000D02*
X246499999Y-44100000D01*
D13*
X244850000Y-49400000D02*
X247300000Y-49400000D01*
D17*
X254550000Y-44300000D02*
X253300000Y-44300000D01*
D16*
X247683682Y-49578529D02*
G75*
G02*
X249900000Y-47700000I2151318J-291471D01*
G01*
X244400000Y-46000001D02*
G75*
G02*
X246499999Y-44100000I2000000J-99999D01*
G01*
D14*
X247283682Y-49178529D02*
G75*
G02*
X249500000Y-47300000I2151318J-291471D01*
G01*
D10*
%TO.C,SW36*%
X263550000Y-43750000D02*
X263550000Y-43100000D01*
D11*
X264050000Y-46200000D02*
X264050000Y-44400001D01*
D12*
X265180000Y-42700000D02*
X265180000Y-44940000D01*
D13*
X273550000Y-44550000D02*
X272250000Y-44500000D01*
D14*
X273250000Y-41800000D02*
X273250000Y-44300000D01*
D15*
X271950000Y-43000000D02*
X265250000Y-43000000D01*
D16*
X273750000Y-44800000D02*
X273750000Y-41200000D01*
X273730000Y-43800000D02*
X273730000Y-41550000D01*
X263450000Y-43850000D02*
X263650000Y-43850000D01*
X263700000Y-42250000D02*
X263700000Y-46700000D01*
X263450000Y-43100000D02*
X263450000Y-43850000D01*
X263700000Y-46700000D02*
X266730000Y-46700000D01*
X268950000Y-44800000D02*
X273750000Y-44800000D01*
X273750000Y-41200000D02*
X265549999Y-41200000D01*
D13*
X263900000Y-46500000D02*
X266350000Y-46500000D01*
D17*
X273600000Y-41400000D02*
X272350000Y-41400000D01*
D16*
X266733682Y-46678529D02*
G75*
G02*
X268950000Y-44800000I2151318J-291471D01*
G01*
X263450000Y-43100001D02*
G75*
G02*
X265549999Y-41200000I2000000J-99999D01*
G01*
D14*
X266333682Y-46278529D02*
G75*
G02*
X268550000Y-44400000I2151318J-291471D01*
G01*
D10*
%TO.C,SW37*%
X282600000Y-46650000D02*
X282600000Y-46000000D01*
D11*
X283100000Y-49100000D02*
X283100000Y-47300001D01*
D12*
X284230000Y-45600000D02*
X284230000Y-47840000D01*
D13*
X292600000Y-47450000D02*
X291300000Y-47400000D01*
D14*
X292300000Y-44700000D02*
X292300000Y-47200000D01*
D15*
X291000000Y-45900000D02*
X284300000Y-45900000D01*
D16*
X292800000Y-47700000D02*
X292800000Y-44100000D01*
X292780000Y-46700000D02*
X292780000Y-44450000D01*
X282500000Y-46750000D02*
X282700000Y-46750000D01*
X282750000Y-45150000D02*
X282750000Y-49600000D01*
X282500000Y-46000000D02*
X282500000Y-46750000D01*
X282750000Y-49600000D02*
X285780000Y-49600000D01*
X288000000Y-47700000D02*
X292800000Y-47700000D01*
X292800000Y-44100000D02*
X284599999Y-44100000D01*
D13*
X282950000Y-49400000D02*
X285400000Y-49400000D01*
D17*
X292650000Y-44300000D02*
X291400000Y-44300000D01*
D16*
X285783682Y-49578529D02*
G75*
G02*
X288000000Y-47700000I2151318J-291471D01*
G01*
X282500000Y-46000001D02*
G75*
G02*
X284599999Y-44100000I2000000J-99999D01*
G01*
D14*
X285383682Y-49178529D02*
G75*
G02*
X287600000Y-47300000I2151318J-291471D01*
G01*
D17*
%TO.C,SW38*%
X311700000Y-47150000D02*
X310450000Y-47150000D01*
D13*
X302000000Y-52250000D02*
X304450000Y-52250000D01*
D16*
X311850000Y-46950000D02*
X303649999Y-46950000D01*
X307050000Y-50550000D02*
X311850000Y-50550000D01*
X301800000Y-52450000D02*
X304830000Y-52450000D01*
X301550000Y-48850000D02*
X301550000Y-49600000D01*
X301800000Y-48000000D02*
X301800000Y-52450000D01*
X301550000Y-49600000D02*
X301750000Y-49600000D01*
X311830000Y-49550000D02*
X311830000Y-47300000D01*
X311850000Y-50550000D02*
X311850000Y-46950000D01*
D15*
X310050000Y-48750000D02*
X303350000Y-48750000D01*
D14*
X311350000Y-47550000D02*
X311350000Y-50050000D01*
D13*
X311650000Y-50300000D02*
X310350000Y-50250000D01*
D12*
X303280000Y-48450000D02*
X303280000Y-50690000D01*
D11*
X302150000Y-51950000D02*
X302150000Y-50150001D01*
D10*
X301650000Y-49500000D02*
X301650000Y-48850000D01*
D14*
X304433682Y-52028529D02*
G75*
G02*
X306650000Y-50150000I2151318J-291471D01*
G01*
D16*
X301550000Y-48850001D02*
G75*
G02*
X303649999Y-46950000I2000000J-99999D01*
G01*
X304833682Y-52428529D02*
G75*
G02*
X307050000Y-50550000I2151318J-291471D01*
G01*
D17*
%TO.C,SW39*%
X330750000Y-50000000D02*
X329500000Y-50000000D01*
D13*
X321050000Y-55100000D02*
X323500000Y-55100000D01*
D16*
X330900000Y-49800000D02*
X322699999Y-49800000D01*
X326100000Y-53400000D02*
X330900000Y-53400000D01*
X320850000Y-55300000D02*
X323880000Y-55300000D01*
X320600000Y-51700000D02*
X320600000Y-52450000D01*
X320850000Y-50850000D02*
X320850000Y-55300000D01*
X320600000Y-52450000D02*
X320800000Y-52450000D01*
X330880000Y-52400000D02*
X330880000Y-50150000D01*
X330900000Y-53400000D02*
X330900000Y-49800000D01*
D15*
X329100000Y-51600000D02*
X322400000Y-51600000D01*
D14*
X330400000Y-50400000D02*
X330400000Y-52900000D01*
D13*
X330700000Y-53150000D02*
X329400000Y-53100000D01*
D12*
X322330000Y-51300000D02*
X322330000Y-53540000D01*
D11*
X321200000Y-54800000D02*
X321200000Y-53000001D01*
D10*
X320700000Y-52350000D02*
X320700000Y-51700000D01*
D14*
X323483682Y-54878529D02*
G75*
G02*
X325700000Y-53000000I2151318J-291471D01*
G01*
D16*
X320600000Y-51700001D02*
G75*
G02*
X322699999Y-49800000I2000000J-99999D01*
G01*
X323883682Y-55278529D02*
G75*
G02*
X326100000Y-53400000I2151318J-291471D01*
G01*
D17*
%TO.C,SW40*%
X224567563Y-96530608D02*
X223942563Y-95448076D01*
D13*
X215300833Y-90680162D02*
X216525833Y-92801924D01*
D16*
X224815768Y-96560512D02*
X220715767Y-89459103D01*
X219298076Y-94203590D02*
X221698076Y-98360512D01*
X215027628Y-90606956D02*
X216542628Y-93231013D01*
X218020319Y-88590450D02*
X217370800Y-88965450D01*
X218881441Y-88381956D02*
X215027628Y-90606956D01*
X217370800Y-88965450D02*
X217470800Y-89138655D01*
X222554102Y-97843191D02*
X224502659Y-96718191D01*
X221698076Y-98360512D02*
X224815768Y-96560512D01*
D15*
X222356922Y-95901666D02*
X219006922Y-90099296D01*
D14*
X224046152Y-96427499D02*
X221881089Y-97677499D01*
D13*
X221814583Y-98062307D02*
X221207884Y-96911474D01*
D12*
X219231730Y-89888674D02*
X217291833Y-91008674D01*
D11*
X215635641Y-90660065D02*
X217194486Y-89760066D01*
D10*
X217507403Y-89002053D02*
X218070319Y-88677053D01*
D14*
X216709473Y-92677057D02*
G75*
G02*
X219444486Y-93657180I823238J-2008831D01*
G01*
D16*
X218020319Y-88590451D02*
G75*
G02*
X220715767Y-89459103I913398J-1782050D01*
G01*
X216563063Y-93223467D02*
G75*
G02*
X219298076Y-94203590I823238J-2008831D01*
G01*
D10*
%TO.C,SW41*%
X225450000Y-68550000D02*
X225450000Y-67900000D01*
D11*
X225950000Y-71000000D02*
X225950000Y-69200001D01*
D12*
X227080000Y-67500000D02*
X227080000Y-69740000D01*
D13*
X235450000Y-69350000D02*
X234150000Y-69300000D01*
D14*
X235150000Y-66600000D02*
X235150000Y-69100000D01*
D15*
X233850000Y-67800000D02*
X227150000Y-67800000D01*
D16*
X235650000Y-69600000D02*
X235650000Y-66000000D01*
X235630000Y-68600000D02*
X235630000Y-66350000D01*
X225350000Y-68650000D02*
X225550000Y-68650000D01*
X225600000Y-67050000D02*
X225600000Y-71500000D01*
X225350000Y-67900000D02*
X225350000Y-68650000D01*
X225600000Y-71500000D02*
X228630000Y-71500000D01*
X230850000Y-69600000D02*
X235650000Y-69600000D01*
X235650000Y-66000000D02*
X227449999Y-66000000D01*
D13*
X225800000Y-71300000D02*
X228250000Y-71300000D01*
D17*
X235500000Y-66200000D02*
X234250000Y-66200000D01*
D16*
X228633682Y-71478529D02*
G75*
G02*
X230850000Y-69600000I2151318J-291471D01*
G01*
X225350000Y-67900001D02*
G75*
G02*
X227449999Y-66000000I2000000J-99999D01*
G01*
D14*
X228233682Y-71078529D02*
G75*
G02*
X230450000Y-69200000I2151318J-291471D01*
G01*
D17*
%TO.C,SW42*%
X254550000Y-63350000D02*
X253300000Y-63350000D01*
D13*
X244850000Y-68450000D02*
X247300000Y-68450000D01*
D16*
X254700000Y-63150000D02*
X246499999Y-63150000D01*
X249900000Y-66750000D02*
X254700000Y-66750000D01*
X244650000Y-68650000D02*
X247680000Y-68650000D01*
X244400000Y-65050000D02*
X244400000Y-65800000D01*
X244650000Y-64200000D02*
X244650000Y-68650000D01*
X244400000Y-65800000D02*
X244600000Y-65800000D01*
X254680000Y-65750000D02*
X254680000Y-63500000D01*
X254700000Y-66750000D02*
X254700000Y-63150000D01*
D15*
X252900000Y-64950000D02*
X246200000Y-64950000D01*
D14*
X254200000Y-63750000D02*
X254200000Y-66250000D01*
D13*
X254500000Y-66500000D02*
X253200000Y-66450000D01*
D12*
X246130000Y-64650000D02*
X246130000Y-66890000D01*
D11*
X245000000Y-68150000D02*
X245000000Y-66350001D01*
D10*
X244500000Y-65700000D02*
X244500000Y-65050000D01*
D14*
X247283682Y-68228529D02*
G75*
G02*
X249500000Y-66350000I2151318J-291471D01*
G01*
D16*
X244400000Y-65050001D02*
G75*
G02*
X246499999Y-63150000I2000000J-99999D01*
G01*
X247683682Y-68628529D02*
G75*
G02*
X249900000Y-66750000I2151318J-291471D01*
G01*
D17*
%TO.C,SW43*%
X273600000Y-60500000D02*
X272350000Y-60500000D01*
D13*
X263900000Y-65600000D02*
X266350000Y-65600000D01*
D16*
X273750000Y-60300000D02*
X265549999Y-60300000D01*
X268950000Y-63900000D02*
X273750000Y-63900000D01*
X263700000Y-65800000D02*
X266730000Y-65800000D01*
X263450000Y-62200000D02*
X263450000Y-62950000D01*
X263700000Y-61350000D02*
X263700000Y-65800000D01*
X263450000Y-62950000D02*
X263650000Y-62950000D01*
X273730000Y-62900000D02*
X273730000Y-60650000D01*
X273750000Y-63900000D02*
X273750000Y-60300000D01*
D15*
X271950000Y-62100000D02*
X265250000Y-62100000D01*
D14*
X273250000Y-60900000D02*
X273250000Y-63400000D01*
D13*
X273550000Y-63650000D02*
X272250000Y-63600000D01*
D12*
X265180000Y-61800000D02*
X265180000Y-64040000D01*
D11*
X264050000Y-65300000D02*
X264050000Y-63500001D01*
D10*
X263550000Y-62850000D02*
X263550000Y-62200000D01*
D14*
X266333682Y-65378529D02*
G75*
G02*
X268550000Y-63500000I2151318J-291471D01*
G01*
D16*
X263450000Y-62200001D02*
G75*
G02*
X265549999Y-60300000I2000000J-99999D01*
G01*
X266733682Y-65778529D02*
G75*
G02*
X268950000Y-63900000I2151318J-291471D01*
G01*
D17*
%TO.C,SW44*%
X292650000Y-63350000D02*
X291400000Y-63350000D01*
D13*
X282950000Y-68450000D02*
X285400000Y-68450000D01*
D16*
X292800000Y-63150000D02*
X284599999Y-63150000D01*
X288000000Y-66750000D02*
X292800000Y-66750000D01*
X282750000Y-68650000D02*
X285780000Y-68650000D01*
X282500000Y-65050000D02*
X282500000Y-65800000D01*
X282750000Y-64200000D02*
X282750000Y-68650000D01*
X282500000Y-65800000D02*
X282700000Y-65800000D01*
X292780000Y-65750000D02*
X292780000Y-63500000D01*
X292800000Y-66750000D02*
X292800000Y-63150000D01*
D15*
X291000000Y-64950000D02*
X284300000Y-64950000D01*
D14*
X292300000Y-63750000D02*
X292300000Y-66250000D01*
D13*
X292600000Y-66500000D02*
X291300000Y-66450000D01*
D12*
X284230000Y-64650000D02*
X284230000Y-66890000D01*
D11*
X283100000Y-68150000D02*
X283100000Y-66350001D01*
D10*
X282600000Y-65700000D02*
X282600000Y-65050000D01*
D14*
X285383682Y-68228529D02*
G75*
G02*
X287600000Y-66350000I2151318J-291471D01*
G01*
D16*
X282500000Y-65050001D02*
G75*
G02*
X284599999Y-63150000I2000000J-99999D01*
G01*
X285783682Y-68628529D02*
G75*
G02*
X288000000Y-66750000I2151318J-291471D01*
G01*
D10*
%TO.C,SW45*%
X301650000Y-68550000D02*
X301650000Y-67900000D01*
D11*
X302150000Y-71000000D02*
X302150000Y-69200001D01*
D12*
X303280000Y-67500000D02*
X303280000Y-69740000D01*
D13*
X311650000Y-69350000D02*
X310350000Y-69300000D01*
D14*
X311350000Y-66600000D02*
X311350000Y-69100000D01*
D15*
X310050000Y-67800000D02*
X303350000Y-67800000D01*
D16*
X311850000Y-69600000D02*
X311850000Y-66000000D01*
X311830000Y-68600000D02*
X311830000Y-66350000D01*
X301550000Y-68650000D02*
X301750000Y-68650000D01*
X301800000Y-67050000D02*
X301800000Y-71500000D01*
X301550000Y-67900000D02*
X301550000Y-68650000D01*
X301800000Y-71500000D02*
X304830000Y-71500000D01*
X307050000Y-69600000D02*
X311850000Y-69600000D01*
X311850000Y-66000000D02*
X303649999Y-66000000D01*
D13*
X302000000Y-71300000D02*
X304450000Y-71300000D01*
D17*
X311700000Y-66200000D02*
X310450000Y-66200000D01*
D16*
X304833682Y-71478529D02*
G75*
G02*
X307050000Y-69600000I2151318J-291471D01*
G01*
X301550000Y-67900001D02*
G75*
G02*
X303649999Y-66000000I2000000J-99999D01*
G01*
D14*
X304433682Y-71078529D02*
G75*
G02*
X306650000Y-69200000I2151318J-291471D01*
G01*
D10*
%TO.C,SW46*%
X320700000Y-71400000D02*
X320700000Y-70750000D01*
D11*
X321200000Y-73850000D02*
X321200000Y-72050001D01*
D12*
X322330000Y-70350000D02*
X322330000Y-72590000D01*
D13*
X330700000Y-72200000D02*
X329400000Y-72150000D01*
D14*
X330400000Y-69450000D02*
X330400000Y-71950000D01*
D15*
X329100000Y-70650000D02*
X322400000Y-70650000D01*
D16*
X330900000Y-72450000D02*
X330900000Y-68850000D01*
X330880000Y-71450000D02*
X330880000Y-69200000D01*
X320600000Y-71500000D02*
X320800000Y-71500000D01*
X320850000Y-69900000D02*
X320850000Y-74350000D01*
X320600000Y-70750000D02*
X320600000Y-71500000D01*
X320850000Y-74350000D02*
X323880000Y-74350000D01*
X326100000Y-72450000D02*
X330900000Y-72450000D01*
X330900000Y-68850000D02*
X322699999Y-68850000D01*
D13*
X321050000Y-74150000D02*
X323500000Y-74150000D01*
D17*
X330750000Y-69050000D02*
X329500000Y-69050000D01*
D16*
X323883682Y-74328529D02*
G75*
G02*
X326100000Y-72450000I2151318J-291471D01*
G01*
X320600000Y-70750001D02*
G75*
G02*
X322699999Y-68850000I2000000J-99999D01*
G01*
D14*
X323483682Y-73928529D02*
G75*
G02*
X325700000Y-72050000I2151318J-291471D01*
G01*
D10*
%TO.C,SW47*%
X201007403Y-98552053D02*
X201570319Y-98227053D01*
D11*
X199135641Y-100210065D02*
X200694486Y-99310066D01*
D12*
X202731730Y-99438674D02*
X200791833Y-100558674D01*
D13*
X205314583Y-107612307D02*
X204707884Y-106461474D01*
D14*
X207546152Y-105977499D02*
X205381089Y-107227499D01*
D15*
X205856922Y-105451666D02*
X202506922Y-99649296D01*
D16*
X205198076Y-107910512D02*
X208315768Y-106110512D01*
X206054102Y-107393191D02*
X208002659Y-106268191D01*
X200870800Y-98515450D02*
X200970800Y-98688655D01*
X202381441Y-97931956D02*
X198527628Y-100156956D01*
X201520319Y-98140450D02*
X200870800Y-98515450D01*
X198527628Y-100156956D02*
X200042628Y-102781013D01*
X202798076Y-103753590D02*
X205198076Y-107910512D01*
X208315768Y-106110512D02*
X204215767Y-99009103D01*
D13*
X198800833Y-100230162D02*
X200025833Y-102351924D01*
D17*
X208067563Y-106080608D02*
X207442563Y-104998076D01*
D16*
X200063063Y-102773467D02*
G75*
G02*
X202798076Y-103753590I823238J-2008831D01*
G01*
X201520319Y-98140451D02*
G75*
G02*
X204215767Y-99009103I913398J-1782050D01*
G01*
D14*
X200209473Y-102227057D02*
G75*
G02*
X202944486Y-103207180I823238J-2008831D01*
G01*
D17*
%TO.C,SW48*%
X241148743Y-85118094D02*
X239941336Y-85441618D01*
D13*
X233099239Y-92554860D02*
X235465758Y-91920754D01*
D16*
X241241868Y-84886086D02*
X233321275Y-87008402D01*
X237537173Y-89605750D02*
X242173617Y-88363419D01*
X232957818Y-92799809D02*
X235884573Y-92015587D01*
X231784588Y-89387181D02*
X231978702Y-90111625D01*
X231806073Y-88501439D02*
X232957818Y-92799809D01*
X231978702Y-90111625D02*
X232171888Y-90059862D01*
X241895479Y-87402669D02*
X241313136Y-85229336D01*
X242173617Y-88363419D02*
X241241868Y-84886086D01*
D15*
X239969076Y-87090627D02*
X233497373Y-88824714D01*
D14*
X240914196Y-85595051D02*
X241561244Y-88009865D01*
D13*
X241915727Y-88173701D02*
X240647082Y-88461870D01*
D12*
X233352112Y-88553054D02*
X233931867Y-90716728D01*
D11*
X233166483Y-92226260D02*
X232700609Y-90487594D01*
D10*
X232049413Y-89989151D02*
X231881181Y-89361299D01*
D14*
X235392674Y-91711053D02*
G75*
G02*
X237047275Y-89322907I2153453J275263D01*
G01*
D16*
X231784589Y-89387182D02*
G75*
G02*
X233321275Y-87008402I1957733J421047D01*
G01*
X235882573Y-91993895D02*
G75*
G02*
X237537173Y-89605750I2153452J275263D01*
G01*
D10*
%TO.C,SW49*%
X254050000Y-84750000D02*
X254050000Y-84100000D01*
D11*
X254550000Y-87200000D02*
X254550000Y-85400001D01*
D12*
X255680000Y-83700000D02*
X255680000Y-85940000D01*
D13*
X264050000Y-85550000D02*
X262750000Y-85500000D01*
D14*
X263750000Y-82800000D02*
X263750000Y-85300000D01*
D15*
X262450000Y-84000000D02*
X255750000Y-84000000D01*
D16*
X264250000Y-85800000D02*
X264250000Y-82200000D01*
X264230000Y-84800000D02*
X264230000Y-82550000D01*
X253950000Y-84850000D02*
X254150000Y-84850000D01*
X254200000Y-83250000D02*
X254200000Y-87700000D01*
X253950000Y-84100000D02*
X253950000Y-84850000D01*
X254200000Y-87700000D02*
X257230000Y-87700000D01*
X259450000Y-85800000D02*
X264250000Y-85800000D01*
X264250000Y-82200000D02*
X256049999Y-82200000D01*
D13*
X254400000Y-87500000D02*
X256850000Y-87500000D01*
D17*
X264100000Y-82400000D02*
X262850000Y-82400000D01*
D16*
X257233682Y-87678529D02*
G75*
G02*
X259450000Y-85800000I2151318J-291471D01*
G01*
X253950000Y-84100001D02*
G75*
G02*
X256049999Y-82200000I2000000J-99999D01*
G01*
D14*
X256833682Y-87278529D02*
G75*
G02*
X259050000Y-85400000I2151318J-291471D01*
G01*
D10*
%TO.C,SW50*%
X273100000Y-84750000D02*
X273100000Y-84100000D01*
D11*
X273600000Y-87200000D02*
X273600000Y-85400001D01*
D12*
X274730000Y-83700000D02*
X274730000Y-85940000D01*
D13*
X283100000Y-85550000D02*
X281800000Y-85500000D01*
D14*
X282800000Y-82800000D02*
X282800000Y-85300000D01*
D15*
X281500000Y-84000000D02*
X274800000Y-84000000D01*
D16*
X283300000Y-85800000D02*
X283300000Y-82200000D01*
X283280000Y-84800000D02*
X283280000Y-82550000D01*
X273000000Y-84850000D02*
X273200000Y-84850000D01*
X273250000Y-83250000D02*
X273250000Y-87700000D01*
X273000000Y-84100000D02*
X273000000Y-84850000D01*
X273250000Y-87700000D02*
X276280000Y-87700000D01*
X278500000Y-85800000D02*
X283300000Y-85800000D01*
X283300000Y-82200000D02*
X275099999Y-82200000D01*
D13*
X273450000Y-87500000D02*
X275900000Y-87500000D01*
D17*
X283150000Y-82400000D02*
X281900000Y-82400000D01*
D16*
X276283682Y-87678529D02*
G75*
G02*
X278500000Y-85800000I2151318J-291471D01*
G01*
X273000000Y-84100001D02*
G75*
G02*
X275099999Y-82200000I2000000J-99999D01*
G01*
D14*
X275883682Y-87278529D02*
G75*
G02*
X278100000Y-85400000I2151318J-291471D01*
G01*
%TD*%
M02*
