M48
; DRILL file {KiCad (5.1.10-1-10_14)} date Sunday, August 01, 2021 at 06:39:55 AM
; FORMAT={-:-/ absolute / metric / decimal}
; #@! TF.CreationDate,2021-08-01T06:39:55+09:00
; #@! TF.GenerationSoftware,Kicad,Pcbnew,(5.1.10-1-10_14)
; #@! TF.FileFunction,NonPlated,1,2,NPTH
FMAT,2
METRIC
T1C1.200
T2C1.900
T3C2.200
T4C3.000
T5C4.100
T6C4.300
%
G90
G05
T1
X167.3Y-81.6
X174.3Y-81.6
X185.0Y-81.7
X192.0Y-81.7
T2
X27.72Y-37.25
X27.72Y-56.3
X27.72Y-75.375
X37.88Y-37.25
X37.88Y-56.3
X37.88Y-75.375
X46.77Y-34.4
X46.77Y-53.45
X46.77Y-72.525
X56.93Y-34.4
X56.93Y-53.45
X56.93Y-72.525
X65.82Y-31.55
X65.82Y-69.65
X65.845Y-50.6
X75.345Y-88.7
X75.98Y-31.55
X75.98Y-69.65
X76.005Y-50.6
X84.845Y-47.725
X84.87Y-28.7
X84.87Y-66.8
X85.505Y-88.7
X94.395Y-88.7
X95.005Y-47.725
X95.03Y-28.7
X95.03Y-66.8
X103.92Y-31.55
X103.92Y-50.6
X103.945Y-69.625
X104.555Y-88.7
X114.08Y-31.55
X114.08Y-50.6
X114.105Y-69.625
X115.693Y-90.96
X122.97Y-34.4
X122.97Y-53.45
X122.97Y-72.475
X125.507Y-93.59
X133.13Y-34.4
X133.13Y-53.45
X133.13Y-72.475
X139.86Y-100.349
X142.02Y-43.95
X142.02Y-63.0
X144.94Y-91.551
X152.18Y-43.95
X152.18Y-63.0
X156.36Y-109.899
X161.44Y-101.101
X197.86Y-101.201
X202.94Y-109.999
X207.12Y-44.05
X207.12Y-63.05
X214.36Y-91.651
X217.28Y-44.05
X217.28Y-63.05
X219.44Y-100.449
X226.17Y-34.5
X226.17Y-53.55
X226.17Y-72.6
X233.793Y-93.715
X236.33Y-34.5
X236.33Y-53.55
X236.33Y-72.6
X243.607Y-91.085
X245.22Y-31.65
X245.22Y-50.7
X245.22Y-69.75
X254.77Y-88.8
X255.38Y-31.65
X255.38Y-50.7
X255.38Y-69.75
X264.27Y-28.8
X264.27Y-47.8
X264.27Y-66.9
X264.93Y-88.8
X273.82Y-88.8
X274.43Y-28.8
X274.43Y-47.8
X274.43Y-66.9
X283.32Y-31.65
X283.32Y-50.7
X283.32Y-69.75
X283.98Y-88.8
X293.48Y-31.65
X293.48Y-50.7
X293.48Y-69.75
X302.37Y-34.5
X302.37Y-53.55
X302.37Y-72.6
X312.53Y-34.5
X312.53Y-53.55
X312.53Y-72.6
X321.42Y-37.35
X321.42Y-56.4
X321.42Y-75.45
X331.58Y-37.35
X331.58Y-56.4
X331.58Y-75.45
T3
X159.4Y-86.4
X173.5Y-86.4
X185.8Y-86.5
X199.9Y-86.5
T4
X28.99Y-34.71
X28.99Y-53.76
X28.99Y-72.835
X35.34Y-32.17
X35.34Y-51.22
X35.34Y-70.295
X48.04Y-31.86
X48.04Y-50.91
X48.04Y-69.985
X54.39Y-29.32
X54.39Y-48.37
X54.39Y-67.445
X67.09Y-29.01
X67.09Y-67.11
X67.115Y-48.06
X73.44Y-26.47
X73.44Y-64.57
X73.465Y-45.52
X76.615Y-86.16
X82.965Y-83.62
X86.115Y-45.185
X86.14Y-26.16
X86.14Y-64.26
X92.465Y-42.645
X92.49Y-23.62
X92.49Y-61.72
X95.665Y-86.16
X102.015Y-83.62
X105.19Y-29.01
X105.19Y-48.06
X105.215Y-67.085
X111.54Y-26.47
X111.54Y-45.52
X111.565Y-64.545
X117.577Y-88.835
X124.24Y-31.86
X124.24Y-50.91
X124.24Y-69.935
X124.368Y-88.025
X130.59Y-29.32
X130.59Y-48.37
X130.59Y-67.395
X138.295Y-97.98
X139.271Y-91.21
X143.29Y-41.41
X143.29Y-60.46
X149.64Y-38.87
X149.64Y-57.92
X154.795Y-107.53
X155.771Y-100.76
X200.695Y-101.03
X206.069Y-105.26
X208.39Y-41.51
X208.39Y-60.51
X214.74Y-38.97
X214.74Y-57.97
X217.195Y-91.48
X222.569Y-95.71
X227.44Y-31.96
X227.44Y-51.01
X227.44Y-70.06
X233.79Y-29.42
X233.79Y-48.47
X233.79Y-67.52
X234.362Y-90.933
X239.839Y-86.836
X246.49Y-29.11
X246.49Y-48.16
X246.49Y-67.21
X252.84Y-26.57
X252.84Y-45.62
X252.84Y-64.67
X256.04Y-86.26
X262.39Y-83.72
X265.54Y-26.26
X265.54Y-45.26
X265.54Y-64.36
X271.89Y-23.72
X271.89Y-42.72
X271.89Y-61.82
X275.09Y-86.26
X281.44Y-83.72
X284.59Y-29.11
X284.59Y-48.16
X284.59Y-67.21
X290.94Y-26.57
X290.94Y-45.62
X290.94Y-64.67
X303.64Y-31.96
X303.64Y-51.01
X303.64Y-70.06
X309.99Y-29.42
X309.99Y-48.47
X309.99Y-67.52
X322.69Y-34.81
X322.69Y-53.86
X322.69Y-72.91
X329.04Y-32.27
X329.04Y-51.32
X329.04Y-70.37
T5
X32.8Y-37.25
X32.8Y-56.3
X32.8Y-75.375
X51.85Y-34.4
X51.85Y-53.45
X51.85Y-72.525
X70.9Y-31.55
X70.9Y-69.65
X70.925Y-50.6
X80.425Y-88.7
X89.925Y-47.725
X89.95Y-28.7
X89.95Y-66.8
X99.475Y-88.7
X109.0Y-31.55
X109.0Y-50.6
X109.025Y-69.625
X120.6Y-92.275
X128.05Y-34.4
X128.05Y-53.45
X128.05Y-72.475
X142.4Y-95.95
X147.1Y-43.95
X147.1Y-63.0
X158.9Y-105.5
X200.4Y-105.6
X212.2Y-44.05
X212.2Y-63.05
X216.9Y-96.05
X231.25Y-34.5
X231.25Y-53.55
X231.25Y-72.6
X238.7Y-92.4
X250.3Y-31.65
X250.3Y-50.7
X250.3Y-69.75
X259.85Y-88.8
X269.35Y-28.8
X269.35Y-47.8
X269.35Y-66.9
X278.9Y-88.8
X288.4Y-31.65
X288.4Y-50.7
X288.4Y-69.75
X307.45Y-34.5
X307.45Y-53.55
X307.45Y-72.6
X326.5Y-37.35
X326.5Y-56.4
X326.5Y-75.45
T6
X61.4Y-42.5
X66.5Y-82.4
X118.5Y-42.4
X134.8Y-84.7
X224.5Y-84.8
X240.8Y-42.5
X292.8Y-82.5
X297.9Y-42.6
T0
M30
