M48
; DRILL file {KiCad (5.1.10-1-10_14)} date Sunday, August 01, 2021 at 06:39:55 AM
; FORMAT={-:-/ absolute / metric / decimal}
; #@! TF.CreationDate,2021-08-01T06:39:55+09:00
; #@! TF.GenerationSoftware,Kicad,Pcbnew,(5.1.10-1-10_14)
; #@! TF.FileFunction,Plated,1,2,PTH
FMAT,2
METRIC
T1C0.400
T2C0.813
T3C1.000
T4C1.300
%
G90
G05
T1
X25.7Y-36.9
X25.7Y-51.5
X25.7Y-56.1
X25.7Y-70.5
X44.7Y-53.2
X44.8Y-34.1
X44.8Y-48.7
X44.8Y-67.7
X63.8Y-31.3
X63.8Y-50.3
X63.9Y-45.8
X63.9Y-64.9
X73.4Y-83.9
X82.7Y-42.9
X82.7Y-66.6
X82.8Y-28.4
X82.8Y-47.4
X82.8Y-62.0
X92.4Y-83.9
X101.9Y-31.3
X101.9Y-45.8
X101.9Y-50.3
X101.9Y-64.8
X101.9Y-69.4
X115.1Y-85.8
X120.9Y-53.3
X120.9Y-72.3
X121.0Y-34.1
X121.0Y-48.7
X121.0Y-67.7
X134.8Y-99.7
X138.7Y-101.9
X140.0Y-43.6
X140.0Y-62.7
X140.1Y-58.2
X151.3Y-109.2
X201.2Y-97.2
X205.0Y-43.8
X205.0Y-58.2
X205.0Y-62.8
X213.6Y-89.8
X214.8Y-86.6
X224.2Y-34.2
X224.2Y-48.8
X224.2Y-53.2
X224.2Y-67.8
X224.2Y-72.4
X230.6Y-89.6
X243.2Y-31.4
X243.2Y-45.8
X243.2Y-50.4
X243.2Y-65.0
X243.2Y-69.4
X252.8Y-84.0
X262.2Y-28.6
X262.2Y-43.0
X262.2Y-47.6
X262.2Y-62.2
X262.2Y-66.6
X271.8Y-84.0
X281.2Y-64.8
X281.4Y-31.4
X281.4Y-45.8
X281.4Y-50.6
X300.4Y-34.2
X300.4Y-48.8
X300.4Y-53.4
X300.4Y-67.8
X319.4Y-37.2
X319.4Y-51.6
X319.4Y-56.2
X319.4Y-70.6
T2
X158.891Y-39.522
X158.891Y-42.062
X158.891Y-44.602
X158.891Y-47.142
X158.891Y-49.682
X158.891Y-52.222
X158.891Y-54.762
X158.891Y-57.302
X158.891Y-59.842
X158.891Y-62.382
X158.891Y-64.922
X158.891Y-67.462
X162.6Y-74.0
X165.14Y-74.0
X167.68Y-74.0
X170.22Y-74.0
X174.111Y-39.522
X174.111Y-42.062
X174.111Y-44.602
X174.111Y-47.142
X174.111Y-49.682
X174.111Y-52.222
X174.111Y-54.762
X174.111Y-57.302
X174.111Y-59.842
X174.111Y-62.382
X174.111Y-64.922
X174.111Y-67.462
X185.191Y-39.622
X185.191Y-42.162
X185.191Y-44.702
X185.191Y-47.242
X185.191Y-49.782
X185.191Y-52.322
X185.191Y-54.862
X185.191Y-57.402
X185.191Y-59.942
X185.191Y-62.482
X185.191Y-65.022
X185.191Y-67.562
X189.1Y-74.1
X191.64Y-74.1
X194.18Y-74.1
X196.72Y-74.1
X200.411Y-39.622
X200.411Y-42.162
X200.411Y-44.702
X200.411Y-47.242
X200.411Y-49.782
X200.411Y-52.322
X200.411Y-54.862
X200.411Y-57.402
X200.411Y-59.942
X200.411Y-62.482
X200.411Y-65.022
X200.411Y-67.562
T4
X174.1Y-70.65
X174.1Y-77.15
X185.2Y-70.75
X185.2Y-77.25
T3
G00X164.25Y-79.5
M15
G01X163.75Y-79.5
M16
G05
G00X165.75Y-83.7
M15
G01X165.25Y-83.7
M16
G05
G00X169.75Y-83.7
M15
G01X169.25Y-83.7
M16
G05
G00X172.75Y-83.7
M15
G01X172.25Y-83.7
M16
G05
G00X186.55Y-79.6
M15
G01X187.05Y-79.6
M16
G05
G00X189.55Y-79.6
M15
G01X190.05Y-79.6
M16
G05
G00X193.55Y-79.6
M15
G01X194.05Y-79.6
M16
G05
G00X195.05Y-83.8
M15
G01X195.55Y-83.8
M16
G05
T0
M30
